<?xml version="1.0" standalone="no"?>
<!DOCTYPE svg PUBLIC "-//W3C//DTD SVG 20010904//EN"
 "http://www.w3.org/TR/2001/REC-SVG-20010904/DTD/svg10.dtd">
<svg version="1.0" xmlns="http://www.w3.org/2000/svg"
 width="512.000000pt" height="512.000000pt" viewBox="0 0 512.000000 512.000000"
 preserveAspectRatio="xMidYMid meet">

<g transform="translate(0.000000,512.000000) scale(0.100000,-0.100000)"
fill="#ffffff" stroke="none">
<path d="M1558 4290 c-51 -15 -94 -49 -118 -92 l-25 -43 3 -281 4 -281 -54
-17 c-192 -63 -318 -238 -318 -442 0 -303 300 -525 589 -435 84 26 137 60 199
125 98 103 145 251 123 384 -29 172 -156 320 -316 367 l-40 12 0 264 0 264
1505 0 1505 0 3 -1127 2 -1128 -626 0 -626 0 61 69 c80 90 104 145 104 236 0
215 -203 358 -413 291 -50 -17 -74 -37 -274 -237 -121 -121 -220 -218 -221
-217 -1 2 -37 71 -80 155 -42 84 -93 172 -112 197 -45 57 -122 110 -199 136
-59 20 -78 21 -685 18 l-624 -3 -80 -28 c-117 -41 -209 -100 -301 -191 -91
-92 -150 -184 -191 -301 l-28 -80 -3 -475 -3 -475 27 -42 c15 -22 46 -52 68
-65 l41 -23 830 0 830 0 45 27 c28 16 55 42 70 70 23 41 25 53 28 243 l4 200
41 -39 c128 -122 334 -139 483 -40 28 19 129 115 223 214 l173 180 734 0 c639
0 739 2 771 15 48 20 71 41 94 87 18 36 19 79 19 1208 0 1003 -2 1175 -14
1199 -22 41 -80 88 -123 100 -46 13 -3063 14 -3105 1z m62 -902 c205 -87 218
-385 22 -491 -112 -61 -237 -43 -327 46 -92 92 -110 215 -49 327 70 130 215
178 354 118z m552 -1068 c21 -6 57 -25 80 -43 37 -28 60 -66 159 -255 63 -122
123 -230 133 -241 33 -36 91 -35 127 2 8 8 121 123 253 256 250 253 265 263
332 247 34 -9 81 -56 90 -90 17 -71 10 -80 -323 -422 -174 -178 -330 -333
-348 -344 -42 -26 -110 -35 -160 -21 -73 20 -107 59 -191 223 -43 84 -88 163
-101 176 -30 30 -83 29 -120 -2 l-28 -24 -5 -389 -5 -388 -562 -3 -563 -2 0
370 c0 394 -3 425 -48 449 -50 27 -106 7 -128 -44 -11 -28 -14 -108 -14 -405
l0 -371 -122 3 -123 3 0 430 c0 423 0 431 23 497 69 198 235 344 447 391 44
10 1161 7 1197 -3z"/>
<path d="M2645 3795 c-19 -18 -25 -35 -25 -65 0 -30 6 -47 25 -65 l24 -25 665
0 665 0 28 24 c22 19 28 32 28 66 0 34 -6 47 -28 66 l-28 24 -665 0 -665 0
-24 -25z"/>
<path d="M2641 3354 c-41 -34 -44 -92 -6 -129 l24 -25 680 0 679 0 26 31 c14
17 26 39 26 50 0 32 -26 74 -55 87 -19 9 -195 12 -685 12 l-658 0 -31 -26z"/>
<path d="M3197 2930 c-14 -11 -28 -33 -32 -49 -7 -34 15 -85 44 -101 13 -6
161 -10 410 -10 l390 0 28 24 c22 19 28 32 28 66 0 34 -6 47 -28 66 l-28 24
-393 0 c-379 0 -394 -1 -419 -20z"/>
</g>
</svg>
