<?xml version="1.0" standalone="no"?>
<!DOCTYPE svg PUBLIC "-//W3C//DTD SVG 20010904//EN"
 "http://www.w3.org/TR/2001/REC-SVG-20010904/DTD/svg10.dtd">
<svg version="1.0" xmlns="http://www.w3.org/2000/svg"
 width="512.000000pt" height="512.000000pt" viewBox="0 0 512.000000 512.000000"
 preserveAspectRatio="xMidYMid meet">

<g transform="translate(0.000000,512.000000) scale(0.100000,-0.100000)"
fill="#ffffff" stroke="none">
<path d="M2535 5113 c-192 -17 -445 -71 -565 -122 -134 -56 -202 -101 -296
-196 -78 -77 -99 -106 -138 -186 -73 -150 -91 -240 -90 -449 1 -200 22 -328
93 -548 l39 -124 -25 -55 c-85 -186 1 -414 192 -509 61 -30 87 -37 157 -41
l84 -6 50 -106 c61 -132 142 -257 223 -343 61 -65 61 -66 60 -124 l0 -59 -177
-85 c-97 -47 -187 -95 -199 -107 -13 -12 -23 -34 -23 -50 0 -27 -8 -31 -243
-125 -133 -54 -247 -98 -252 -98 -6 0 -18 14 -27 30 -16 29 -16 31 10 77 35
63 37 157 5 219 -25 47 -83 102 -124 116 -26 9 -27 11 -17 46 13 46 4 111 -21
160 -22 42 -78 96 -110 107 -21 6 -21 8 -21 672 0 493 -3 676 -12 707 -26 86
-136 166 -228 166 -115 0 -240 -116 -240 -224 0 -14 -23 -16 -216 -16 -257 0
-279 -5 -349 -75 -102 -101 -102 -229 0 -330 56 -57 102 -75 189 -75 l56 0 0
-80 0 -80 -56 0 c-87 0 -133 -18 -189 -75 -102 -101 -102 -229 0 -330 70 -70
92 -75 349 -75 l216 0 0 -79 0 -79 -55 -7 c-75 -9 -183 -65 -235 -121 -23 -25
-56 -75 -73 -112 l-32 -67 0 -415 0 -415 31 -66 c39 -82 93 -142 160 -180 l51
-29 -61 -63 c-114 -118 -173 -251 -183 -412 -15 -259 126 -496 362 -609 146
-70 6 -66 2127 -66 1621 0 1923 3 1981 15 130 27 270 121 337 225 39 61 70
156 70 217 0 49 -158 756 -190 847 -54 157 -172 278 -365 373 -44 22 -225 98
-402 169 -256 102 -323 133 -323 147 0 51 -25 71 -213 162 l-186 90 0 58 c-1
57 0 59 61 130 83 97 166 227 223 350 l47 102 46 -4 c103 -8 223 39 302 118
144 144 156 370 28 532 -33 43 -106 100 -140 111 -6 2 0 47 15 108 42 173 51
248 51 400 0 102 -5 165 -17 214 -57 227 -211 373 -447 422 -73 15 -89 22
-113 50 -78 93 -268 198 -429 238 -152 39 -363 54 -533 39z m419 -178 c179
-32 329 -106 425 -211 84 -92 125 -198 138 -354 5 -69 10 -88 29 -107 38 -38
103 -24 125 28 17 42 -5 229 -36 311 -7 17 -4 17 34 3 231 -81 304 -362 206
-793 l-17 -72 -43 59 c-78 105 -191 178 -340 217 -57 16 -105 19 -265 18 -188
0 -201 -2 -356 -37 -220 -50 -334 -67 -509 -74 -214 -8 -355 21 -405 85 -22
28 -27 93 -9 139 13 37 73 98 126 128 98 58 303 107 498 120 124 8 132 11 150
46 21 39 11 84 -21 106 -21 13 -42 15 -128 9 -405 -26 -675 -144 -764 -333
-25 -54 -27 -66 -27 -193 1 -101 7 -164 24 -248 13 -62 22 -114 20 -115 -21
-12 -102 -47 -104 -45 -8 9 -57 187 -76 278 -30 140 -33 392 -6 490 82 302
277 451 695 530 59 11 145 24 192 29 113 13 333 6 444 -14z m-2019 -1040 l25
-24 0 -656 0 -655 -80 0 -80 0 0 135 c0 131 -1 137 -25 160 l-24 25 -271 0
-271 0 -24 25 c-33 32 -33 78 0 110 23 24 31 25 135 25 104 0 112 1 135 25 25
24 25 26 25 215 0 189 0 191 -25 215 -23 24 -31 25 -135 25 -104 0 -112 1
-135 25 -33 32 -33 78 0 110 l24 25 271 0 271 0 24 25 c22 21 25 33 25 95 0
62 3 74 25 95 15 16 36 25 55 25 19 0 40 -9 55 -25z m2478 -30 c133 -28 238
-96 293 -191 27 -46 54 -155 54 -222 0 -75 70 -117 127 -77 12 8 29 38 38 65
9 28 21 50 25 50 19 0 82 -64 103 -104 30 -57 30 -155 -1 -212 -40 -77 -128
-134 -206 -134 -21 0 -26 4 -22 18 15 52 17 72 5 94 -17 32 -39 47 -69 48 -49
0 -66 -24 -105 -147 -74 -235 -193 -441 -328 -570 -132 -126 -269 -170 -487
-160 -130 6 -194 23 -293 75 -190 99 -372 375 -457 692 -12 46 -28 82 -41 93
-31 25 -75 22 -106 -9 -23 -23 -25 -30 -18 -80 6 -51 5 -54 -16 -54 -81 0
-186 77 -213 157 -33 97 -15 175 59 248 51 52 102 75 164 75 34 0 81 37 81 64
0 8 -11 57 -25 108 -14 51 -25 98 -25 104 0 7 23 4 68 -9 57 -18 96 -21 267
-21 221 -1 315 10 585 69 195 42 190 42 345 43 80 1 156 -4 198 -13z m-2318
-1490 c33 -32 33 -78 0 -110 -23 -24 -28 -25 -175 -25 -147 0 -152 -1 -175
-25 -33 -32 -33 -78 0 -110 l24 -25 231 0 231 0 24 -25 c16 -15 25 -36 25 -55
0 -19 -9 -40 -25 -55 l-24 -25 -231 0 -231 0 -24 -25 c-16 -15 -25 -36 -25
-55 0 -19 9 -40 25 -55 l24 -25 231 0 231 0 24 -25 c33 -32 33 -78 0 -110
l-24 -25 -231 0 -231 0 -24 -25 c-33 -32 -33 -78 0 -110 23 -24 28 -25 175
-25 147 0 152 -1 175 -25 33 -32 33 -78 0 -110 l-24 -25 -234 0 c-268 0 -301
7 -366 71 -70 71 -72 86 -69 510 3 416 1 402 74 473 61 59 90 64 357 65 l238
1 24 -25z m1555 -189 c87 -22 276 -31 373 -17 43 6 111 22 150 36 40 14 80 28
90 32 15 5 17 -2 17 -50 l0 -55 -175 -146 -174 -146 -52 0 -51 0 -174 145
-174 145 0 60 0 59 53 -23 c28 -13 81 -31 117 -40z m-155 -276 c99 -83 181
-155 183 -160 4 -10 -186 -250 -198 -250 -9 0 -350 455 -350 468 0 8 158 91
175 91 6 0 91 -67 190 -149z m1050 108 c47 -23 85 -46 85 -50 0 -9 -352 -480
-355 -476 -1 2 -47 60 -103 130 l-102 127 187 155 c103 86 191 156 195 156 4
0 46 -19 93 -42z m-1320 -453 c150 -202 211 -276 230 -281 37 -9 76 11 114 61
l33 45 39 -31 c22 -17 39 -39 39 -50 0 -19 -174 -1080 -185 -1126 l-5 -23
-591 0 -591 0 44 50 c207 236 222 563 38 812 -42 58 -119 130 -167 156 -12 7
-11 15 11 47 42 62 55 128 37 191 -9 30 -7 33 29 49 43 19 90 65 113 110 13
26 46 42 303 147 159 64 292 117 297 118 4 0 99 -124 212 -275z m1907 120
c200 -81 390 -162 423 -180 111 -62 188 -145 221 -237 23 -67 184 -782 184
-820 0 -88 -89 -195 -208 -251 l-67 -32 -710 0 -709 0 -97 580 c-53 319 -96
580 -95 581 0 0 19 14 42 32 l41 31 37 -50 c39 -51 69 -66 110 -55 16 4 88 92
230 282 136 181 212 274 221 270 7 -2 177 -71 377 -151z m-1144 -85 c34 -44
62 -83 62 -87 -1 -4 -39 -36 -85 -71 l-85 -62 -85 62 c-46 35 -84 67 -85 71 0
4 28 43 63 87 61 78 63 79 107 79 44 0 46 -1 108 -79z m-53 -420 c11 -57 165
-991 165 -1005 0 -13 -29 -15 -223 -15 l-224 0 84 503 c46 276 85 511 88 522
3 17 12 20 54 20 46 0 51 -2 56 -25z m-1940 -75 c239 -63 395 -296 357 -537
-40 -259 -291 -443 -545 -400 -193 33 -343 170 -392 357 -89 343 237 669 580
580z"/>
<path d="M661 3514 c-20 -25 -21 -40 -21 -219 0 -179 1 -194 21 -219 16 -20
29 -26 59 -26 30 0 43 6 59 26 20 25 21 40 21 219 0 179 -1 194 -21 219 -16
20 -29 26 -59 26 -30 0 -43 -6 -59 -26z"/>
<path d="M3625 1015 c-25 -24 -25 -26 -25 -215 0 -189 0 -191 25 -215 l24 -25
420 0 c287 0 428 4 444 11 14 6 30 22 36 36 15 33 15 357 -1 386 -24 47 -20
46 -471 47 l-428 0 -24 -25z m775 -215 l0 -80 -320 0 -320 0 0 80 0 80 320 0
320 0 0 -80z"/>
<path d="M780 944 c-192 -70 -274 -277 -180 -453 37 -69 69 -100 144 -139 43
-22 64 -26 136 -26 73 0 92 4 137 27 69 36 120 88 152 156 37 80 37 193 -2
268 -57 110 -154 174 -272 180 -48 2 -84 -2 -115 -13z m163 -158 c103 -43 128
-177 48 -257 -65 -65 -157 -65 -222 0 -124 123 13 325 174 257z"/>
</g>
</svg>
