<?xml version="1.0" standalone="no"?>
<!DOCTYPE svg PUBLIC "-//W3C//DTD SVG 20010904//EN"
 "http://www.w3.org/TR/2001/REC-SVG-20010904/DTD/svg10.dtd">
<svg version="1.0" xmlns="http://www.w3.org/2000/svg"
 width="512.000000pt" height="512.000000pt" viewBox="0 0 512.000000 512.000000"
 preserveAspectRatio="xMidYMid meet">

<g transform="translate(0.000000,512.000000) scale(0.100000,-0.100000)"
fill="#14213d" stroke="none">
<path d="M2320 5114 c-208 -32 -368 -93 -507 -195 -130 -95 -273 -264 -273
-321 0 -50 53 -82 104 -62 8 3 46 45 85 93 256 321 691 426 1076 261 27 -12
86 -46 131 -75 l81 -54 114 2 c133 2 184 -11 279 -75 68 -45 128 -122 162
-207 21 -53 22 -74 26 -379 l4 -324 -23 4 c-16 2 -31 18 -47 51 -21 39 -56 72
-198 182 -95 75 -192 144 -216 155 -73 33 -129 27 -300 -34 -397 -141 -719
-218 -1025 -247 -131 -12 -184 -32 -208 -79 -10 -19 -23 -30 -36 -30 -21 0
-21 2 -16 223 3 122 9 239 12 259 6 31 3 41 -19 62 -15 16 -36 26 -54 26 -73
0 -91 -83 -92 -412 l0 -238 -35 -46 c-130 -170 -45 -398 174 -470 l51 -16 0
-48 c0 -109 48 -287 110 -410 74 -147 204 -293 340 -381 l80 -52 0 -62 0 -62
-98 -67 -97 -67 -324 -95 c-179 -53 -350 -108 -380 -124 -110 -55 -192 -146
-236 -263 -34 -91 -247 -1175 -247 -1259 0 -113 57 -205 154 -249 53 -24 53
-24 508 -27 335 -2 460 0 477 9 32 17 48 61 32 91 -23 44 -37 47 -191 48
l-148 0 0 368 0 369 -23 21 c-29 27 -67 28 -98 3 l-24 -19 -3 -371 -3 -371
-212 1 c-137 0 -224 4 -246 12 -51 18 -72 53 -72 119 0 31 49 306 111 615 122
614 133 649 212 718 63 53 100 68 398 155 151 44 280 82 286 85 7 2 41 -79 85
-203 46 -129 82 -216 96 -230 28 -28 83 -52 120 -52 21 -1 58 -27 148 -107
217 -192 251 -191 477 5 93 81 132 109 147 105 28 -7 106 31 126 61 10 15 37
82 61 149 24 67 56 155 70 195 15 42 32 72 40 72 25 0 558 -160 600 -180 68
-33 121 -86 153 -153 24 -51 51 -165 141 -621 62 -308 112 -582 112 -611 1
-59 -12 -88 -49 -113 -23 -15 -58 -17 -255 -20 l-228 -4 0 365 c0 353 -1 365
-21 391 -27 34 -71 35 -104 1 l-25 -24 0 -366 0 -365 -709 0 c-701 0 -709 0
-735 -21 -36 -28 -36 -80 1 -109 l26 -20 1021 2 c1014 3 1021 3 1067 24 105
49 159 133 160 247 0 73 -210 1160 -242 1252 -43 121 -128 219 -239 275 -31
16 -198 70 -371 120 l-314 92 -107 70 -108 71 0 58 0 59 58 37 c185 118 340
304 409 490 33 89 62 216 64 278 2 83 9 96 61 112 53 15 138 76 173 123 37 51
58 124 53 188 -4 59 -38 140 -70 169 -17 15 -18 40 -18 347 0 182 -5 361 -10
399 -27 182 -131 339 -284 426 -95 54 -170 74 -291 75 -107 2 -112 3 -158 35
-58 40 -168 91 -257 120 -118 39 -324 60 -430 45z m904 -1201 c107 -83 168
-137 173 -153 5 -14 8 -180 7 -370 0 -391 -6 -431 -83 -595 -89 -190 -264
-354 -452 -423 -133 -49 -320 -65 -468 -41 -157 25 -320 117 -447 251 -82 88
-131 165 -174 274 -54 134 -60 192 -60 547 l0 325 23 6 c12 3 38 6 57 6 46 0
270 34 391 59 225 47 465 116 674 194 66 25 136 46 156 46 32 1 58 -15 203
-126z m-1654 -433 c0 -156 -1 -160 -43 -139 -114 59 -124 193 -19 260 25 16
50 29 54 29 4 0 8 -67 8 -150z m2097 71 c30 -44 30 -98 0 -142 -21 -32 -80
-79 -98 -79 -5 0 -9 68 -9 151 l0 150 42 -23 c23 -13 53 -38 65 -57z m-1331
-1362 c135 -36 401 -28 517 16 15 6 17 1 17 -41 -1 -39 -20 -96 -94 -269 l-93
-220 -122 0 -123 0 -94 224 c-70 166 -94 236 -94 268 0 24 2 43 3 43 2 0 39
-10 83 -21z m749 -307 c-8 -20 -39 -106 -69 -191 -30 -84 -57 -156 -60 -158
-7 -8 -126 78 -126 91 0 6 34 93 76 193 l77 182 58 -40 59 -39 -15 -38z m-908
30 c17 -42 52 -125 77 -185 l45 -108 -62 -44 c-33 -25 -64 -45 -67 -45 -6 0
-140 369 -140 385 0 11 89 73 105 74 6 1 24 -34 42 -77z m571 -423 l42 -31
-42 -38 c-145 -126 -174 -150 -188 -150 -15 0 -220 175 -220 188 0 4 17 19 38
34 36 27 40 27 183 28 l145 0 42 -31z"/>
</g>
</svg>
