<?xml version="1.0" standalone="no"?>
<!DOCTYPE svg PUBLIC "-//W3C//DTD SVG 20010904//EN"
 "http://www.w3.org/TR/2001/REC-SVG-20010904/DTD/svg10.dtd">
<svg version="1.0" xmlns="http://www.w3.org/2000/svg"
 width="512.000000pt" height="512.000000pt" viewBox="0 0 512.000000 512.000000"
 preserveAspectRatio="xMidYMid meet">

<g transform="translate(0.000000,512.000000) scale(0.100000,-0.100000)"
fill="#ffffff" stroke="none">
<path d="M2100 4770 l-420 -210 -530 0 c-508 0 -531 -1 -584 -20 -76 -29 -139
-88 -178 -168 l-33 -67 0 -1485 0 -1485 33 -67 c39 -80 102 -139 178 -168 53
-19 75 -20 744 -20 l690 0 0 -370 0 -370 -186 0 c-117 0 -193 -4 -207 -11 -63
-32 -77 -111 -28 -160 l29 -29 952 0 952 0 29 29 c49 49 35 128 -28 160 -14 7
-90 11 -207 11 l-186 0 0 370 0 370 690 0 c669 0 691 1 744 20 76 29 139 88
178 168 l33 67 0 1485 0 1485 -33 67 c-39 80 -102 139 -178 168 -53 19 -76 20
-584 20 l-530 0 -420 210 c-333 166 -429 210 -460 210 -31 0 -127 -44 -460
-210z m1055 -292 c322 -161 585 -295 585 -298 0 -3 -265 -138 -590 -300 l-590
-295 -590 295 c-324 162 -590 297 -590 300 0 7 1162 589 1177 589 7 1 276
-131 598 -291z m-1925 -143 c-68 -35 -101 -75 -107 -129 -12 -107 14 -135 238
-246 l178 -90 3 -363 3 -364 30 -49 c47 -76 94 -101 237 -129 440 -85 894 -93
1353 -24 273 40 327 62 382 156 l28 48 3 363 3 362 49 25 50 25 0 -341 0 -341
29 -29 c51 -51 137 -33 160 33 7 20 11 163 11 403 l0 372 37 24 c21 13 48 40
61 59 20 29 23 44 20 93 -5 66 -33 103 -108 142 l-45 24 313 1 c341 0 350 -1
388 -57 18 -27 19 -69 22 -1290 l2 -1263 -2010 0 -2010 0 2 1263 c3 1219 4
1263 22 1290 37 55 44 56 386 56 l315 0 -45 -24z m1330 -955 c31 0 122 41 430
195 l390 195 0 -285 c0 -284 0 -285 -22 -299 -27 -17 -279 -60 -453 -77 -66
-7 -221 -12 -345 -12 -124 0 -279 5 -345 12 -174 17 -426 60 -452 77 -23 14
-23 15 -23 299 l0 285 390 -195 c308 -154 399 -195 430 -195z m2005 -1925 c-1
-71 -5 -96 -19 -118 -41 -61 102 -57 -1988 -57 -1844 0 -1914 1 -1941 19 -48
31 -60 59 -65 142 -2 43 -2 85 1 94 6 13 207 15 2009 13 l2003 -3 0 -90z
m-1647 -747 l2 -368 -360 0 -360 0 0 363 c0 200 3 367 7 370 4 4 164 6 357 5
l351 -3 3 -367z"/>
<path d="M1149 2631 c-38 -39 -40 -97 -5 -138 l24 -28 147 0 147 0 24 28 c35
41 33 99 -5 138 l-29 29 -137 0 -137 0 -29 -29z"/>
<path d="M1799 2631 c-38 -39 -40 -97 -5 -138 l24 -28 545 0 c523 0 546 1 566
19 46 42 43 117 -6 156 -25 19 -41 20 -560 20 l-535 0 -29 -29z"/>
<path d="M1174 2170 c-60 -25 -73 -112 -25 -161 l29 -29 137 0 137 0 29 29
c38 39 40 97 5 138 -24 28 -25 28 -158 30 -73 1 -143 -2 -154 -7z"/>
<path d="M1824 2170 c-60 -24 -73 -112 -25 -161 l29 -29 1057 0 1057 0 29 29
c38 39 40 97 5 138 l-24 28 -1054 2 c-581 1 -1063 -2 -1074 -7z"/>
</g>
</svg>
