<?xml version="1.0" standalone="no"?>
<!DOCTYPE svg PUBLIC "-//W3C//DTD SVG 20010904//EN"
 "http://www.w3.org/TR/2001/REC-SVG-20010904/DTD/svg10.dtd">
<svg version="1.0" xmlns="http://www.w3.org/2000/svg"
 width="512.000000pt" height="512.000000pt" viewBox="0 0 512.000000 512.000000"
 preserveAspectRatio="xMidYMid meet">

<g transform="translate(0.000000,512.000000) scale(0.100000,-0.100000)"
fill="#14213d" stroke="none">
<path d="M2512 5103 c-12 -10 -73 -139 -137 -288 -64 -148 -117 -270 -118
-271 -1 -1 -132 -14 -291 -29 -159 -15 -299 -32 -312 -37 -35 -16 -50 -63 -33
-97 8 -16 112 -114 232 -220 119 -106 217 -193 217 -194 0 -2 -29 -133 -64
-291 -36 -159 -62 -296 -59 -305 11 -31 47 -61 73 -61 16 0 99 43 206 106 357
211 329 197 361 180 15 -8 131 -75 257 -150 139 -82 240 -136 256 -136 26 0
62 30 73 61 3 9 -23 146 -59 305 -35 158 -64 289 -64 291 0 1 98 88 218 193
119 106 223 205 231 220 18 37 1 84 -37 99 -23 9 -513 61 -578 61 -18 0 -38
41 -140 276 -70 162 -127 282 -139 290 -27 19 -69 18 -93 -3z m140 -476 c55
-130 95 -208 110 -220 18 -13 71 -22 238 -37 118 -12 219 -22 224 -23 4 -2
-67 -69 -158 -150 -92 -82 -172 -159 -178 -172 -9 -19 -1 -67 39 -244 27 -122
47 -221 44 -221 -2 0 -90 50 -194 112 -119 70 -200 111 -217 111 -17 0 -95
-40 -208 -106 -99 -59 -187 -109 -194 -112 -10 -4 -1 54 36 219 48 216 49 225
33 250 -10 14 -90 90 -178 168 -88 78 -157 144 -152 145 4 1 105 11 223 23
167 15 220 24 238 37 15 12 55 91 110 220 48 112 89 203 92 203 3 0 44 -91 92
-203z"/>
<path d="M866 4458 c-14 -14 -56 -97 -101 -203 -43 -99 -81 -184 -85 -188 -4
-5 -102 -18 -216 -29 -219 -21 -236 -26 -255 -75 -5 -13 -5 -33 1 -47 5 -13
79 -86 164 -162 86 -75 156 -143 156 -151 0 -7 -18 -95 -41 -196 -22 -100 -41
-194 -41 -210 -1 -36 37 -77 72 -77 23 0 186 89 347 189 41 25 49 27 67 16
159 -99 351 -205 370 -205 13 0 35 9 50 21 36 28 34 56 -14 266 -22 97 -40
183 -40 193 0 9 69 78 156 154 85 76 159 149 164 162 6 14 6 34 1 47 -19 49
-36 54 -255 75 -114 11 -212 24 -217 29 -4 4 -42 89 -84 188 -78 184 -105 225
-150 225 -13 0 -35 -10 -49 -22z m109 -398 c30 -69 62 -131 69 -139 9 -8 64
-19 148 -27 73 -8 139 -15 145 -16 7 -2 -37 -47 -97 -101 -128 -114 -124 -100
-84 -280 15 -65 24 -120 22 -123 -3 -2 -58 27 -123 66 -65 38 -128 70 -140 70
-12 0 -75 -32 -140 -70 -65 -39 -120 -68 -123 -66 -2 3 7 58 22 123 40 180 44
166 -84 280 -60 54 -104 99 -97 101 6 1 72 8 144 16 73 7 139 19 147 25 12 10
55 101 111 235 9 21 18 36 20 34 2 -2 29 -59 60 -128z"/>
<path d="M4156 4458 c-15 -14 -55 -95 -101 -203 -42 -99 -80 -184 -84 -188 -5
-5 -103 -18 -217 -29 -219 -21 -236 -26 -255 -75 -5 -13 -5 -33 1 -47 5 -13
79 -86 164 -161 88 -78 156 -145 156 -155 0 -10 -18 -96 -40 -193 -22 -96 -40
-190 -40 -209 0 -42 34 -78 73 -78 22 0 201 98 373 205 18 11 26 9 67 -16 161
-100 324 -189 347 -189 36 0 70 38 70 78 0 18 -18 113 -40 212 -22 99 -40 186
-40 194 0 7 64 70 143 138 78 69 151 135 161 147 27 30 25 77 -5 106 -22 21
-41 25 -233 43 -114 11 -212 24 -216 29 -4 4 -42 89 -85 188 -78 184 -106 225
-150 225 -13 0 -35 -10 -49 -22z m109 -398 c31 -71 63 -135 71 -141 8 -6 74
-18 147 -25 72 -8 138 -15 145 -16 7 -2 -36 -47 -97 -101 -129 -114 -125 -99
-85 -280 15 -65 24 -120 22 -123 -3 -2 -58 27 -123 66 -65 38 -128 70 -140 70
-12 0 -75 -32 -140 -70 -65 -39 -120 -68 -123 -66 -2 3 8 59 22 125 15 67 26
135 24 153 -2 27 -21 48 -110 128 -59 52 -102 96 -95 98 6 1 72 8 144 16 73 7
139 19 147 25 8 6 40 70 72 141 31 72 58 130 59 130 2 0 28 -58 60 -130z"/>
<path d="M2515 3387 c-84 -33 -165 -108 -184 -170 -5 -18 -15 -111 -21 -207
-13 -201 -40 -303 -112 -424 -54 -92 -167 -209 -237 -246 -62 -34 -177 -126
-323 -261 -53 -49 -99 -89 -102 -89 -3 0 -6 13 -6 29 0 41 -39 93 -90 118 -44
23 -48 23 -485 23 -258 0 -455 -4 -475 -10 -41 -11 -94 -61 -109 -103 -8 -19
-11 -308 -11 -896 l0 -868 23 -44 c15 -27 38 -53 63 -66 l39 -23 472 3 c461 2
472 2 500 23 40 30 73 82 73 115 0 35 3 36 115 3 150 -43 229 -88 403 -229 82
-66 70 -65 837 -65 760 0 745 -1 839 61 98 65 158 205 137 321 -6 33 -24 84
-40 113 l-30 53 34 24 c88 62 138 159 139 269 1 65 -3 84 -31 139 l-32 64 22
15 c42 28 98 95 125 150 38 78 39 191 1 271 l-25 55 57 36 c104 67 154 168
147 297 -6 125 -66 219 -180 279 l-53 28 -547 3 c-302 1 -548 6 -548 9 0 4 11
40 25 80 100 289 96 623 -11 921 -49 136 -155 212 -294 211 -41 0 -88 -6 -105
-12z m168 -158 c48 -25 68 -55 96 -144 34 -105 61 -271 61 -375 0 -162 -44
-361 -116 -518 -36 -79 -41 -107 -21 -133 29 -38 40 -39 647 -39 569 0 592 -1
630 -20 61 -31 85 -73 85 -151 0 -56 -4 -71 -27 -101 -46 -60 -75 -68 -260
-68 -178 0 -204 -6 -226 -54 -11 -22 -11 -33 -2 -57 18 -41 37 -49 127 -49
100 0 149 -14 189 -54 64 -64 68 -153 11 -227 -51 -67 -87 -81 -185 -73 -78 6
-85 5 -108 -17 -34 -32 -34 -90 2 -118 15 -12 40 -21 56 -21 68 0 134 -53 158
-126 23 -69 -16 -153 -93 -198 -46 -27 -58 -29 -150 -26 -43 2 -62 -2 -76 -14
-48 -43 -28 -118 37 -135 20 -6 44 -11 52 -11 21 0 79 -37 101 -63 26 -33 39
-96 29 -141 -12 -54 -38 -87 -90 -113 l-44 -23 -684 0 c-502 0 -689 3 -705 12
-12 6 -56 39 -97 73 -141 114 -254 169 -455 220 l-90 23 0 638 0 638 160 149
c186 174 301 268 361 297 96 44 238 206 312 355 71 143 86 208 102 435 13 173
17 189 67 221 32 21 112 25 146 8z m-1313 -2074 l0 -845 -425 0 -425 0 0 845
0 845 425 0 425 0 0 -845z"/>
<path d="M1005 1812 c-51 -11 -77 -70 -51 -120 17 -33 34 -42 75 -42 55 0 90
75 61 130 -11 21 -56 38 -85 32z"/>
</g>
</svg>
