<?xml version="1.0" standalone="no"?>
<!DOCTYPE svg PUBLIC "-//W3C//DTD SVG 20010904//EN"
 "http://www.w3.org/TR/2001/REC-SVG-20010904/DTD/svg10.dtd">
<svg version="1.0" xmlns="http://www.w3.org/2000/svg"
 width="500.000000pt" height="500.000000pt" viewBox="0 0 500.000000 500.000000"
 preserveAspectRatio="xMidYMid meet">

<g transform="translate(0.000000,500.000000) scale(0.100000,-0.100000)"
fill="#14213d" stroke="none">
<path d="M2050 4971 l-30 -29 0 -181 0 -181 -74 0 c-41 0 -82 -3 -91 -6 -28
-11 -42 -56 -70 -224 -28 -171 -40 -200 -85 -200 -10 0 -91 28 -180 61 -206
78 -205 78 -275 -44 l-50 -87 -252 0 -253 0 0 133 0 133 53 34 c76 51 110 119
105 216 -4 90 -40 154 -112 199 -44 27 -58 30 -131 30 -73 0 -87 -3 -131 -30
-155 -97 -151 -345 7 -426 l39 -19 0 -181 c0 -187 8 -228 45 -243 9 -3 133 -6
275 -6 l258 0 6 -35 c6 -29 28 -52 146 -149 76 -64 141 -120 144 -125 9 -14
-126 -21 -481 -24 -320 -2 -322 -2 -332 19 -17 38 -73 95 -114 115 -58 30
-137 36 -193 14 -60 -23 -122 -78 -145 -130 -22 -48 -25 -151 -5 -199 19 -47
73 -104 120 -129 57 -30 165 -30 222 0 45 24 100 81 114 119 9 24 10 24 162
24 84 0 232 3 328 6 l175 6 -45 -39 c-81 -68 -100 -91 -100 -118 0 -14 38 -92
85 -174 l85 -148 0 -187 0 -186 -215 0 -215 0 -10 24 c-14 38 -69 95 -114 119
-57 30 -165 30 -222 0 -85 -45 -138 -130 -138 -223 0 -93 53 -178 138 -223 57
-30 165 -30 222 0 45 24 100 81 114 119 l10 24 269 0 c148 0 277 3 286 6 8 4
23 20 31 37 14 25 16 64 13 245 l-4 215 133 51 c129 48 134 49 160 34 25 -16
29 -27 59 -198 21 -122 37 -188 48 -200 10 -11 37 -22 61 -26 l44 -6 0 -203 0
-203 -146 -4 c-139 -3 -147 -4 -165 -27 -18 -22 -19 -48 -19 -644 l0 -622
-375 -375 c-373 -373 -375 -376 -375 -417 0 -33 5 -46 26 -62 l27 -21 1359 0
1360 0 30 30 c55 56 51 62 -273 386 l-290 291 3 219 3 219 89 148 c49 81 93
150 97 153 4 2 77 -36 161 -85 85 -49 198 -111 253 -138 l100 -48 280 -3 c154
-2 290 0 302 3 47 11 53 45 53 301 l0 238 79 80 79 81 6 75 c4 41 6 107 4 145
l-3 70 92 5 c98 6 125 17 167 74 16 21 21 42 20 89 0 57 -10 84 -131 356
l-132 294 30 43 c91 133 124 259 116 448 -6 149 -24 247 -72 393 -89 268 -276
528 -504 699 -103 76 -464 264 -509 264 -23 0 -39 -10 -65 -40 l-34 -40 -281
0 -282 0 0 99 c0 82 -3 103 -19 122 l-19 24 -452 3 -451 3 -29 -30z m808 -231
c1 -47 4 -95 7 -107 10 -44 34 -48 323 -53 l274 -5 -136 -189 c-75 -105 -136
-196 -136 -203 0 -10 -34 -13 -157 -13 l-158 1 -26 43 c-41 68 -58 67 -248 -4
-89 -33 -169 -60 -179 -60 -9 0 -27 8 -38 18 -18 14 -26 47 -49 192 -32 197
-44 220 -110 220 l-35 0 0 125 0 125 333 -2 332 -3 3 -85z m-2190 -106 c12
-14 22 -36 22 -50 0 -34 -51 -84 -85 -84 -33 0 -85 50 -85 82 0 13 7 34 16 46
33 48 92 50 132 6z m3192 -64 c250 -127 413 -269 545 -476 123 -193 195 -435
196 -661 0 -159 -31 -250 -126 -362 -19 -24 -35 -54 -35 -68 0 -14 63 -166
140 -339 77 -173 140 -319 140 -324 0 -6 -46 -10 -115 -10 -110 0 -117 -1
-140 -25 -24 -23 -25 -29 -25 -165 l0 -140 -38 0 c-91 0 -208 47 -297 121 -60
49 -112 54 -144 13 -31 -40 -27 -77 14 -118 71 -71 206 -146 290 -161 56 -11
57 -12 30 -52 -25 -35 -25 -39 -25 -254 l0 -219 -202 0 -203 1 -180 92 c-99
51 -251 137 -337 191 l-158 98 0 283 0 283 183 72 c100 40 192 82 205 93 21
20 22 26 22 222 l0 201 -121 162 -121 162 -1 475 -1 476 177 249 c98 138 180
250 183 250 3 0 68 -32 144 -70z m-1706 -159 c4 -5 17 -78 31 -161 14 -84 30
-160 35 -170 12 -23 164 -110 192 -110 13 0 88 25 168 55 80 30 148 55 152 55
3 0 27 -37 53 -81 l47 -82 -28 -22 c-16 -13 -76 -63 -134 -112 l-105 -89 -3
-105 c-2 -73 1 -109 10 -121 7 -9 68 -62 136 -117 67 -56 121 -105 119 -109
-50 -91 -90 -152 -100 -152 -7 0 -80 25 -162 56 -90 33 -157 53 -170 50 -21
-5 -119 -60 -159 -88 -19 -14 -27 -51 -66 -285 l-12 -73 -97 0 -98 0 -23 143
c-27 174 -36 204 -63 221 -12 7 -50 29 -84 49 -33 20 -68 37 -77 37 -9 0 -82
-25 -162 -55 -81 -30 -152 -55 -159 -55 -7 0 -33 36 -58 80 l-45 80 111 91
c166 135 157 121 157 243 0 121 9 107 -159 241 -55 44 -100 86 -100 94 -1 11
67 138 85 160 2 2 71 -22 154 -53 83 -31 160 -56 171 -56 24 0 159 73 182 98
10 11 26 76 42 172 14 85 28 161 30 168 5 14 180 17 189 3z m1036 -576 l0
-165 -195 0 c-107 0 -195 2 -195 4 0 2 43 38 95 81 53 43 102 87 110 98 21 29
19 66 -5 105 -11 18 -20 35 -20 37 0 3 47 5 105 5 l105 0 0 -165z m-2785 -280
c64 -63 -4 -162 -90 -129 -19 8 -45 55 -45 84 0 32 44 70 80 70 19 0 40 -9 55
-25z m2785 -220 l0 -165 -105 0 -105 0 20 40 c39 76 32 90 -96 196 -57 47
-104 87 -104 90 0 2 88 4 195 4 l195 0 0 -165z m-600 -375 c88 -33 170 -60
181 -60 32 0 57 18 84 60 l25 40 208 0 207 -1 73 -98 72 -98 0 -67 0 -66 -165
0 -165 0 0 -85 0 -85 93 0 92 -1 -118 -47 c-64 -27 -125 -56 -135 -65 -13 -14
-18 -39 -20 -117 l-4 -100 -459 0 -460 0 3 203 3 202 79 6 c113 8 116 12 152
234 26 165 30 178 54 190 14 8 28 14 32 15 4 0 80 -27 168 -60z m-1941 -390
c31 -16 46 -65 31 -100 -15 -36 -37 -50 -80 -50 -35 0 -80 40 -80 72 0 25 26
75 42 81 22 9 68 7 87 -3z m1621 -1181 l0 -610 -77 -90 c-43 -49 -81 -89 -85
-89 -4 0 -6 89 -5 198 l2 197 -82 3 -83 3 0 -299 0 -299 -101 -117 -101 -116
-296 0 -297 0 313 313 312 313 0 602 0 602 250 0 250 0 0 -611z m340 340 l5
-266 163 -169 c113 -118 162 -175 162 -191 l0 -23 -250 0 -250 0 0 460 0 461
83 -3 82 -3 5 -266z m410 102 c0 -93 4 -181 10 -195 5 -14 34 -41 64 -60 l56
-35 -73 -121 -72 -120 -117 117 -118 118 0 232 0 233 125 0 125 0 0 -169z
m-412 -1288 l2 -373 -326 0 -326 0 34 38 c18 21 121 139 228 261 107 123 200
233 207 245 7 12 12 60 13 114 l0 93 83 -3 82 -3 3 -372z m332 235 l0 -142
232 -233 232 -233 -317 0 -317 0 0 375 0 375 85 0 85 0 0 -142z"/>
<path d="M3525 4158 c-3 -8 -4 -83 -3 -168 l3 -155 80 0 80 0 0 165 0 165 -78
3 c-57 2 -79 -1 -82 -10z"/>
<path d="M3527 3664 c-4 -4 -7 -43 -7 -86 l0 -78 85 0 86 0 -3 83 -3 82 -75 3
c-42 1 -79 0 -83 -4z"/>
<path d="M3520 3250 l0 -80 85 0 85 0 0 80 0 80 -85 0 -85 0 0 -80z"/>
<path d="M4219 3311 c-22 -17 -24 -29 -29 -123 l-5 -103 -103 -5 c-94 -5 -106
-7 -123 -29 -26 -32 -24 -77 6 -106 24 -24 28 -25 183 -25 158 0 159 0 183 26
23 25 24 30 24 179 0 149 -1 155 -24 179 -30 32 -78 34 -112 7z"/>
<path d="M1987 3910 c-93 -24 -171 -85 -218 -172 -32 -59 -34 -69 -34 -153 0
-71 5 -100 22 -137 30 -66 96 -133 162 -165 75 -36 200 -39 273 -6 63 29 134
96 166 158 37 72 42 188 13 266 -57 149 -235 246 -384 209z m153 -183 c30 -16
51 -37 67 -67 28 -52 29 -91 4 -146 -46 -102 -184 -127 -264 -49 -66 64 -69
155 -10 226 52 61 129 75 203 36z"/>
<path d="M2440 2585 l0 -86 81 3 82 3 -1 58 c-1 120 9 107 -82 107 l-80 0 0
-85z"/>
<path d="M2777 2664 c-4 -4 -7 -43 -7 -86 l0 -78 85 0 86 0 -3 83 -3 82 -75 3
c-42 1 -79 0 -83 -4z"/>
<path d="M1940 1585 l0 -86 83 3 82 3 0 80 0 80 -82 3 -83 3 0 -86z"/>
<path d="M1940 1250 l0 -81 83 3 82 3 0 75 0 75 -82 3 -83 3 0 -81z"/>
</g>
</svg>
