<?xml version="1.0" standalone="no"?>
<!DOCTYPE svg PUBLIC "-//W3C//DTD SVG 20010904//EN"
 "http://www.w3.org/TR/2001/REC-SVG-20010904/DTD/svg10.dtd">
<svg version="1.0" xmlns="http://www.w3.org/2000/svg"
 width="913.000000pt" height="1110.000000pt" viewBox="0 0 913.000000 1110.000000"
 preserveAspectRatio="xMidYMid meet">

<g transform="translate(0.000000,1110.000000) scale(0.100000,-0.100000)"
fill="#00A8E8" stroke="none">
<path d="M4080 10684 c-124 -79 -233 -144 -242 -144 -10 0 -122 27 -250 59
-128 32 -243 61 -255 63 -17 2 -61 -39 -208 -194 l-187 -198 -275 -2 -275 -3
-128 -224 c-71 -123 -133 -228 -138 -233 -6 -6 -125 -38 -266 -72 -140 -34
-258 -65 -262 -68 -3 -4 -39 -122 -79 -263 -40 -141 -74 -257 -76 -259 -2 -2
-85 -45 -184 -96 -99 -51 -205 -106 -237 -122 l-56 -30 -6 -66 c-3 -37 -8
-160 -12 -274 l-6 -207 -202 -177 c-110 -98 -203 -179 -205 -180 -2 -2 22
-123 53 -271 55 -263 55 -268 38 -293 -10 -14 -81 -114 -156 -224 l-138 -198
116 -243 c64 -134 116 -247 116 -252 0 -4 -43 -120 -96 -256 -63 -163 -93
-252 -87 -260 5 -7 82 -101 171 -209 114 -139 162 -204 162 -222 0 -14 -14
-130 -30 -258 -17 -128 -30 -240 -30 -249 0 -10 85 -81 217 -179 l218 -163 31
-269 c17 -148 33 -270 35 -272 2 -2 114 -50 249 -106 135 -57 248 -107 251
-112 3 -4 47 -120 98 -257 l94 -249 41 -6 c22 -4 144 -23 269 -43 l228 -36 76
-111 c197 -286 235 -336 257 -336 11 0 84 7 161 14 77 8 190 18 251 22 l110 6
193 -173 c106 -96 198 -177 205 -181 6 -4 127 32 267 80 l255 86 242 -127 242
-127 230 146 230 146 263 -66 262 -66 90 94 c50 51 134 139 188 195 l99 103
275 1 275 2 135 236 135 236 265 64 266 64 74 260 c40 143 77 262 81 266 4 3
93 50 197 104 105 54 211 109 237 124 l48 26 1 110 c0 61 2 119 4 130 2 11 5
81 6 156 0 75 4 140 7 145 4 5 96 87 204 182 146 127 198 179 198 195 0 12 -9
59 -20 104 -11 45 -22 94 -24 110 -3 15 -18 90 -33 166 -19 95 -25 142 -18
152 6 8 74 107 153 220 78 113 142 210 142 216 0 6 -52 119 -115 251 l-115
240 30 76 c16 43 59 153 95 245 36 92 65 174 65 182 0 8 -77 107 -171 220
l-170 206 31 247 c16 136 32 259 33 273 3 22 -5 32 -42 58 -25 16 -122 88
-216 158 -134 102 -171 135 -177 158 -4 17 -19 138 -34 270 -14 132 -29 243
-33 246 -3 4 -117 53 -252 109 l-245 103 -96 256 -97 256 -53 8 c-416 64 -483
78 -500 100 -10 12 -77 110 -149 217 -73 107 -135 198 -138 203 -6 6 -419 -23
-517 -37 -28 -4 -49 12 -235 178 l-204 183 -260 -87 -259 -87 -226 119 c-124
66 -232 124 -240 128 -11 6 -81 -33 -240 -136z m780 -658 c757 -92 1416 -406
1957 -929 760 -738 1124 -1752 1007 -2807 -144 -1295 -1042 -2404 -2279 -2815
-395 -131 -754 -184 -1170 -172 -502 15 -937 121 -1380 337 -679 331 -1225
877 -1555 1555 -165 340 -262 659 -315 1045 -23 160 -31 535 -16 712 90 1061
658 1997 1566 2578 374 240 860 418 1320 485 260 37 612 41 865 11z"/>
<path d="M4175 9949 c-1140 -106 -2136 -788 -2648 -1814 -232 -467 -342 -941
-340 -1475 2 -704 216 -1358 626 -1920 412 -563 986 -980 1642 -1194 338 -110
642 -156 1024 -156 382 0 694 51 1053 171 717 241 1342 742 1749 1404 259 420
426 927 466 1415 12 143 9 531 -5 650 -29 243 -79 469 -152 688 -414 1239
-1535 2121 -2835 2232 -139 11 -449 11 -580 -1z m635 -100 c745 -82 1409 -403
1939 -939 501 -507 812 -1159 896 -1879 20 -170 20 -547 0 -716 -72 -612 -305
-1168 -691 -1650 -112 -140 -337 -365 -479 -479 -782 -627 -1800 -851 -2775
-611 -888 219 -1649 822 -2065 1635 -256 502 -369 1003 -352 1560 23 714 253
1338 705 1909 99 126 360 386 492 490 531 420 1131 648 1830 695 86 6 395 -4
500 -15z"/>
<path d="M4290 9594 c-8 -1 -59 -6 -112 -9 l-98 -7 0 -43 0 -42 68 5 69 4 7
-113 c3 -63 9 -151 13 -196 l6 -83 47 0 c26 0 49 2 51 4 2 3 -1 74 -8 158 -6
84 -12 172 -12 195 l-1 41 66 7 66 8 -6 30 c-3 16 -6 33 -6 38 0 8 -116 11
-150 3z"/>
<path d="M4580 9594 c-1 -5 -7 -112 -14 -239 -8 -126 -12 -233 -9 -237 2 -5
26 -8 52 -8 l47 0 12 236 c7 130 11 238 10 240 -9 7 -98 15 -98 8z"/>
<path d="M4856 9543 c-3 -16 -22 -120 -42 -232 -37 -212 -37 -220 6 -221 8 0
24 -3 36 -6 19 -5 22 2 37 87 9 50 18 93 20 95 2 2 38 -2 80 -10 84 -14 87
-13 87 43 0 27 -2 29 -76 41 l-76 12 7 56 c4 32 9 59 11 61 2 3 41 -1 85 -9
90 -14 99 -10 99 41 0 26 -3 27 -113 48 -149 27 -154 27 -161 -6z"/>
<path d="M3698 9498 c-53 -13 -88 -26 -88 -34 0 -10 70 -301 101 -418 l10 -38
42 6 c23 4 45 10 49 14 4 4 -2 43 -13 87 -24 100 -24 93 7 101 23 6 36 -3 103
-70 l77 -77 52 12 c29 7 52 15 52 18 0 3 -40 42 -89 85 l-89 79 24 33 c37 48
41 93 14 149 -38 79 -94 90 -252 53z m161 -102 c23 -49 -12 -92 -82 -99 -16
-2 -23 8 -33 48 -8 28 -14 55 -14 62 0 15 25 22 75 20 33 -2 42 -7 54 -31z"/>
<path d="M5266 9428 c-9 -29 -40 -132 -70 -228 l-54 -175 47 -16 c25 -9 47
-15 49 -14 5 4 143 457 140 460 -7 5 -72 25 -84 25 -7 0 -20 -24 -28 -52z"/>
<path d="M3300 9356 c-76 -35 -114 -58 -112 -67 6 -26 54 -144 82 -199 16 -31
42 -92 60 -138 17 -45 35 -84 40 -87 8 -5 228 89 244 105 10 10 -12 70 -26 70
-5 0 -41 -14 -80 -30 -39 -17 -75 -27 -79 -23 -3 4 -16 29 -27 55 l-21 48 75
34 74 35 -12 28 c-19 46 -23 46 -98 13 -39 -17 -73 -30 -75 -28 -5 5 -35 80
-35 88 0 4 34 22 75 40 41 18 75 37 75 42 0 15 -30 68 -38 67 -4 0 -59 -24
-122 -53z"/>
<path d="M5536 9353 c-31 -64 -176 -391 -176 -396 0 -3 6 -7 13 -10 6 -3 63
-28 124 -56 l113 -50 16 30 c8 17 13 36 11 42 -2 7 -37 26 -76 42 -39 17 -71
34 -71 38 0 12 42 107 47 107 3 0 36 -14 75 -31 38 -17 71 -29 73 -27 1 2 10
18 19 36 l17 33 -75 34 -75 35 19 42 c10 24 23 44 28 46 5 1 39 -11 76 -28 37
-16 71 -30 75 -30 4 0 15 16 24 35 l17 36 -67 30 c-142 65 -176 79 -182 79 -4
0 -15 -17 -25 -37z"/>
<path d="M2967 9180 c-73 -28 -117 -67 -144 -127 -41 -90 -17 -182 75 -284 95
-106 204 -103 323 8 51 47 51 50 14 98 -15 18 -16 18 -58 -22 -53 -51 -76 -63
-123 -63 -30 0 -44 7 -74 39 -69 73 -95 155 -67 211 15 30 82 70 120 70 31 0
31 1 16 53 -11 42 -16 43 -82 17z"/>
<path d="M5920 9109 c-30 -45 -73 -107 -95 -139 -22 -31 -59 -84 -81 -118
l-42 -60 82 -55 c99 -67 132 -80 199 -80 93 0 164 53 213 158 44 93 23 189
-55 257 -32 28 -142 107 -161 116 -3 1 -30 -35 -60 -79z m151 -88 c42 -37 44
-42 44 -92 0 -45 -6 -62 -33 -101 -52 -76 -115 -96 -188 -62 -63 30 -62 32 28
168 46 69 88 125 94 125 6 1 31 -16 55 -38z"/>
<path d="M4180 8985 c-416 -56 -786 -209 -1136 -470 -112 -85 -336 -311 -429
-436 -471 -630 -597 -1425 -343 -2169 34 -101 133 -317 185 -405 185 -313 438
-580 738 -779 217 -145 530 -275 790 -329 181 -38 302 -50 495 -50 363 2 689
77 1011 234 827 404 1338 1248 1306 2158 -6 167 -8 188 -28 316 -96 612 -459
1180 -979 1537 -52 36 -115 76 -140 90 -25 14 -70 39 -100 56 -182 102 -435
186 -697 233 -154 28 -516 35 -673 14z m570 -86 c420 -55 833 -232 1138 -486
423 -353 695 -815 793 -1351 31 -168 38 -502 14 -679 -51 -381 -187 -721 -411
-1028 -349 -480 -862 -796 -1454 -896 -110 -18 -175 -23 -350 -23 -243 -1
-357 13 -577 69 -855 219 -1506 940 -1648 1825 -23 143 -28 480 -9 620 113
835 643 1512 1422 1817 331 129 732 178 1082 132z"/>
<path d="M3909 8030 c-185 -29 -315 -115 -378 -249 -23 -51 -26 -67 -26 -171
1 -152 21 -207 111 -296 57 -57 85 -74 259 -160 117 -57 203 -106 215 -121 22
-28 26 -82 10 -114 -21 -38 -69 -53 -165 -52 -129 1 -253 32 -427 108 -17 7
-18 -5 -18 -168 l0 -175 28 -10 c105 -42 191 -63 295 -71 270 -22 470 34 589
167 136 151 141 407 11 552 -59 66 -114 100 -306 193 -87 42 -171 89 -187 106
-48 47 -38 106 22 137 66 34 259 6 409 -59 l37 -16 56 142 c31 79 56 148 56
154 0 15 -112 57 -220 83 -97 24 -284 34 -371 20z"/>
<path d="M5209 8025 c-295 -56 -467 -241 -514 -554 -34 -221 -5 -444 78 -606
116 -229 394 -351 719 -315 339 38 532 219 589 553 18 106 7 374 -19 470 -35
127 -76 201 -156 281 -126 127 -255 175 -486 182 -91 2 -160 -1 -211 -11z
m272 -321 c77 -23 137 -87 168 -179 29 -87 39 -260 22 -372 -16 -103 -59 -192
-110 -227 -129 -90 -310 -66 -390 50 -82 119 -101 396 -40 560 56 148 193 214
350 168z"/>
<path d="M2850 7290 l0 -731 195 3 195 2 0 728 0 728 -195 0 -195 0 0 -730z"/>
<path d="M3125 6380 c-175 -38 -275 -170 -275 -365 0 -228 118 -355 317 -343
85 5 137 30 171 81 24 36 27 38 30 19 6 -40 -29 -123 -68 -162 -57 -57 -121
-75 -262 -75 l-118 0 0 -112 0 -113 133 0 c283 1 431 71 513 243 64 138 83
400 39 547 -39 127 -119 221 -224 261 -63 24 -191 33 -256 19z m148 -231 c38
-17 67 -78 67 -139 0 -46 -4 -56 -34 -86 -46 -46 -104 -48 -147 -5 -26 27 -29
35 -29 98 1 37 7 79 14 92 25 45 81 62 129 40z"/>
<path d="M3973 6372 c-109 -39 -184 -134 -220 -278 -24 -97 -24 -382 0 -477
33 -131 99 -227 191 -275 46 -24 61 -27 161 -27 133 0 187 17 256 82 89 83
129 222 129 449 0 279 -65 435 -214 512 -69 35 -223 42 -303 14z m162 -212
c17 -6 33 -26 47 -57 38 -87 36 -437 -4 -520 -31 -65 -106 -63 -135 4 -22 52
-32 214 -23 364 9 155 26 196 87 218 1 1 13 -3 28 -9z"/>
<path d="M4842 6371 c-175 -60 -251 -241 -239 -566 9 -256 70 -388 212 -463
46 -25 60 -27 165 -27 99 0 122 3 167 24 153 68 221 248 210 551 -3 85 -12
169 -21 203 -39 142 -114 236 -219 276 -75 27 -199 28 -275 2z m178 -221 c29
-16 49 -100 56 -234 7 -134 -8 -291 -32 -338 -30 -58 -99 -57 -129 2 -35 68
-44 391 -14 503 18 67 67 95 119 67z"/>
<path d="M5836 6368 c-18 -10 -317 -247 -345 -274 -12 -11 -3 -27 59 -104 l72
-91 43 38 c24 21 66 57 94 81 l50 43 0 -368 0 -368 140 -3 c129 -2 140 -1 145
16 5 15 4 368 -4 1000 l0 42 -117 0 c-68 0 -126 -5 -137 -12z"/>
<path d="M1716 7275 c-47 -16 -91 -57 -117 -107 -17 -33 -56 -235 -48 -242 4
-4 417 -66 454 -69 16 -2 21 8 32 63 18 96 16 188 -6 235 -47 105 -197 162
-315 120z m169 -114 c64 -29 80 -54 80 -121 0 -32 -4 -62 -8 -66 -7 -7 -297
33 -306 41 -2 2 0 25 4 51 5 35 16 57 40 81 30 30 38 33 92 33 35 0 74 -8 98
-19z"/>
<path d="M1940 6660 l0 -90 -60 0 -60 0 0 80 0 80 -46 0 -45 0 1 -72 c1 -40 1
-79 1 -85 -1 -9 -18 -13 -51 -13 l-49 0 -3 87 c-3 95 -9 103 -64 89 -22 -6
-24 -12 -24 -59 0 -28 3 -89 7 -134 l6 -83 87 0 c48 0 155 3 238 7 l152 6 0
123 c0 67 -3 129 -6 138 -4 11 -19 16 -45 16 l-39 0 0 -90z"/>
<path d="M7027 6596 c-87 -32 -127 -100 -127 -216 0 -41 4 -80 8 -86 4 -6 24
-14 45 -18 l38 -7 -6 73 c-7 81 2 108 47 141 22 16 42 20 96 20 81 0 136 -23
163 -67 24 -39 24 -70 -1 -125 -11 -23 -18 -46 -15 -51 2 -4 19 -13 36 -20 28
-12 33 -12 46 5 23 32 35 96 31 162 -8 124 -93 194 -243 200 -52 2 -93 -2
-118 -11z"/>
<path d="M1802 6312 l-233 -36 7 -46 c4 -25 8 -48 10 -51 1 -3 97 10 211 28
114 18 220 33 236 33 29 0 31 7 21 73 -4 20 -9 37 -13 36 -3 0 -111 -17 -239
-37z"/>
<path d="M6861 6143 c-5 -21 -19 -75 -30 -120 -12 -45 -24 -88 -27 -97 -4 -10
5 -17 32 -25 20 -6 40 -8 44 -6 4 3 16 37 25 77 10 40 19 76 21 80 3 5 113
-18 121 -26 1 -1 -7 -33 -18 -71 -10 -38 -19 -73 -19 -77 0 -8 72 -30 78 -23
2 2 12 34 21 72 l18 68 43 -2 c24 -1 47 -6 52 -11 6 -6 2 -39 -11 -86 -12 -42
-21 -78 -21 -81 0 -6 73 -25 78 -20 6 6 72 259 68 263 -2 1 -100 28 -217 58
-118 30 -222 57 -231 60 -13 4 -19 -4 -27 -33z"/>
<path d="M1853 6078 c-39 -13 -39 -14 -13 -98 11 -35 16 -67 12 -71 -4 -3 -29
-12 -55 -19 -58 -16 -59 -15 -84 83 l-18 68 -35 -6 c-19 -4 -38 -10 -41 -13
-9 -10 64 -262 76 -262 10 0 447 121 453 125 6 5 -20 95 -27 95 -4 0 -45 -11
-91 -24 -50 -15 -87 -21 -90 -16 -3 6 -14 41 -24 80 -10 38 -21 70 -25 69 -3
-1 -21 -6 -38 -11z"/>
<path d="M6748 5769 c-10 -23 -16 -45 -13 -49 2 -4 38 -22 80 -40 77 -34 82
-39 65 -70 -8 -14 -31 -21 -116 -31 l-107 -12 -22 -51 c-13 -28 -22 -52 -21
-53 0 0 51 8 111 18 61 10 115 19 121 19 7 0 15 -16 19 -37 14 -75 109 -128
178 -100 46 20 84 68 129 166 21 46 37 85 36 86 -7 5 -432 195 -437 195 -3 0
-14 -19 -23 -41z m287 -188 c27 -12 51 -24 53 -26 5 -5 -25 -61 -43 -79 -23
-22 -61 -20 -86 5 -17 17 -20 28 -14 57 8 42 23 75 33 70 4 -2 29 -14 57 -27z"/>
<path d="M2000 5689 c-102 -43 -199 -85 -217 -93 l-32 -15 19 -43 c12 -26 25
-42 34 -40 8 1 104 40 213 86 109 46 203 85 210 87 8 3 6 18 -9 52 -11 26 -23
47 -27 46 -3 0 -89 -36 -191 -80z"/>
<path d="M2155 5390 l-170 -99 -26 45 c-38 66 -42 68 -78 50 -17 -9 -31 -19
-31 -22 0 -10 156 -287 175 -312 4 -5 75 31 75 38 0 3 -13 27 -30 53 -16 26
-30 51 -30 56 0 4 76 51 170 105 l170 98 -20 38 c-11 21 -23 41 -28 44 -4 3
-84 -40 -177 -94z"/>
<path d="M6495 5299 c-15 -23 -23 -45 -18 -49 4 -4 77 -53 161 -110 83 -56
152 -107 152 -114 0 -6 -14 -29 -30 -50 -37 -49 -37 -59 -2 -77 15 -7 30 -15
33 -17 3 -1 52 65 108 147 l101 150 -29 20 c-16 12 -34 21 -39 21 -5 0 -24
-22 -42 -50 -18 -27 -34 -50 -36 -50 -2 0 -72 46 -156 103 -84 57 -158 107
-164 110 -7 4 -23 -11 -39 -34z"/>
<path d="M2440 5230 c-10 -40 -28 -99 -50 -170 -4 -15 -13 -23 -21 -20 -8 2
-35 5 -60 5 -60 0 -113 -39 -130 -95 -10 -33 -9 -47 4 -82 13 -33 93 -144 143
-197 2 -2 86 65 186 149 101 85 185 155 188 157 2 2 -12 20 -32 40 l-36 36
-69 -56 c-67 -56 -68 -56 -88 -37 -19 20 -19 20 13 115 18 52 32 100 32 107 0
7 -16 31 -34 53 l-34 40 -12 -45z m-49 -307 l40 -38 -53 -42 -52 -42 -23 32
c-38 51 -40 77 -9 104 37 31 50 29 97 -14z"/>
<path d="M6308 5056 c-16 -19 -28 -37 -28 -40 0 -3 79 -75 176 -161 l177 -156
33 32 c19 18 34 36 34 40 0 4 -66 64 -147 135 -82 71 -161 141 -178 156 -16
15 -32 28 -35 28 -3 0 -17 -16 -32 -34z"/>
<path d="M6153 4894 c-18 -14 -33 -29 -33 -34 0 -5 27 -40 60 -77 l61 -68 -61
-55 -60 -55 25 -27 c13 -16 27 -28 31 -28 3 0 31 23 62 51 l55 50 45 -44 45
-45 -39 -35 c-22 -19 -52 -46 -69 -60 l-30 -25 29 -31 29 -30 46 39 c25 22 72
63 104 92 l58 53 -156 175 c-86 96 -159 176 -163 177 -4 2 -22 -9 -39 -23z"/>
<path d="M2743 4872 l-22 -27 65 -60 65 -60 -39 -45 -39 -44 -34 27 c-19 15
-48 38 -64 52 l-31 24 -26 -33 -26 -32 59 -49 c32 -27 59 -52 59 -57 0 -5 -15
-24 -32 -43 l-33 -35 -65 55 -65 54 -30 -30 c-19 -19 -26 -32 -19 -37 6 -4 52
-43 103 -87 51 -44 96 -80 101 -80 8 0 310 350 310 360 0 8 -198 175 -206 174
-5 0 -19 -12 -31 -27z"/>
<path d="M5857 4654 l-38 -25 19 -27 c11 -15 72 -103 137 -197 64 -93 122
-169 127 -167 6 1 25 14 44 28 l33 26 -40 56 c-22 31 -83 119 -135 195 -52 75
-98 137 -102 137 -4 0 -24 -11 -45 -26z"/>
<path d="M3040 4617 c-11 -18 -20 -35 -20 -38 0 -4 21 -12 46 -19 63 -18 124
-76 124 -118 0 -72 -73 -182 -134 -202 -45 -14 -108 10 -138 54 -12 17 -23 33
-25 35 -4 6 -73 -43 -73 -51 0 -16 65 -80 106 -104 25 -15 66 -28 96 -31 45
-4 61 -1 108 24 120 63 192 227 146 336 -23 57 -99 111 -189 138 -25 7 -30 4
-47 -24z"/>
<path d="M5600 4501 c-143 -76 -133 -67 -114 -104 9 -18 18 -33 19 -35 2 -2
39 15 82 37 l80 39 27 -55 c15 -30 26 -57 24 -58 -2 -1 -32 -17 -68 -35 -36
-18 -66 -34 -68 -35 -3 -3 25 -64 33 -73 2 -2 34 13 71 32 37 20 70 36 74 36
3 0 16 -20 28 -45 l22 -45 -75 -41 c-41 -22 -75 -43 -75 -45 0 -17 33 -65 43
-62 7 2 63 29 125 61 l113 57 -110 213 c-60 116 -113 212 -118 213 -4 1 -55
-24 -113 -55z"/>
<path d="M5277 4360 c-106 -34 -158 -66 -194 -122 -24 -36 -28 -52 -28 -112 1
-113 48 -199 130 -237 55 -26 125 -24 230 7 50 14 93 28 97 30 3 2 -9 52 -26
111 -76 248 -110 353 -115 352 -3 0 -46 -13 -94 -29z m76 -238 c24 -78 42
-144 38 -146 -3 -2 -30 -9 -58 -16 -47 -11 -57 -10 -90 7 -84 44 -114 201 -50
261 25 24 98 53 108 43 4 -3 27 -70 52 -149z"/>
<path d="M1628 3448 c-58 -101 -133 -232 -168 -293 -34 -60 -84 -146 -110
-190 -132 -225 -810 -1403 -815 -1417 -6 -15 9 -13 107 13 227 61 209 52 247
122 19 34 121 211 226 392 105 182 246 425 312 540 67 116 191 331 277 480 86
148 152 271 147 273 -5 2 -31 61 -57 133 -27 71 -52 129 -55 129 -4 0 -54 -82
-111 -182z"/>
<path d="M7167 3550 c-60 -15 -110 -30 -112 -32 -2 -2 82 -152 187 -333 104
-182 225 -391 268 -465 74 -128 137 -238 485 -840 81 -140 149 -257 151 -259
6 -7 318 -89 322 -86 2 2 -52 100 -120 218 -68 117 -333 576 -588 1020 -256
444 -469 806 -475 806 -5 -1 -59 -13 -118 -29z"/>
<path d="M6870 3478 l-45 -9 -99 -172 c-55 -95 -117 -202 -138 -239 l-39 -68
-272 0 -273 0 -52 -53 -53 -54 92 -159 c50 -87 175 -303 277 -479 101 -176
237 -410 300 -520 296 -513 375 -646 382 -638 4 4 54 184 111 398 57 215 104
391 105 393 1 2 769 -202 802 -213 9 -3 5 11 -10 37 -37 66 -311 541 -570 988
-129 223 -285 494 -348 603 -63 108 -116 196 -119 196 -3 -1 -26 -6 -51 -11z"/>
<path d="M1972 3317 c-11 -17 -130 -223 -264 -457 -135 -234 -345 -597 -467
-808 -121 -211 -221 -385 -221 -386 0 -3 494 128 710 188 52 14 97 22 100 18
4 -4 53 -182 110 -397 90 -340 120 -440 120 -398 0 5 35 70 78 144 43 74 141
242 217 374 76 132 163 283 193 335 30 52 98 169 150 260 52 91 143 248 202
350 100 172 180 315 180 322 0 4 -191 -9 -295 -20 -44 -5 -85 -7 -90 -5 -6 2
-58 73 -115 159 -58 85 -126 186 -152 223 l-47 68 -173 27 c-95 15 -183 29
-195 31 -16 4 -26 -3 -41 -28z"/>
<path d="M3149 2728 c-45 -79 -103 -179 -129 -223 -38 -64 -177 -305 -338
-585 -11 -19 -76 -132 -144 -250 -68 -118 -187 -323 -263 -455 -76 -132 -147
-253 -157 -270 -10 -16 -18 -39 -18 -50 0 -21 75 -304 83 -311 3 -3 77 120
165 273 88 153 251 436 362 628 111 193 244 422 295 510 50 88 159 277 242
420 83 143 155 269 161 281 10 19 2 29 -75 98 -47 42 -89 76 -94 76 -4 0 -44
-64 -90 -142z"/>
<path d="M5726 2701 l-89 -89 83 -144 c45 -78 158 -273 250 -433 92 -159 295
-510 450 -780 156 -269 309 -534 340 -588 l57 -98 41 159 c45 169 47 183 33
198 -5 5 -20 29 -33 54 -14 25 -68 119 -120 210 -181 312 -495 855 -708 1225
-117 204 -213 371 -214 372 -1 1 -42 -38 -90 -86z"/>
</g>
</svg>
