<?xml version="1.0" standalone="no"?>
<!DOCTYPE svg PUBLIC "-//W3C//DTD SVG 20010904//EN"
 "http://www.w3.org/TR/2001/REC-SVG-20010904/DTD/svg10.dtd">
<svg version="1.0" xmlns="http://www.w3.org/2000/svg"
 width="500.000000pt" height="500.000000pt" viewBox="0 0 500.000000 500.000000"
 preserveAspectRatio="xMidYMid meet">

<g transform="translate(0.000000,500.000000) scale(0.100000,-0.100000)"
fill="#14213d" stroke="none">
<path d="M2306 4467 c-210 -214 -344 -303 -616 -409 -197 -78 -343 -113 -600
-144 -132 -16 -175 -30 -187 -61 -6 -15 19 -361 38 -518 23 -195 94 -509 160
-707 127 -380 333 -747 556 -990 l53 -58 0 -240 0 -240 -27 0 c-22 1 -34 10
-55 45 -31 51 -86 83 -156 91 -39 5 -57 1 -102 -23 -142 -75 -156 -261 -27
-350 46 -32 147 -44 197 -23 31 13 110 92 110 110 0 6 30 10 74 10 41 0 82 3
91 6 38 15 45 55 45 265 l0 203 33 -30 c17 -17 60 -52 95 -79 l62 -48 0 -216
0 -217 -37 -39 c-37 -39 -39 -40 -84 -31 -63 12 -111 1 -161 -37 -57 -43 -83
-97 -82 -167 1 -118 86 -200 208 -200 127 1 217 117 194 250 -8 45 -8 45 50
103 l57 58 3 194 c2 107 5 195 8 195 2 0 34 -15 71 -34 38 -18 94 -44 126 -57
l57 -23 0 -106 0 -107 -40 -28 c-131 -91 -116 -284 28 -352 61 -29 114 -29
179 1 42 20 58 35 82 78 56 97 33 209 -56 271 l-43 31 0 122 0 121 48 18 c26
10 84 40 130 66 l82 47 0 -204 c0 -230 0 -232 73 -303 l45 -43 -5 -72 c-5 -60
-2 -79 15 -111 74 -146 271 -157 357 -20 25 41 30 58 29 109 -1 71 -18 110
-68 154 -52 45 -138 64 -191 42 -16 -6 -29 1 -62 33 l-43 41 0 248 c0 136 3
248 8 248 4 0 45 34 92 75 46 41 88 75 92 75 5 0 8 -110 8 -245 0 -296 -5
-285 118 -286 l77 0 30 -41 c48 -66 77 -82 154 -86 74 -4 110 8 156 53 41 42
59 86 59 146 1 157 -170 256 -307 176 -28 -17 -56 -44 -69 -67 -18 -31 -29
-40 -50 -40 l-28 0 0 278 0 278 33 40 c153 180 319 459 423 709 154 372 239
765 275 1274 l13 174 -28 23 c-15 13 -35 24 -44 24 -36 1 -315 40 -385 54
-149 31 -333 95 -490 170 -193 93 -283 160 -464 342 -142 145 -165 164 -193
164 -29 0 -52 -19 -194 -163z m317 -136 c146 -147 261 -231 442 -321 263 -131
517 -205 801 -236 34 -3 67 -10 74 -14 10 -6 10 -38 1 -156 -48 -603 -196
-1099 -457 -1531 -129 -214 -371 -486 -571 -644 -103 -81 -247 -167 -340 -204
l-73 -28 -72 28 c-172 67 -343 190 -549 395 -338 335 -542 700 -702 1260 -51
176 -104 516 -123 787 -8 106 -20 95 126 113 244 31 490 102 705 204 208 98
336 189 500 355 60 61 112 111 115 111 3 0 58 -54 123 -119z m-1121 -3258 c24
-21 23 -58 -2 -83 -55 -55 -135 24 -83 82 20 22 61 23 85 1z m2152 1 c35 -34
8 -104 -41 -104 -29 0 -63 33 -63 62 0 49 69 78 104 42z m-1080 -385 c14 -11
26 -29 26 -40 0 -24 -43 -69 -65 -69 -9 0 -27 11 -40 25 -14 13 -25 31 -25 40
0 20 44 65 63 65 8 0 26 -9 41 -21z m-642 -76 c53 -48 -17 -128 -78 -88 -28
18 -33 65 -8 89 20 21 63 20 86 -1z m1298 -2 c17 -34 12 -69 -14 -86 -60 -40
-127 34 -79 87 22 25 79 24 93 -1z"/>
<path d="M2470 4231 c-8 -5 -37 -30 -65 -56 -232 -218 -616 -398 -1028 -484
-161 -34 -177 -44 -177 -110 0 -99 42 -385 84 -570 159 -702 544 -1287 1051
-1598 44 -27 99 -57 122 -66 40 -16 46 -16 85 0 68 27 212 119 317 203 416
335 709 834 856 1458 41 176 85 472 85 573 0 65 -17 76 -162 106 -415 85 -766
247 -1027 473 -90 78 -111 89 -141 71z m129 -249 c162 -126 346 -227 560 -307
134 -50 318 -105 424 -125 79 -16 76 -7 52 -180 -87 -614 -301 -1114 -640
-1493 -168 -187 -448 -399 -508 -383 -12 3 -62 32 -112 64 -337 219 -613 567
-798 1007 -104 248 -199 628 -223 895 l-6 76 68 13 c107 21 291 76 425 126
240 90 450 211 624 359 17 14 31 25 32 26 1 0 47 -35 102 -78z"/>
<path d="M2406 3640 c-65 -17 -155 -71 -198 -119 -23 -25 -55 -75 -71 -111
-27 -58 -31 -77 -35 -187 l-4 -123 -53 0 c-38 0 -60 -6 -79 -21 l-26 -20 0
-388 0 -388 23 -21 23 -22 515 0 516 0 21 23 c22 23 22 27 22 409 l0 387 -26
20 c-19 15 -41 21 -79 21 l-53 0 -4 123 c-4 110 -8 128 -36 189 -63 138 -192
227 -340 234 -42 2 -94 -1 -116 -6z m199 -159 c52 -23 97 -69 124 -124 17 -36
21 -62 21 -150 l0 -107 -250 0 c-231 0 -250 1 -251 18 -4 104 5 202 20 237 22
50 74 102 126 126 53 25 156 25 210 0z m313 -813 l-3 -283 -415 0 -415 0 -3
283 -2 282 420 0 420 0 -2 -282z"/>
<path d="M2456 2779 c-25 -19 -26 -25 -26 -110 0 -76 3 -92 20 -109 26 -26 70
-26 98 0 19 18 22 31 22 110 0 84 -1 90 -26 109 -15 12 -34 21 -44 21 -10 0
-29 -9 -44 -21z"/>
</g>
</svg>
