<?xml version="1.0" standalone="no"?>
<!DOCTYPE svg PUBLIC "-//W3C//DTD SVG 20010904//EN"
 "http://www.w3.org/TR/2001/REC-SVG-20010904/DTD/svg10.dtd">
<svg version="1.0" xmlns="http://www.w3.org/2000/svg"
 width="360.000000pt" height="360.000000pt" viewBox="0 0 360.000000 360.000000"
 preserveAspectRatio="xMidYMid meet">

<g transform="translate(0.000000,360.000000) scale(0.100000,-0.100000)"
fill="#14213d" stroke="none">
<path d="M460 3326 c-87 -23 -149 -79 -180 -161 -30 -81 -4 -209 54 -264 22
-20 23 -26 13 -59 -18 -59 -14 -284 6 -382 37 -177 151 -461 248 -622 l23 -37
-28 -48 c-106 -184 -205 -435 -243 -613 -20 -97 -24 -322 -6 -382 10 -33 9
-39 -13 -58 -70 -67 -88 -195 -41 -293 45 -91 125 -138 234 -138 71 0 133 23
172 65 20 22 26 23 59 13 61 -18 295 -15 391 6 173 37 450 150 613 248 l37 23
48 -28 c184 -106 436 -205 613 -243 98 -20 323 -24 382 -6 33 10 39 9 58 -13
67 -70 195 -88 293 -41 90 45 138 125 138 232 0 69 -25 137 -65 175 -22 19
-23 25 -13 58 18 59 14 284 -6 382 -38 177 -137 429 -243 613 l-28 48 23 37
c97 161 211 445 248 622 20 98 24 323 6 382 -10 33 -9 39 13 58 70 67 88 195
41 293 -45 91 -125 138 -234 138 -71 0 -133 -23 -172 -65 -20 -22 -26 -23 -59
-13 -59 18 -284 14 -382 -6 -177 -38 -429 -137 -613 -243 l-47 -27 -48 27
c-183 106 -435 205 -612 243 -98 20 -323 24 -382 6 -33 -10 -39 -9 -59 13 -52
55 -159 82 -239 60z m124 -100 c106 -44 133 -181 52 -262 -131 -131 -344 30
-253 191 41 72 126 102 201 71z m2586 -16 c36 -26 69 -90 70 -134 0 -41 -36
-111 -67 -132 -67 -44 -153 -36 -209 20 -77 77 -59 196 40 258 42 26 120 20
166 -12z m-2067 -55 c47 -8 134 -31 194 -50 111 -37 406 -173 401 -186 -2 -4
-52 -43 -113 -87 -309 -224 -593 -508 -817 -817 -44 -60 -83 -111 -87 -113
-13 -5 -149 290 -186 401 -57 174 -80 363 -59 487 l6 35 76 0 c88 0 130 16
185 72 56 55 72 97 72 185 0 69 2 78 20 81 50 10 231 6 308 -8z m1687 9 l35
-6 0 -76 c0 -88 16 -130 72 -185 55 -56 97 -72 185 -72 l76 0 6 -35 c21 -124
-2 -313 -59 -487 -34 -103 -171 -403 -185 -403 -3 0 -29 33 -57 73 -230 329
-604 701 -910 905 -29 19 -53 38 -53 42 0 12 293 149 385 179 80 27 184 53
255 64 40 7 212 7 250 1z m-907 -356 c334 -225 690 -580 915 -910 l66 -98 -60
-87 c-220 -326 -591 -697 -916 -917 l-87 -59 -58 38 c-346 228 -714 593 -947
938 l-60 87 60 88 c159 235 449 551 675 735 145 118 320 239 336 233 7 -3 41
-24 76 -48z m-1161 -1160 c206 -309 617 -720 926 -926 28 -19 52 -38 52 -42 0
-14 -299 -151 -403 -185 -174 -57 -363 -80 -487 -59 l-35 6 0 76 c0 88 -16
130 -72 185 -55 56 -97 72 -185 72 l-76 0 -6 35 c-21 124 2 313 59 487 34 104
171 403 185 403 4 0 23 -24 42 -52z m2276 -95 c78 -161 132 -314 156 -443 16
-82 21 -251 10 -307 -6 -29 -6 -29 -70 -25 -80 5 -138 -15 -191 -67 -59 -57
-78 -103 -78 -193 l0 -76 -35 -6 c-124 -21 -313 2 -487 59 -104 34 -403 171
-403 185 0 4 24 23 53 42 306 204 680 576 910 905 28 40 54 73 57 73 4 0 39
-66 78 -147z m-2396 -889 c88 -45 110 -174 42 -248 -53 -56 -127 -70 -194 -36
-101 51 -119 179 -37 257 53 52 122 61 189 27z m2573 -10 c30 -19 65 -90 65
-130 0 -39 -38 -113 -71 -137 -85 -62 -221 -9 -248 97 -36 145 127 254 254
170z"/>
<path d="M1695 2409 c-237 -18 -428 -105 -484 -222 -20 -41 -21 -59 -21 -387
0 -328 1 -346 21 -387 40 -82 150 -152 304 -195 70 -19 104 -22 285 -22 181 0
215 3 285 22 154 43 264 113 304 195 20 41 21 59 21 388 0 390 -1 391 -80 463
-80 72 -247 131 -400 142 -41 2 -88 6 -105 7 -16 2 -75 0 -130 -4z m352 -118
c212 -52 313 -160 237 -250 -31 -37 -144 -94 -234 -118 -93 -26 -407 -26 -500
0 -90 24 -203 81 -234 118 -89 106 58 225 332 269 90 14 305 4 399 -19z m-589
-441 c245 -81 604 -59 800 51 l52 29 0 -85 c0 -84 0 -85 -37 -121 -43 -43
-129 -84 -233 -110 -58 -15 -111 -19 -240 -19 -129 0 -182 4 -240 19 -104 26
-190 67 -233 110 -37 36 -37 37 -37 121 l0 85 53 -29 c28 -16 80 -39 115 -51z
m-91 -267 c228 -120 638 -120 866 0 34 17 65 33 70 35 4 2 7 -33 7 -77 0 -76
-2 -82 -32 -116 -41 -47 -127 -90 -236 -117 -71 -18 -116 -22 -242 -22 -126 0
-171 4 -242 22 -109 27 -195 70 -236 117 -30 34 -32 40 -32 116 0 44 3 79 8
77 4 -2 35 -18 69 -35z"/>
</g>
</svg>
