<?xml version="1.0" standalone="no"?>
<!DOCTYPE svg PUBLIC "-//W3C//DTD SVG 20010904//EN"
 "http://www.w3.org/TR/2001/REC-SVG-20010904/DTD/svg10.dtd">
<svg version="1.0" xmlns="http://www.w3.org/2000/svg"
 width="225.000000pt" height="225.000000pt" viewBox="0 0 225.000000 225.000000"
 preserveAspectRatio="xMidYMid meet">

<g transform="translate(0.000000,225.000000) scale(0.100000,-0.100000)"
fill="#14213d" stroke="none">
<path d="M508 1832 c-56 -34 -58 -48 -58 -427 0 -295 2 -352 16 -380 31 -66
19 -65 659 -65 640 0 628 -1 659 65 23 48 24 710 1 759 -33 68 -8 66 -662 66
-536 -1 -590 -2 -615 -18z m1232 -427 l0 -315 -615 0 -615 0 0 315 0 315 615
0 615 0 0 -315z"/>
<path d="M660 1604 c-84 -96 -88 -103 -69 -115 10 -7 34 12 89 71 l75 80 90
-80 c142 -126 128 -121 181 -69 24 24 44 38 44 31 0 -7 9 -12 20 -12 17 0 20
7 20 50 l0 50 -44 0 c-50 0 -64 -11 -42 -33 13 -13 11 -18 -15 -43 -34 -33
-22 -39 -149 71 -51 44 -100 81 -109 82 -9 1 -47 -34 -91 -83z"/>
<path d="M1224 1665 c-4 -8 -4 -22 0 -30 5 -13 31 -15 173 -13 l168 3 0 25 0
25 -168 3 c-142 2 -168 0 -173 -13z"/>
<path d="M1224 1555 c-4 -8 -4 -22 0 -30 5 -13 31 -15 173 -13 l168 3 0 25 0
25 -168 3 c-142 2 -168 0 -173 -13z"/>
<path d="M725 1498 c-3 -8 -4 -95 -3 -193 l3 -180 25 0 25 0 0 190 c0 190 0
190 -23 193 -12 2 -24 -3 -27 -10z"/>
<path d="M841 1457 c-8 -10 -11 -62 -9 -173 l3 -159 28 -3 27 -3 -2 173 c-3
149 -5 173 -19 176 -9 1 -21 -4 -28 -11z"/>
<path d="M1065 1448 c-3 -13 -4 -90 -3 -173 l3 -150 28 -3 27 -3 -2 173 c-3
170 -3 173 -25 176 -16 2 -24 -3 -28 -20z"/>
<path d="M1224 1445 c-4 -8 -4 -22 0 -30 5 -13 31 -15 173 -13 l168 3 0 25 0
25 -168 3 c-142 2 -168 0 -173 -13z"/>
<path d="M616 1404 c-23 -23 -23 -255 0 -278 12 -12 20 -13 35 -6 17 10 19 23
19 145 0 122 -2 135 -19 145 -15 7 -23 6 -35 -6z"/>
<path d="M957 1303 c-4 -3 -7 -43 -7 -88 0 -88 10 -111 42 -94 15 8 18 22 18
87 0 76 -9 102 -35 102 -7 0 -15 -3 -18 -7z"/>
<path d="M1230 1210 l0 -101 98 3 97 3 3 98 3 97 -101 0 -100 0 0 -100z m176
76 c3 -9 -15 -43 -40 -79 -65 -91 -70 -94 -95 -58 -12 16 -21 36 -21 45 0 19
21 21 38 4 9 -9 15 -9 20 -2 73 107 87 119 98 90z"/>
<path d="M1472 1213 l3 -98 98 -3 97 -3 0 101 0 100 -100 0 -101 0 3 -97z
m174 73 c6 -16 -82 -152 -104 -161 -13 -5 -52 50 -52 73 0 14 26 16 35 2 11
-18 21 -11 60 45 39 57 52 65 61 41z"/>
<path d="M910 790 l0 -120 215 0 215 0 0 120 0 120 -215 0 -215 0 0 -120z"/>
<path d="M849 591 c-16 -16 -29 -34 -29 -40 0 -8 94 -11 305 -11 211 0 305 3
305 11 0 6 -13 24 -29 40 l-29 29 -247 0 -247 0 -29 -29z"/>
</g>
</svg>
