<?xml version="1.0" standalone="no"?>
<!DOCTYPE svg PUBLIC "-//W3C//DTD SVG 20010904//EN"
 "http://www.w3.org/TR/2001/REC-SVG-20010904/DTD/svg10.dtd">
<svg version="1.0" xmlns="http://www.w3.org/2000/svg"
 width="225.000000pt" height="225.000000pt" viewBox="0 0 225.000000 225.000000"
 preserveAspectRatio="xMidYMid meet">

<g transform="translate(0.000000,225.000000) scale(0.100000,-0.100000)"
fill="#14213d" stroke="none">
<path d="M1644 2050 c-36 -14 -54 -50 -54 -107 l0 -53 -35 0 c-34 0 -35 -1
-35 -40 0 -39 1 -40 35 -40 l35 0 0 -95 0 -95 40 0 40 0 0 95 0 95 29 0 c30 0
41 14 41 56 0 21 -5 24 -35 24 -34 0 -35 1 -35 40 0 42 18 60 59 60 31 0 30
55 -1 64 -31 8 -58 7 -84 -4z"/>
<path d="M1180 1947 c-38 -19 -50 -54 -50 -144 0 -137 25 -163 160 -163 134 0
160 26 160 161 0 90 -14 129 -55 147 -34 16 -183 15 -215 -1z m220 -37 c17
-17 20 -33 20 -110 0 -121 -9 -130 -132 -130 -120 0 -128 8 -128 130 0 122 8
130 130 130 77 0 93 -3 110 -20z"/>
<path d="M1190 1885 c0 -8 7 -15 15 -15 8 0 15 7 15 15 0 8 -7 15 -15 15 -8 0
-15 -7 -15 -15z"/>
<path d="M1250 1867 c-33 -17 -47 -57 -31 -95 32 -78 141 -56 141 29 0 29 -6
42 -26 58 -31 24 -49 26 -84 8z m74 -33 c21 -20 20 -43 -1 -66 -18 -21 -53
-24 -71 -6 -15 15 -15 61 0 76 17 17 54 15 72 -4z"/>
<path d="M946 1718 c-20 -24 -122 -158 -228 -298 l-193 -255 -95 -62 c-166
-109 -217 -188 -208 -322 6 -77 32 -134 85 -187 57 -57 114 -79 208 -79 73 0
85 3 145 36 l65 36 100 -156 c119 -184 145 -216 191 -231 98 -33 200 59 180
162 -4 18 -51 101 -105 183 -55 83 -96 153 -92 156 3 3 128 34 276 68 149 35
280 69 293 77 39 25 29 66 -44 180 l-66 103 25 33 c73 98 61 234 -28 321 -55
53 -110 71 -196 64 l-70 -6 -56 87 c-72 112 -90 132 -124 132 -21 0 -37 -11
-63 -42z m329 -409 c143 -221 260 -406 260 -412 0 -9 -104 -43 -110 -35 -18
25 -485 750 -485 753 0 8 64 94 70 94 3 1 122 -180 265 -400z m-137 -104 c139
-214 226 -358 219 -360 -25 -9 -488 -115 -500 -115 -19 0 -280 407 -271 422
21 36 308 408 314 408 4 0 111 -160 238 -355z m236 270 c82 -39 124 -145 92
-230 -31 -80 -34 -78 -141 86 -106 164 -107 174 -30 166 23 -2 58 -12 79 -22z
m-710 -568 c69 -107 126 -197 126 -201 0 -17 -183 -125 -230 -135 -130 -28
-251 52 -281 184 -14 64 -2 128 36 184 22 31 195 161 216 161 4 0 63 -87 133
-193z m380 -391 c105 -164 116 -198 74 -243 -24 -26 -82 -31 -109 -10 -12 9
-175 251 -232 344 -18 29 134 95 159 69 7 -6 55 -78 108 -160z"/>
<path d="M1815 1657 c-82 -32 -128 -97 -128 -181 0 -29 5 -61 11 -72 8 -16 7
-34 -3 -73 l-14 -52 32 8 c37 9 73 8 138 -2 58 -9 109 7 156 48 44 38 63 82
63 141 0 56 -14 93 -48 130 -54 58 -139 79 -207 53z m134 -42 c41 -21 79 -70
87 -111 20 -108 -88 -210 -193 -182 -21 6 -54 10 -73 10 -35 -1 -36 0 -37 36
0 20 -4 60 -8 88 -9 64 12 115 64 150 42 28 115 33 160 9z"/>
<path d="M1790 1540 c-37 -70 121 -194 171 -134 11 14 10 18 -6 30 -22 17 -32
17 -40 4 -11 -17 -35 -11 -61 15 -18 18 -23 31 -18 50 6 24 -9 55 -27 55 -5 0
-13 -9 -19 -20z"/>
<path d="M1856 1159 c-14 -17 -26 -39 -26 -50 0 -12 -7 -19 -17 -19 -28 1
-106 39 -135 67 l-27 26 -7 -27 c-4 -17 -1 -38 7 -54 7 -15 15 -30 17 -35 2
-4 -3 -4 -12 -1 -9 3 -16 3 -16 0 0 -18 31 -64 47 -70 14 -6 15 -9 3 -16 -12
-7 -12 -11 0 -25 8 -10 26 -22 40 -27 l25 -10 -30 -14 c-16 -7 -46 -14 -65
-14 l-35 -2 40 -19 c62 -29 150 -26 216 9 67 35 105 88 120 167 7 33 21 71 33
84 l21 23 -23 -7 c-23 -7 -24 -7 -6 19 l17 27 -25 -12 c-19 -8 -31 -8 -46 0
-40 22 -88 14 -116 -20z"/>
</g>
</svg>
