<?xml version="1.0" standalone="no"?>
<!DOCTYPE svg PUBLIC "-//W3C//DTD SVG 20010904//EN"
 "http://www.w3.org/TR/2001/REC-SVG-20010904/DTD/svg10.dtd">
<svg version="1.0" xmlns="http://www.w3.org/2000/svg"
 width="1564.000000pt" height="980.000000pt" viewBox="0 0 1564.000000 980.000000"
 preserveAspectRatio="xMidYMid meet">

<g transform="translate(0.000000,980.000000) scale(0.100000,-0.100000)"
fill="#00A8E8" stroke="none">
<path d="M7897 8853 l-38 -4 5 -92 c3 -51 6 -95 6 -99 0 -5 16 -8 35 -8 l35 0
0 105 c0 58 -1 104 -2 103 -2 -1 -20 -3 -41 -5z"/>
<path d="M7700 8766 c0 -107 4 -116 46 -116 l34 0 0 100 0 100 -40 0 -40 0 0
-84z"/>
<path d="M8030 8750 l0 -100 34 0 c33 0 33 1 40 53 3 28 6 74 6 101 0 46 -1
48 -14 30 -14 -18 -15 -18 -21 -1 -4 9 -16 17 -26 17 -17 0 -19 -9 -19 -100z
m40 49 c0 -5 -4 -9 -10 -9 -5 0 -10 7 -10 16 0 8 5 12 10 9 6 -3 10 -10 10
-16z"/>
<path d="M7535 8768 c11 -125 12 -128 51 -128 34 0 34 0 34 48 0 26 -3 71 -6
100 l-7 52 -39 0 -40 0 7 -72z"/>
<path d="M8196 8788 c-3 -29 -6 -74 -6 -100 0 -48 0 -48 34 -48 38 0 37 -2 52
138 l6 62 -40 0 -39 0 -7 -52z"/>
<path d="M7387 8823 c-25 -4 -27 -7 -22 -36 3 -18 9 -61 15 -96 5 -35 11 -65
13 -67 2 -2 19 -1 37 2 l32 7 -6 76 c-9 95 -15 121 -30 120 -6 -1 -24 -4 -39
-6z"/>
<path d="M8365 8808 c-7 -24 -22 -173 -18 -180 2 -5 20 -8 39 -8 19 0 34 3 34
8 0 4 6 46 14 94 7 49 10 90 8 93 -11 10 -73 4 -77 -7z"/>
<path d="M7205 8789 c-4 -6 1 -51 10 -100 18 -93 21 -96 71 -83 20 5 20 7 5
100 l-15 94 -32 0 c-18 0 -36 -5 -39 -11z"/>
<path d="M8517 8704 c-9 -54 -15 -99 -14 -100 1 -1 18 -4 37 -6 l35 -3 19 93
c11 51 17 94 15 96 -2 2 -20 7 -40 11 l-36 7 -16 -98z"/>
<path d="M7095 8775 c-5 -2 -22 -6 -36 -9 l-25 -5 19 -96 c19 -90 22 -95 46
-95 51 0 53 8 32 109 -21 100 -21 100 -36 96z"/>
<path d="M8691 8733 c-18 -73 -33 -155 -28 -160 3 -3 20 -6 38 -6 31 -2 32 -2
50 73 24 99 24 120 0 120 -11 0 -26 3 -35 6 -11 4 -17 -5 -25 -33z"/>
<path d="M6902 8729 c-24 -7 -32 -14 -28 -27 3 -9 14 -50 25 -91 11 -41 23
-76 25 -78 9 -9 66 9 66 20 0 24 -43 187 -49 186 -3 0 -21 -5 -39 -10z"/>
<path d="M8854 8703 c-3 -16 -14 -58 -24 -95 -10 -37 -15 -70 -12 -72 4 -2 22
-7 40 -11 33 -7 37 -1 33 48 -1 9 5 25 14 34 11 10 14 24 11 39 -4 13 -2 24 3
24 5 0 11 9 14 19 4 15 -2 22 -26 30 -43 15 -46 14 -53 -16z m50 -6 c12 -19 3
-32 -19 -24 -17 7 -21 51 -3 45 6 -2 16 -12 22 -21z"/>
<path d="M6750 8675 c0 -7 -7 -18 -16 -23 -14 -8 -13 -16 7 -83 12 -41 24 -77
26 -81 3 -6 60 8 71 18 2 1 -9 43 -24 93 -21 72 -31 91 -46 91 -10 0 -18 -7
-18 -15z"/>
<path d="M9020 8670 c0 -5 4 -10 9 -10 6 0 13 5 16 10 3 6 -1 10 -9 10 -9 0
-16 -4 -16 -10z"/>
<path d="M9060 8640 c-8 -5 -12 -12 -9 -15 8 -8 39 5 39 16 0 11 -11 11 -30
-1z"/>
<path d="M6577 8628 c-21 -7 -27 -15 -22 -27 4 -9 15 -38 25 -66 40 -111 35
-106 72 -93 18 6 34 12 35 13 8 5 -61 185 -70 184 -7 0 -25 -5 -40 -11z"/>
<path d="M8986 8564 c-9 -37 -15 -68 -13 -71 2 -2 18 -8 35 -12 30 -9 31 -9
48 41 14 45 15 53 2 62 -8 6 -17 19 -21 29 -14 37 -35 17 -51 -49z"/>
<path d="M9151 8544 c-17 -47 -31 -89 -31 -94 0 -9 61 -33 68 -26 2 3 14 33
27 68 16 45 20 70 14 87 -7 19 -6 22 6 18 8 -4 17 -2 20 3 3 5 -7 12 -22 16
-15 3 -33 7 -40 9 -7 2 -24 -31 -42 -81z"/>
<path d="M6433 8575 c-18 -8 -33 -18 -33 -23 0 -11 67 -177 72 -176 36 7 67
25 62 38 -3 8 -12 12 -20 9 -8 -3 -14 1 -14 10 0 8 5 17 10 19 8 2 -29 121
-42 134 -2 1 -18 -4 -35 -11z m65 -94 c3 -8 -1 -12 -9 -9 -7 2 -15 10 -17 17
-3 8 1 12 9 9 7 -2 15 -10 17 -17z"/>
<path d="M7710 8559 c-320 -13 -624 -69 -955 -176 -437 -141 -897 -399 -1233
-692 l-63 -55 33 -10 c31 -10 49 -44 20 -38 -8 1 -33 5 -55 8 l-42 6 -110
-114 c-448 -459 -731 -941 -911 -1547 l-34 -114 25 -33 c29 -38 14 -62 -16
-26 -17 21 -17 20 -33 -51 -40 -171 -86 -518 -86 -639 0 -38 0 -39 22 -24 32
22 37 20 54 -19 21 -51 18 -58 -31 -80 l-45 -19 0 -73 0 -72 38 14 c20 7 82
31 137 53 212 84 341 135 665 262 184 72 400 157 479 188 103 41 146 62 151
77 4 11 20 65 34 119 146 542 511 1027 987 1314 724 434 1615 424 2331 -27 53
-34 101 -61 108 -61 9 0 396 150 915 355 61 24 162 64 225 88 254 99 305 120
313 127 13 12 -260 288 -403 407 -153 128 -255 203 -419 306 -225 140 -651
341 -651 306 0 -16 -18 -10 -22 9 -4 13 -45 30 -154 65 -426 134 -815 185
-1274 166z m-621 -165 c-6 -8 -18 -14 -25 -14 -20 0 -17 28 4 33 25 5 35 -3
21 -19z m1801 -64 c0 -5 -4 -10 -10 -10 -5 0 -10 5 -10 10 0 6 5 10 10 10 6 0
10 -4 10 -10z m-285 -15 c0 -6 -16 -11 -36 -13 -28 -2 -38 -8 -43 -25 -5 -20
-7 -21 -22 -5 -16 16 -11 43 7 33 5 -4 16 0 24 9 16 16 70 17 70 1z m469 -3
c7 -12 -31 -29 -77 -36 -27 -3 -37 -1 -34 7 2 7 19 13 38 15 19 2 38 8 44 13
11 11 22 12 29 1z m-2448 -146 c8 -20 -15 -59 -30 -53 -8 3 -36 -5 -63 -18
-29 -14 -58 -22 -71 -18 -30 7 -28 23 3 23 31 0 121 46 129 66 7 18 25 18 32
0z m444 -22 c0 -8 -4 -12 -10 -9 -5 3 -10 13 -10 21 0 8 5 12 10 9 6 -3 10
-13 10 -21z m965 20 c16 -4 31 -39 69 -155 27 -83 53 -152 56 -154 4 -3 10 53
14 123 10 180 7 172 75 172 31 0 66 -3 79 -6 21 -6 23 -11 17 -58 -6 -53 -20
-261 -32 -448 -3 -59 -9 -112 -13 -118 -5 -9 -28 -10 -78 -5 l-71 7 -52 156
c-61 180 -62 179 -75 -32 l-7 -118 -76 7 c-42 4 -78 9 -80 11 -5 4 24 455 36
567 l6 57 56 0 c31 0 65 -3 76 -6z m-351 -26 c3 -13 7 -39 10 -60 5 -41 6 -40
-120 -54 -34 -3 -66 -9 -72 -13 -9 -5 0 -106 10 -117 2 -1 39 2 82 8 43 6 81
6 86 2 4 -5 10 -32 14 -61 7 -60 10 -58 -96 -69 -66 -6 -68 -7 -68 -34 0 -17
7 -30 17 -34 12 -5 14 -9 5 -18 -7 -7 -12 -21 -12 -31 0 -17 5 -19 43 -14 23
3 72 9 109 13 l66 7 4 -59 c2 -33 2 -62 -1 -65 -3 -3 -77 -14 -163 -24 -158
-18 -178 -26 -144 -54 10 -9 25 -10 48 -4 18 5 49 8 68 7 19 -1 41 -3 48 -3 6
-1 12 -10 12 -21 0 -12 7 -35 16 -52 15 -30 15 -32 -2 -45 -24 -18 -31 -17
-44 8 -10 17 -17 19 -54 14 -26 -4 -46 -3 -50 3 -3 6 -14 8 -24 5 -11 -2 -42
0 -70 5 -50 9 -50 9 -42 -14 14 -37 -7 -38 -26 -2 -9 18 -25 39 -35 46 -11 7
-19 19 -19 27 0 25 -16 25 -96 0 -43 -14 -82 -25 -86 -25 -4 0 -14 24 -22 53
-135 472 -155 551 -145 558 22 13 139 41 152 36 7 -3 19 -30 26 -60 9 -42 17
-56 34 -61 19 -6 20 -7 6 -16 -15 -9 -15 -15 -5 -52 7 -23 17 -43 23 -45 6 -2
8 -15 5 -30 -3 -17 1 -29 12 -35 10 -6 16 -19 14 -31 -1 -12 5 -33 15 -47 9
-13 17 -32 17 -42 0 -10 17 -51 37 -92 39 -78 70 -105 111 -92 25 8 37 36 17
36 -8 0 -15 3 -15 8 -1 4 -18 142 -39 307 -21 165 -36 303 -32 307 7 8 265 45
328 47 37 1 43 -2 47 -21z m1104 -98 c56 -16 107 -30 114 -30 20 0 59 -64 60
-98 1 -45 -33 -164 -47 -159 -6 3 -40 13 -76 22 -35 10 -68 21 -72 25 -5 4 -2
31 7 59 14 48 14 51 -4 61 -49 26 -53 20 -109 -172 -50 -173 -51 -183 -34
-196 33 -24 55 -11 70 41 10 34 19 47 32 47 25 0 151 -39 151 -47 0 -3 -9 -36
-20 -73 -37 -125 -84 -140 -258 -87 -66 20 -124 44 -138 58 -42 39 -40 71 16
270 69 249 76 267 114 290 42 26 77 24 194 -11z m-2050 -158 c34 -37 112 -211
112 -250 0 -16 -8 -40 -18 -52 -18 -23 -18 -23 17 -55 20 -17 64 -53 99 -79
34 -26 62 -49 62 -50 0 -7 -152 -76 -166 -76 -8 0 -52 34 -98 75 -46 41 -87
75 -89 75 -3 0 14 -43 39 -95 24 -52 44 -98 44 -103 0 -12 -149 -76 -158 -68
-3 4 -30 58 -59 119 l-51 112 -38 0 c-21 0 -39 5 -41 13 -3 7 5 12 21 12 13 0
28 4 31 10 3 5 -8 40 -26 77 -83 177 -99 216 -94 222 4 3 70 36 148 73 169 80
220 88 265 40z m2660 17 c-2 -6 -8 -10 -13 -10 -5 0 -11 4 -13 10 -2 6 4 11
13 11 9 0 15 -5 13 -11z m-27 -90 c87 -44 159 -84 159 -89 0 -21 -45 -100 -57
-100 -7 0 -49 18 -93 40 -44 22 -82 40 -85 40 -6 0 -58 -101 -53 -105 2 -1 36
-19 76 -40 39 -21 72 -41 72 -44 0 -4 -11 -31 -25 -59 l-25 -52 -80 40 -80 40
-25 -50 c-14 -27 -25 -53 -25 -58 0 -5 37 -28 83 -52 45 -23 85 -46 90 -49 6
-6 -33 -93 -48 -109 -4 -5 -345 167 -345 174 0 4 51 106 114 228 62 121 125
245 140 274 14 28 31 52 37 52 6 0 82 -36 170 -81z m149 31 c8 -5 12 -12 9
-15 -8 -8 -39 5 -39 16 0 11 11 11 30 -1z m-2620 -10 c0 -5 -7 -10 -15 -10 -8
0 -15 5 -15 10 0 6 7 10 15 10 8 0 15 -4 15 -10z m2663 -10 c3 -11 1 -23 -4
-26 -5 -3 -9 6 -9 20 0 31 6 34 13 6z m-1785 -51 c-2 -6 -8 -10 -13 -10 -5 0
-11 4 -13 10 -2 6 4 11 13 11 9 0 15 -5 13 -11z m-183 -59 c7 -21 0 -40 -16
-40 -14 0 -11 30 4 31 10 0 10 2 0 6 -15 5 -17 23 -4 23 5 0 12 -9 16 -20z
m2190 -40 c-6 -9 -9 -9 -16 1 -10 17 0 34 13 21 6 -6 7 -16 3 -22z m-3634 -43
c9 -12 23 -34 33 -49 l17 -26 -80 -62 -81 -61 22 -32 c50 -72 43 -71 117 -16
37 27 70 49 73 49 9 0 68 -82 68 -94 0 -6 -29 -33 -65 -59 -72 -53 -71 -52
-17 -116 l28 -34 75 54 c41 30 79 58 86 62 7 4 25 -12 46 -42 l35 -49 -21 -20
c-12 -10 -58 -45 -102 -77 -44 -32 -104 -76 -133 -98 -30 -23 -56 -36 -61 -31
-10 11 -215 288 -299 405 -34 47 -62 90 -62 96 0 5 24 27 54 48 38 28 52 44
48 57 -5 19 12 25 23 8 3 -6 40 16 83 49 42 33 82 60 87 60 6 0 17 -10 26 -22z
m-579 -42 c0 -5 -5 -11 -11 -13 -6 -2 -11 4 -11 13 0 9 5 15 11 13 6 -2 11 -8
11 -13z m306 -17 c18 -18 15 -28 -8 -28 -13 0 -20 7 -20 20 0 23 10 26 28 8z
m-53 -8 c3 -5 1 -10 -4 -10 -6 0 -11 5 -11 10 0 6 2 10 4 10 3 0 8 -4 11 -10z
m4315 -61 c0 -5 -7 -9 -15 -9 -15 0 -20 12 -9 23 8 8 24 -1 24 -14z m-590 -74
c0 -8 -4 -15 -10 -15 -5 0 -10 7 -10 15 0 8 5 15 10 15 6 0 10 -7 10 -15z
m-353 -41 c-9 -9 -28 6 -21 18 4 6 10 6 17 -1 6 -6 8 -13 4 -17z m383 16 c0
-5 -5 -10 -11 -10 -5 0 -7 5 -4 10 3 6 8 10 11 10 2 0 4 -4 4 -10z m-42 -12
c-7 -19 -38 -22 -38 -4 0 10 9 16 21 16 12 0 19 -5 17 -12z m-3088 -59 c0 -11
-4 -17 -10 -14 -5 3 -10 15 -10 26 0 11 5 17 10 14 6 -3 10 -15 10 -26z m770
-25 c0 -8 -4 -12 -10 -9 -5 3 -10 10 -10 16 0 5 5 9 10 9 6 0 10 -7 10 -16z
m189 -3 c6 -10 8 -21 4 -24 -9 -10 -43 12 -43 28 0 21 27 18 39 -4z m225 -60
c-7 -7 -34 28 -34 43 1 6 10 0 21 -13 11 -13 17 -27 13 -30z m274 38 c-2 -6
-8 -10 -13 -10 -5 0 -11 4 -13 10 -2 6 4 11 13 11 9 0 15 -5 13 -11z m151 -43
c8 -10 8 -16 -3 -25 -11 -9 -13 -7 -13 14 0 29 1 30 16 11z m-2341 -10 c15 -8
36 -23 46 -35 11 -12 25 -21 33 -21 7 0 13 -4 13 -9 0 -5 23 -31 50 -58 86
-82 84 -135 -7 -234 l-57 -61 72 -70 c40 -39 71 -74 70 -78 -6 -15 -107 -120
-115 -120 -5 0 -44 35 -89 78 -44 42 -129 122 -189 177 -60 55 -127 116 -147
135 l-37 35 107 118 c59 65 121 126 137 137 35 23 75 25 113 6z m4302 -37 c0
-5 -7 -9 -15 -9 -15 0 -20 12 -9 23 8 8 24 -1 24 -14z m-237 -13 c28 -22 21
-36 -15 -29 -34 6 -51 21 -42 35 8 12 37 9 57 -6z m205 -14 c2 -7 -3 -12 -12
-12 -9 0 -16 7 -16 16 0 17 22 14 28 -4z m-148 -33 c0 -5 -7 -9 -15 -9 -9 0
-15 9 -15 21 0 18 2 19 15 9 8 -7 15 -16 15 -21z m-804 -14 l23 -25 -23 0
c-29 0 -61 24 -52 38 11 18 27 14 52 -13z m64 -30 c0 -8 -4 -15 -10 -15 -5 0
-10 7 -10 15 0 8 5 15 10 15 6 0 10 -7 10 -15z m70 -56 c0 -5 -7 -9 -15 -9 -9
0 -15 9 -15 21 0 18 2 19 15 9 8 -7 15 -16 15 -21z m-2105 0 c-8 -12 -35 -12
-35 0 0 11 22 20 33 14 4 -2 5 -9 2 -14z m-45 -18 c0 -5 -24 -23 -52 -39 -55
-31 -128 -50 -128 -34 0 16 27 33 42 27 7 -3 38 8 68 25 59 32 70 35 70 21z
m-970 -51 c0 -5 -4 -10 -10 -10 -5 0 -10 5 -10 10 0 6 5 10 10 10 6 0 10 -4
10 -10z m651 -25 c-1 -15 -24 -12 -29 3 -3 9 2 13 12 10 10 -1 17 -7 17 -13z
m-841 -140 c0 -8 -4 -15 -9 -15 -13 0 -22 16 -14 24 11 11 23 6 23 -9z m-552
-123 c40 -59 83 -121 96 -137 l23 -28 174 -11 c106 -7 173 -15 171 -21 -1 -5
-22 -44 -47 -86 l-44 -77 -81 15 c-45 9 -83 13 -87 10 -3 -3 18 -34 46 -69 28
-34 51 -65 51 -68 0 -3 -21 -41 -46 -84 l-46 -78 -99 149 -100 150 -142 12
c-78 7 -154 14 -169 17 -28 6 -28 6 -11 37 9 18 31 55 49 84 l33 51 58 -13
c32 -8 67 -14 77 -15 17 0 18 2 5 13 -8 6 -32 33 -52 59 l-37 47 46 75 c25 42
49 76 52 76 4 0 40 -49 80 -108z m662 -62 c0 -5 -4 -10 -10 -10 -5 0 -10 5
-10 10 0 6 5 10 10 10 6 0 10 -4 10 -10z m-1310 -259 c0 -6 -4 -13 -10 -16 -5
-3 -10 1 -10 9 0 9 5 16 10 16 6 0 10 -4 10 -9z m622 -76 c0 -5 -5 -11 -11
-13 -6 -2 -11 4 -11 13 0 9 5 15 11 13 6 -2 11 -8 11 -13z m-262 -121 c0 -2
-13 -40 -30 -86 -16 -45 -30 -87 -30 -94 0 -14 45 -34 84 -37 26 -2 30 3 56
73 31 83 31 83 107 50 l42 -18 -30 -77 c-17 -43 -27 -81 -22 -85 18 -15 105
-42 112 -34 4 5 23 50 40 101 l33 91 59 -20 c53 -18 59 -23 53 -42 -16 -55
-117 -332 -124 -339 -6 -7 -165 46 -415 138 -49 18 -109 39 -132 46 -24 7 -43
18 -43 25 0 7 27 89 61 182 l61 170 59 -20 c32 -11 59 -22 59 -24z m740 -460
c0 -9 -5 -14 -12 -12 -18 6 -21 28 -4 28 9 0 16 -7 16 -16z m-20 -65 c0 -5 -4
-9 -10 -9 -5 0 -10 7 -10 16 0 8 5 12 10 9 6 -3 10 -10 10 -16z m-330 -9 c0
-5 -2 -10 -4 -10 -3 0 -8 5 -11 10 -3 6 -1 10 4 10 6 0 11 -4 11 -10z m150
-99 c0 -15 -28 -33 -40 -26 -8 5 -8 11 1 21 13 15 39 19 39 5z m-60 -36 c0 -8
-7 -15 -15 -15 -16 0 -20 12 -8 23 11 12 23 8 23 -8z m-20 -35 c0 -5 -4 -10
-10 -10 -5 0 -10 5 -10 10 0 6 5 10 10 10 6 0 10 -4 10 -10z m-128 -65 c0 -5
-5 -11 -11 -13 -6 -2 -11 4 -11 13 0 9 5 15 11 13 6 -2 11 -8 11 -13z m-1022
-93 c0 -13 -12 -22 -22 -16 -10 6 -1 24 13 24 5 0 9 -4 9 -8z m500 -181 c0
-10 -30 -24 -37 -17 -3 3 -2 9 2 15 8 13 35 15 35 2z m-170 -31 c0 -12 -28
-25 -36 -17 -9 9 6 27 22 27 8 0 14 -5 14 -10z m105 -20 c3 -5 -1 -10 -9 -10
-9 0 -16 5 -16 10 0 6 4 10 9 10 6 0 13 -4 16 -10z m-162 -14 c8 -19 -1 -26
-35 -26 -32 0 -35 7 -10 26 22 17 39 17 45 0z m-218 -36 c3 -5 17 -10 30 -10
39 0 38 -18 -1 -26 -36 -7 -53 4 -54 34 0 14 16 16 25 2z m113 -22 c-6 -18
-28 -21 -28 -4 0 9 7 16 16 16 9 0 14 -5 12 -12z"/>
<path d="M6564 7742 l-32 -17 34 -73 33 -73 30 15 c16 9 32 20 36 25 7 12 -50
141 -62 141 -4 -1 -22 -9 -39 -18z"/>
<path d="M5600 7035 l-24 -25 35 -36 c19 -20 47 -45 62 -56 l28 -20 25 23 c13
12 24 28 24 34 0 12 -103 105 -118 105 -4 0 -19 -11 -32 -25z"/>
<path d="M9326 8542 c-13 -26 -13 -31 1 -44 14 -14 13 -18 -6 -37 -12 -12 -25
-21 -31 -21 -5 0 -10 -4 -10 -9 0 -5 -3 -16 -6 -25 -4 -10 5 -20 27 -31 39
-21 52 -8 45 43 -4 26 -2 33 9 28 10 -3 21 10 35 41 25 57 25 57 -5 71 -37 17
-43 15 -59 -16z"/>
<path d="M6268 8505 l-27 -15 40 -87 c22 -48 42 -89 44 -91 4 -4 65 27 65 33
0 12 -24 55 -32 55 -4 0 -8 9 -8 20 0 30 -31 100 -44 100 -6 -1 -23 -7 -38
-15z"/>
<path d="M9452 8419 l-41 -90 34 -16 c19 -9 37 -15 39 -12 14 16 76 164 72
174 -2 7 -18 17 -34 23 l-29 10 -41 -89z"/>
<path d="M6118 8434 l-28 -15 45 -89 45 -89 32 14 c18 7 33 17 32 22 -1 22
-79 173 -88 173 -6 -1 -23 -8 -38 -16z"/>
<path d="M9617 8384 c-15 -31 -23 -53 -17 -49 5 3 10 -1 10 -9 0 -9 -4 -16 -9
-16 -5 0 -14 -13 -19 -30 -9 -25 -8 -31 8 -40 10 -5 22 -10 27 -10 8 0 73 110
73 124 0 4 -13 0 -30 -9 -26 -14 -30 -14 -30 -1 0 8 16 23 35 32 42 20 44 29
7 48 l-28 15 -27 -55z"/>
<path d="M5968 8355 l-27 -15 46 -83 c25 -45 48 -84 50 -86 2 -3 19 3 38 12
l34 16 -44 83 c-24 46 -50 84 -57 85 -7 1 -25 -4 -40 -12z"/>
<path d="M9746 8276 c-25 -46 -46 -87 -46 -90 0 -7 61 -39 65 -34 2 2 14 24
28 50 14 26 34 60 46 76 28 40 27 46 -13 65 l-35 16 -45 -83z"/>
<path d="M5836 8275 c-10 -8 -24 -16 -29 -18 -10 -3 75 -151 94 -162 5 -3 22
1 39 10 29 15 30 18 18 38 -8 12 -31 50 -52 85 -21 34 -40 62 -44 62 -4 0 -16
-7 -26 -15z"/>
<path d="M9885 8188 l-48 -81 22 -19 c13 -10 29 -18 35 -18 7 0 29 28 49 63
21 34 43 70 50 80 10 15 8 21 -13 37 -14 11 -30 20 -36 20 -6 0 -33 -37 -59
-82z"/>
<path d="M5685 8178 l-26 -23 50 -69 c28 -39 52 -75 54 -80 6 -15 62 20 61 37
-2 18 -94 157 -104 157 -5 0 -21 -10 -35 -22z m83 -90 c-6 -18 -28 -21 -28 -4
0 9 7 16 16 16 9 0 14 -5 12 -12z"/>
<path d="M10019 8099 c-55 -85 -55 -82 -5 -110 11 -7 21 -7 25 -2 3 6 28 42
56 82 l50 72 -25 20 c-14 10 -30 19 -36 19 -6 0 -35 -36 -65 -81z"/>
<path d="M5556 8089 c-14 -11 -26 -25 -26 -30 0 -5 26 -42 57 -83 l56 -75 29
20 c15 11 28 23 28 26 0 6 -111 163 -115 163 -1 0 -14 -9 -29 -21z"/>
<path d="M10156 8009 l-57 -80 23 -19 c13 -11 28 -19 33 -20 6 0 36 34 68 76
54 71 57 77 40 90 -46 37 -47 36 -107 -47z"/>
<path d="M5416 7979 l-26 -21 29 -36 c96 -119 96 -118 125 -99 14 10 26 22 26
28 0 13 -108 149 -119 149 -5 0 -20 -9 -35 -21z"/>
<path d="M10286 7911 c-31 -39 -56 -75 -56 -80 0 -6 12 -18 26 -28 l27 -17 44
49 c24 28 53 62 63 77 l20 26 -26 21 c-15 12 -30 21 -34 21 -4 0 -33 -31 -64
-69z"/>
<path d="M5291 7876 c-27 -29 -25 -34 48 -111 53 -56 56 -57 80 -44 15 8 26
20 26 26 0 14 -113 153 -124 153 -4 0 -18 -11 -30 -24z"/>
<path d="M10415 7809 c-33 -38 -61 -73 -63 -77 -1 -4 9 -19 23 -32 l25 -23 57
63 c73 79 78 87 62 106 -31 38 -42 34 -104 -37z"/>
<path d="M5172 7767 c-12 -13 -22 -28 -22 -33 0 -5 29 -39 65 -74 68 -68 82
-71 109 -27 9 14 -1 29 -59 87 l-71 71 -22 -24z"/>
<path d="M10513 7678 c-24 -24 -43 -48 -43 -54 0 -6 10 -20 23 -32 l23 -22 59
61 c48 49 55 60 36 56 -16 -4 -29 0 -40 14 -16 20 -17 19 -58 -23z"/>
<path d="M5052 7647 c-12 -13 -22 -27 -22 -31 0 -16 34 -41 59 -42 37 -3 37
-3 21 -14 -12 -8 -9 -16 22 -47 l38 -38 27 28 28 27 -70 70 c-38 38 -72 70
-75 70 -4 0 -16 -10 -28 -23z"/>
<path d="M10640 7575 l-64 -65 26 -27 27 -27 63 59 c35 32 67 62 72 67 11 9
-31 58 -49 58 -6 0 -40 -29 -75 -65z"/>
<path d="M11505 7559 c-63 -9 -46 -3 -627 -231 -357 -140 -485 -194 -481 -204
3 -8 1 -14 -5 -14 -6 0 -12 5 -14 10 -2 6 -176 -57 -388 -140 -212 -83 -452
-177 -535 -210 -131 -51 -366 -143 -750 -295 -60 -24 -198 -78 -305 -120 -266
-104 -497 -195 -805 -316 -143 -56 -314 -123 -380 -149 -66 -26 -266 -105
-445 -175 -179 -70 -360 -141 -402 -158 -47 -18 -78 -36 -78 -44 0 -10 -6 -12
-20 -8 -13 4 -68 -12 -153 -45 -72 -29 -204 -81 -292 -115 -484 -190 -678
-267 -940 -370 -159 -63 -377 -148 -484 -190 -107 -42 -204 -82 -215 -88 -12
-7 -25 -12 -31 -12 -11 -1 -50 -16 -290 -110 -93 -37 -244 -96 -335 -131 -91
-36 -189 -81 -218 -101 -58 -40 -100 -89 -80 -95 6 -2 13 -22 14 -44 3 -37 2
-38 -12 -19 -9 11 -19 27 -24 35 -8 13 -11 12 -24 -5 -25 -33 -56 -123 -68
-199 -16 -107 2 -176 152 -556 72 -184 179 -456 237 -605 141 -362 162 -404
236 -479 95 -95 198 -137 335 -137 86 0 107 5 238 57 81 32 91 39 82 54 -8 13
-7 23 5 41 10 13 17 31 17 40 0 9 6 22 13 28 11 8 17 5 26 -13 11 -20 10 -29
-14 -66 -15 -24 -21 -41 -14 -38 8 3 86 34 174 68 88 34 246 96 350 136 105
41 200 79 213 84 l23 10 -20 27 c-12 14 -19 29 -15 32 3 3 16 -7 29 -23 l24
-30 173 69 c95 37 292 115 438 172 146 57 344 135 440 173 96 37 336 132 533
209 197 78 362 141 368 141 5 0 9 3 9 8 0 4 5 35 10 69 6 38 7 71 1 85 -7 19
-5 27 9 35 18 12 21 22 45 133 32 152 57 239 75 255 18 16 19 16 26 -10 4 -18
0 -45 -14 -79 -12 -28 -24 -71 -27 -96 -4 -25 -13 -76 -22 -115 -8 -38 -16
-83 -18 -100 -8 -68 -18 -95 -37 -100 -14 -5 -17 -12 -12 -28 9 -32 10 -32 51
-14 21 8 151 59 288 113 138 53 304 118 370 144 296 116 639 250 855 335 230
90 235 93 233 120 -3 36 -28 73 -64 93 -16 10 -29 26 -29 37 -1 26 -30 62 -54
67 -11 1 -21 9 -24 16 -2 8 3 12 14 10 12 -2 20 5 24 22 8 28 5 32 33 -45 18
-51 46 -85 64 -78 12 5 15 2 11 -8 -3 -9 3 -26 13 -40 10 -13 19 -31 19 -39 1
-23 31 -58 37 -42 3 6 12 12 22 12 15 0 329 122 1156 447 105 41 246 96 315
123 274 107 1031 404 1215 477 183 73 185 74 185 91 0 10 7 12 25 8 16 -4 25
-2 25 5 0 6 7 9 15 5 21 -8 258 88 323 131 99 66 162 165 189 299 24 117 11
179 -86 429 -46 116 -104 266 -131 335 -213 548 -303 770 -332 816 -94 156
-288 250 -463 223z m-380 -159 c3 -5 1 -10 -4 -10 -6 0 -11 5 -11 10 0 6 2 10
4 10 3 0 8 -4 11 -10z m49 -27 c4 -9 3 -20 -2 -25 -6 -6 -11 1 -14 16 -6 29 6
35 16 9z m-44 -38 c0 -8 -7 -15 -15 -15 -8 0 -15 7 -15 15 0 8 7 15 15 15 8 0
15 -7 15 -15z m-130 -41 c0 -23 -1 -24 -16 -10 -8 9 -12 20 -9 26 12 19 25 10
25 -16z m360 6 c0 -12 -40 -34 -47 -26 -9 8 17 36 33 36 8 0 14 -4 14 -10z
m-440 -40 c0 -5 -4 -10 -10 -10 -5 0 -10 5 -10 10 0 6 5 10 10 10 6 0 10 -4
10 -10z m-80 -40 c0 -5 -7 -10 -15 -10 -8 0 -15 5 -15 10 0 6 7 10 15 10 8 0
15 -4 15 -10z m540 -30 c0 -5 -4 -10 -10 -10 -5 0 -10 5 -10 10 0 6 5 10 10
10 6 0 10 -4 10 -10z m-96 -96 c9 -3 16 -13 16 -21 0 -21 -44 -12 -48 10 -4
18 6 21 32 11z m-1134 -92 c0 -5 17 -13 37 -18 20 -5 39 -15 41 -23 4 -11 0
-12 -14 -6 -11 4 -31 10 -46 12 -24 5 -49 43 -27 43 5 0 9 -4 9 -8z m142 -87
c0 -5 -5 -11 -11 -13 -6 -2 -11 4 -11 13 0 9 5 15 11 13 6 -2 11 -8 11 -13z
m-40 -40 c-56 -92 -135 -194 -149 -194 -16 -1 -16 -1 1 41 8 19 33 54 55 79
75 82 81 90 81 102 0 8 4 7 9 -3 6 -8 7 -19 3 -25z m954 -10 c22 -13 52 -41
67 -62 36 -52 102 -222 91 -233 -5 -5 -82 -38 -172 -73 -111 -44 -165 -61
-170 -53 -4 6 -16 33 -27 60 -29 69 -41 74 -108 47 -31 -13 -58 -29 -61 -37
-8 -21 75 -234 96 -245 12 -6 38 -1 85 17 180 69 226 84 287 92 53 7 69 6 78
-5 7 -9 21 -12 35 -8 15 3 23 1 23 -7 0 -7 15 -29 33 -48 46 -49 177 -380 184
-465 9 -103 -43 -182 -157 -240 -91 -46 -385 -155 -444 -165 -138 -22 -220 32
-287 188 -22 52 -41 103 -42 114 -2 19 20 30 168 89 94 37 173 64 176 60 3 -3
16 -32 29 -64 13 -33 29 -61 37 -64 19 -7 115 30 127 50 12 18 -55 199 -85
232 -18 18 -21 19 -61 3 -255 -98 -264 -100 -323 -100 -64 -1 -141 29 -152 57
-8 22 -18 18 -33 -10 -8 -14 -20 -23 -27 -21 -7 3 -20 -2 -28 -11 -9 -8 -19
-13 -22 -9 -13 13 13 61 41 74 33 16 36 0 -44 197 -101 250 -107 286 -64 373
43 87 95 118 376 226 81 31 166 61 190 66 61 12 136 2 184 -25z m174 -55 c0
-5 -7 -10 -15 -10 -8 0 -15 5 -15 10 0 6 7 10 15 10 8 0 15 -4 15 -10z m-1340
-140 c0 -5 -4 -10 -10 -10 -5 0 -10 5 -10 10 0 6 5 10 10 10 6 0 10 -4 10 -10z
m1614 -21 c-3 -5 -10 -7 -15 -3 -5 3 -7 10 -3 15 3 5 10 7 15 3 5 -3 7 -10 3
-15z m372 -36 c13 -17 15 -17 28 1 20 25 40 12 25 -16 -8 -15 -13 -17 -19 -8
-10 16 -24 -5 -26 -40 -2 -39 -3 -42 -14 -35 -5 3 -10 -1 -10 -10 0 -9 -4 -14
-9 -11 -16 10 -10 136 6 136 3 0 12 -8 19 -17z m-2231 -13 c3 -5 -1 -10 -9
-10 -8 0 -18 5 -21 10 -3 6 1 10 9 10 8 0 18 -4 21 -10z m-215 -80 c0 -5 -4
-10 -10 -10 -5 0 -10 5 -10 10 0 6 5 10 10 10 6 0 10 -4 10 -10z m1365 0 c3
-5 1 -10 -4 -10 -6 0 -11 5 -11 10 0 6 2 10 4 10 3 0 8 -4 11 -10z m625 -50
c0 -5 -2 -10 -4 -10 -3 0 -8 5 -11 10 -3 6 -1 10 4 10 6 0 11 -4 11 -10z
m-1454 -19 c50 -23 96 -77 125 -148 12 -29 25 -53 30 -53 5 0 9 -12 9 -27 1
-49 44 -100 98 -117 12 -4 22 -11 22 -16 0 -5 15 -13 33 -19 17 -6 43 -20 57
-31 25 -19 25 -20 3 -20 -16 0 -21 -4 -17 -15 4 -8 2 -15 -3 -15 -12 0 -59 49
-56 58 2 4 -9 10 -23 14 -14 4 -32 12 -40 19 -27 23 -26 0 5 -80 51 -131 41
-224 -32 -299 l-32 -34 36 -31 c132 -115 369 -332 369 -338 0 -8 -119 -59
-268 -114 l-103 -38 -189 187 c-103 104 -193 185 -198 182 -7 -4 -1 -28 14
-64 75 -179 152 -388 146 -394 -14 -14 -337 -136 -344 -129 -4 3 -66 157 -138
341 -204 522 -212 540 -227 556 -8 7 -12 18 -9 23 3 4 -24 82 -59 172 -36 90
-65 169 -65 175 0 6 96 48 213 94 220 86 262 103 287 119 8 5 51 20 95 34 100
32 202 35 261 8z m1447 -1 c43 -16 63 -63 46 -106 -11 -29 -29 -23 -29 10 0
12 -6 28 -12 35 -11 11 -10 14 0 18 6 3 10 9 7 13 -3 5 -12 7 -20 3 -8 -3 -15
-1 -15 5 0 5 -11 9 -25 8 -14 0 -25 -5 -25 -9 0 -5 -4 -5 -10 -2 -5 3 -10 10
-10 14 0 8 41 31 50 28 3 -1 22 -9 43 -17z m462 0 c-3 -5 -14 -10 -22 -10 -14
0 -13 -4 5 -20 23 -22 28 -45 12 -55 -6 -3 -13 2 -17 12 -3 10 -13 26 -21 35
-12 14 -12 20 -2 33 14 16 55 21 45 5z m45 -16 c0 -8 -4 -12 -10 -9 -5 3 -10
10 -10 16 0 5 5 9 10 9 6 0 10 -7 10 -16z m40 6 c0 -5 -4 -10 -10 -10 -5 0
-10 5 -10 10 0 6 5 10 10 10 6 0 10 -4 10 -10z m-125 -150 c3 -5 12 -7 20 -3
20 7 19 -2 -1 -22 -15 -15 -15 -17 1 -35 17 -19 10 -53 -11 -50 -5 0 -10 -10
-12 -22 -2 -19 -1 -20 8 -8 9 13 12 13 24 -2 7 -10 16 -15 19 -11 4 3 7 -8 7
-26 0 -19 4 -30 10 -26 21 13 9 -13 -15 -31 -14 -10 -21 -22 -16 -29 14 -19
-1 -136 -22 -162 -6 -9 -6 -17 1 -26 12 -14 5 -57 -9 -57 -5 0 -9 5 -9 10 0 6
-9 10 -19 10 -28 0 -52 11 -45 21 3 5 16 9 28 9 26 0 42 35 26 55 -6 7 -4 30
6 60 8 27 12 56 9 64 -3 7 0 20 6 27 9 11 8 14 -4 14 -10 0 -14 9 -13 33 2 17
-1 37 -4 42 -9 12 -19 145 -13 163 6 14 19 16 28 2z m55 -60 c0 -5 -4 -10 -10
-10 -5 0 -10 5 -10 10 0 6 5 10 10 10 6 0 10 -4 10 -10z m50 -10 c0 -5 -4 -10
-10 -10 -5 0 -10 5 -10 10 0 6 5 10 10 10 6 0 10 -4 10 -10z m-3160 -65 c0 -8
-7 -15 -15 -15 -16 0 -20 12 -8 23 11 12 23 8 23 -8z m-840 -10 c0 -8 -4 -15
-10 -15 -5 0 -10 7 -10 15 0 8 5 15 10 15 6 0 10 -7 10 -15z m760 5 c0 -5 -4
-10 -9 -10 -6 0 -13 5 -16 10 -3 6 1 10 9 10 9 0 16 -4 16 -10z m288 -2 c-6
-18 -28 -21 -28 -4 0 9 7 16 16 16 9 0 14 -5 12 -12z m-378 -8 c0 -5 -9 -10
-20 -10 -11 0 -20 5 -20 10 0 6 9 10 20 10 11 0 20 -4 20 -10z m390 -40 c-6
-11 -18 -20 -28 -20 -14 1 -13 4 7 20 29 25 34 25 21 0z m2815 -20 c3 -5 1
-10 -4 -10 -6 0 -11 5 -11 10 0 6 2 10 4 10 3 0 8 -4 11 -10z m-3385 -45 c0
-15 -38 -40 -47 -31 -7 7 26 46 39 46 4 0 8 -7 8 -15z m255 -146 c44 -62 139
-193 211 -293 289 -401 372 -516 451 -625 46 -63 80 -117 76 -121 -4 -4 -21
-12 -38 -18 -16 -6 -92 -35 -168 -65 l-138 -55 -56 84 c-31 46 -61 84 -67 84
-6 0 -75 -25 -154 -56 -140 -55 -143 -57 -138 -82 17 -84 27 -164 23 -175 -3
-7 -23 -19 -46 -27 -28 -9 -40 -18 -39 -29 2 -13 -7 -16 -42 -17 -25 -1 -76
-15 -116 -32 -81 -34 -142 -47 -163 -33 -10 7 -6 11 18 16 17 3 33 10 36 15 3
5 -1 62 -10 127 -15 122 -130 1059 -140 1148 -4 28 -8 62 -11 76 -5 26 -1 28
168 94 95 37 187 74 203 81 17 7 37 13 45 13 8 0 51 -49 95 -110z m3249 95
c11 -29 6 -44 -15 -44 -12 0 -18 4 -13 11 3 6 0 15 -7 20 -12 8 -12 11 1 19
21 13 27 12 34 -6z m-4340 -10 c23 -9 20 -34 -4 -34 -13 0 -20 7 -20 20 0 22
1 23 24 14z m4762 -49 c3 -8 -1 -22 -10 -30 -9 -9 -16 -23 -16 -31 0 -19 -31
-15 -38 5 -3 8 0 11 7 7 7 -5 11 1 11 13 0 13 7 21 18 22 10 0 12 3 5 6 -18 7
-16 23 2 23 9 0 18 -7 21 -15z m-548 -54 c3 -8 0 -11 -7 -7 -6 4 -18 0 -27 -8
-8 -9 -22 -16 -29 -16 -8 0 -17 -9 -20 -20 -3 -11 -13 -20 -21 -20 -20 0 -18
6 18 51 24 30 38 39 57 37 13 -2 27 -9 29 -17z m-4633 -71 c3 -5 -1 -10 -9
-10 -9 0 -16 5 -16 10 0 6 4 10 9 10 6 0 13 -4 16 -10z m4810 -10 c0 -7 -6
-15 -12 -17 -8 -3 -13 4 -13 17 0 13 5 20 13 18 6 -3 12 -11 12 -18z m-379
-27 c-4 -4 -11 -1 -16 7 -16 25 -11 35 7 17 9 -9 13 -20 9 -24z m134 -18 c0
-7 8 -19 18 -24 15 -9 15 -12 2 -21 -8 -5 -19 -8 -25 -7 -13 5 -18 67 -5 67 6
0 10 -7 10 -15z m91 -24 c12 -11 18 -25 14 -32 -6 -8 -13 -5 -26 12 -31 40
-23 53 12 20z m-4080 -199 l47 -123 -31 -13 c-18 -7 -111 -43 -207 -81 -96
-38 -176 -69 -177 -70 -3 -2 95 -246 100 -252 2 -2 82 28 178 66 96 38 177 66
181 63 9 -9 100 -243 96 -247 -2 -2 -180 -72 -335 -132 -7 -3 -13 -11 -13 -19
0 -11 87 -240 95 -252 2 -2 343 128 412 158 12 5 24 6 27 2 18 -30 95 -247 89
-250 -4 -1 -33 -13 -63 -25 l-55 -22 3 -41 c3 -34 -1 -43 -22 -58 -39 -25 -59
-72 -52 -122 5 -36 2 -45 -14 -54 -25 -14 -27 -13 -33 10 -3 11 -12 20 -21 20
-13 0 -14 4 -5 24 6 13 19 26 29 29 19 5 32 52 23 87 -4 13 -1 25 8 31 11 7
10 9 -3 9 -21 0 -24 16 -5 23 8 4 9 6 0 6 -6 1 -18 -6 -27 -14 -8 -8 -22 -15
-31 -15 -9 0 -127 -43 -263 -96 -230 -90 -247 -95 -259 -78 -7 10 -13 21 -13
26 0 9 -89 238 -98 253 -4 6 -16 37 -27 70 -12 33 -49 130 -83 215 -213 541
-272 694 -265 700 5 4 98 42 208 85 110 43 277 109 370 146 94 37 174 67 179
65 5 -1 30 -57 57 -124z m4154 78 c20 -38 19 -43 -4 -28 -10 6 -18 22 -18 35
0 30 3 29 22 -7z m-81 -31 c19 -32 16 -45 -8 -36 -9 4 -13 13 -10 21 3 8 1 17
-5 21 -6 3 -11 10 -11 16 0 18 16 8 34 -22z m-66 -1 c-6 -18 -28 -21 -28 -4 0
9 7 16 16 16 9 0 14 -5 12 -12z m83 -71 c-1 -12 -15 -9 -19 4 -3 6 1 10 8 8 6
-3 11 -8 11 -12z m-31 -7 c0 -5 -7 -10 -16 -10 -8 0 -12 5 -9 10 3 6 10 10 16
10 5 0 9 -4 9 -10z m107 -32 c-3 -8 -6 -5 -6 6 -1 11 2 17 5 13 3 -3 4 -12 1
-19z m-5777 -29 c0 -5 -4 -9 -10 -9 -5 0 -10 7 -10 16 0 8 5 12 10 9 6 -3 10
-10 10 -16z m5680 -27 c0 -26 -11 -34 -27 -21 -10 9 -10 15 -2 25 16 19 29 17
29 -4z m-5064 -602 c3 -261 6 -489 8 -505 4 -29 26 -91 118 -323 23 -56 39
-104 37 -106 -14 -13 -344 -135 -350 -129 -3 5 -42 98 -84 208 l-78 200 -101
105 c-55 58 -141 148 -192 200 -207 216 -394 415 -394 420 0 6 339 141 352
140 3 0 86 -100 184 -222 97 -123 179 -225 181 -227 11 -14 9 29 -13 249 -27
284 -29 340 -11 341 6 0 82 29 167 63 85 35 159 63 163 62 5 -1 11 -215 13
-476z m3794 260 c0 -5 -4 -10 -10 -10 -5 0 -10 5 -10 10 0 6 5 10 10 10 6 0
10 -4 10 -10z m-310 -85 c0 -8 -6 -15 -14 -15 -17 0 -28 14 -19 24 12 12 33 6
33 -9z m-3940 -14 c0 -12 -20 -25 -27 -18 -7 7 6 27 18 27 5 0 9 -4 9 -9z
m3260 -93 c0 -5 -5 -18 -10 -29 -13 -23 -62 -26 -80 -4 -13 15 -8 19 23 15 11
-1 21 7 24 18 3 14 11 18 24 15 10 -3 19 -10 19 -15z m-4960 -108 c0 -5 -4
-10 -10 -10 -5 0 -10 5 -10 10 0 6 5 10 10 10 6 0 10 -4 10 -10z m1134 -11
c-3 -5 -10 -7 -15 -3 -5 3 -7 10 -3 15 3 5 10 7 15 3 5 -3 7 -10 3 -15z
m-1270 -33 c-6 -16 -24 -23 -24 -8 0 10 22 33 27 28 2 -2 1 -11 -3 -20z m4386
-2 c0 -17 -22 -14 -28 4 -2 7 3 12 12 12 9 0 16 -7 16 -16z m-3098 -29 c0 -5
-5 -11 -11 -13 -6 -2 -11 4 -11 13 0 9 5 15 11 13 6 -2 11 -8 11 -13z m2068
-27 c0 -6 -7 -5 -15 2 -8 7 -15 17 -15 22 0 6 7 5 15 -2 8 -7 15 -17 15 -22z
m-3303 -24 c-9 -9 -28 6 -21 18 4 6 10 6 17 -1 6 -6 8 -13 4 -17z m111 -12 c6
-18 -15 -14 -22 4 -4 10 -1 14 6 12 6 -2 14 -10 16 -16z m4992 -12 c0 -5 -4
-10 -10 -10 -5 0 -10 5 -10 10 0 6 5 10 10 10 6 0 10 -4 10 -10z m-5141 -28
c-13 -15 -36 -38 -51 -51 -22 -18 -28 -19 -28 -7 0 8 9 20 20 26 11 6 20 17
20 24 0 7 10 18 23 24 36 17 40 14 16 -16z m2509 10 c2 -7 -2 -10 -12 -6 -9 3
-16 11 -16 16 0 13 23 5 28 -10z m-1818 -312 l125 -320 45 -21 c66 -31 130
-80 130 -98 -1 -9 -7 -27 -15 -41 l-14 -25 -1 38 c0 30 -4 37 -20 37 -12 0
-34 10 -50 22 -58 42 -59 49 84 -315 47 -120 86 -222 86 -227 0 -4 -55 -30
-122 -56 -68 -26 -142 -55 -165 -65 l-41 -18 29 -53 c16 -29 33 -63 39 -75 5
-13 13 -23 18 -23 4 0 14 -15 20 -34 7 -19 24 -50 37 -70 13 -20 21 -36 17
-36 -11 0 -82 87 -101 124 -9 17 -39 64 -66 104 -65 96 -134 214 -135 230 0 6
-4 12 -10 12 -14 0 -31 37 -24 54 9 25 22 19 29 -13 3 -16 13 -35 21 -42 8 -6
14 -18 14 -25 0 -8 7 -14 16 -14 20 0 20 -1 -44 160 -27 69 -100 256 -162 415
-62 160 -117 294 -121 299 -5 5 -44 -5 -94 -24 -47 -18 -87 -31 -88 -29 -2 2
-21 48 -42 102 -21 53 -42 97 -47 97 -5 0 -8 12 -6 26 3 24 16 31 138 79 74
30 187 74 250 99 63 25 122 45 130 46 11 0 52 -96 140 -320z m2707 285 c9 -25
-4 -29 -17 -6 -7 15 -7 21 0 21 6 0 13 -7 17 -15z m-3888 -61 c3 -16 1 -17
-13 -5 -19 16 -21 34 -3 29 6 -3 14 -13 16 -24z m4711 6 c0 -5 -4 -10 -10 -10
-5 0 -10 5 -10 10 0 6 5 10 10 10 6 0 10 -4 10 -10z m-2950 -46 c0 -17 -22
-14 -28 4 -2 7 3 12 12 12 9 0 16 -7 16 -16z m-40 -49 c0 -31 -10 -31 -33 0
-18 25 -18 25 8 25 20 0 25 -5 25 -25z m-1628 -77 c-4 -47 -24 -90 -36 -77 -2
2 -2 42 1 88 6 81 7 84 23 63 13 -16 16 -34 12 -74z m-322 56 c0 -8 -4 -12
-10 -9 -5 3 -10 10 -10 16 0 5 5 9 10 9 6 0 10 -7 10 -16z m-104 -41 c19 -25
17 -33 -6 -33 -15 0 -20 7 -20 25 0 29 8 32 26 8z m848 -8 c3 -9 0 -15 -8 -15
-27 0 -66 -41 -66 -70 0 -31 -25 -47 -46 -29 -20 16 -18 21 16 44 16 11 30 24
30 28 0 9 51 56 61 57 4 0 9 -7 13 -15z m2757 -58 c-8 -8 -11 -7 -11 4 0 20
13 34 18 19 3 -7 -1 -17 -7 -23z m-2897 -139 c33 -87 66 -158 72 -158 7 0 14
-7 18 -15 3 -8 1 -15 -4 -15 -22 0 -8 -22 20 -31 32 -12 37 -28 20 -60 -14
-26 8 -74 34 -74 11 0 21 -6 24 -14 3 -10 0 -12 -12 -8 -10 4 -16 1 -16 -7 0
-7 31 -93 69 -191 61 -158 70 -175 80 -156 13 23 6 45 -10 36 -11 -7 -11 3 1
30 8 18 9 18 9 2 1 -11 6 -15 13 -11 7 4 8 3 4 -5 -4 -6 0 -14 8 -17 9 -3 16
-16 16 -29 0 -12 7 -36 15 -51 8 -16 15 -44 15 -62 0 -18 5 -42 11 -53 12 -23
39 -148 42 -197 l2 -33 -155 -61 c-85 -33 -164 -62 -175 -65 -18 -4 -29 19
-97 194 -42 109 -109 279 -148 378 -39 99 -94 240 -122 313 -28 72 -55 132
-60 132 -5 0 -41 -13 -80 -30 -38 -16 -76 -30 -83 -30 -16 0 -112 238 -99 249
5 4 65 30 134 56 69 27 179 70 245 96 66 27 126 47 134 46 8 -1 40 -70 75
-159z m-800 131 c-3 -5 -14 -14 -24 -19 -18 -10 -19 -9 -9 14 7 14 17 22 25
19 8 -3 11 -9 8 -14z m916 2 c0 -12 -28 -22 -34 -12 -3 5 -3 11 1 15 9 9 33 7
33 -3z m2770 -31 c0 -5 -4 -10 -10 -10 -5 0 -10 5 -10 10 0 6 5 10 10 10 6 0
10 -4 10 -10z m-1140 -10 c0 -5 -2 -10 -4 -10 -3 0 -8 5 -11 10 -3 6 -1 10 4
10 6 0 11 -4 11 -10z m-2580 -25 c0 -8 -7 -15 -15 -15 -16 0 -20 12 -8 23 11
12 23 8 23 -8z m110 0 c0 -12 -40 -48 -46 -42 -4 4 1 16 11 27 17 19 35 26 35
15z m4590 -50 c0 -8 -4 -15 -10 -15 -5 0 -10 7 -10 15 0 8 5 15 10 15 6 0 10
-7 10 -15z m-2292 -18 c2 -12 -1 -15 -12 -11 -19 7 -22 38 -3 32 6 -3 13 -12
15 -21z m1298 -42 c2 -19 0 -34 -4 -31 -4 2 -14 -9 -21 -25 -20 -45 -32 -35
-27 21 9 93 45 117 52 35z m722 -64 c3 -8 -1 -12 -9 -9 -7 2 -15 10 -17 17 -3
8 1 12 9 9 7 -2 15 -10 17 -17z m37 -44 c-4 -12 -9 -34 -12 -50 -7 -37 -23
-45 -23 -10 l-1 28 -14 -32 c-8 -18 -21 -33 -30 -33 -8 0 -15 -4 -15 -10 0 -5
-12 -10 -27 -10 -28 1 -28 1 15 39 23 21 42 47 42 58 0 26 14 38 46 41 23 2
25 -1 19 -21z m-259 -24 c-10 -10 -19 5 -10 18 6 11 8 11 12 0 2 -7 1 -15 -2
-18z m-3226 -17 c0 -14 -24 -29 -33 -19 -3 3 -3 11 0 19 7 18 33 18 33 0z
m3544 -41 c-4 -8 -10 -15 -15 -15 -5 0 -9 7 -9 15 0 8 7 15 15 15 9 0 12 -6 9
-15z m-3496 -33 c2 -7 -3 -12 -12 -12 -9 0 -16 7 -16 16 0 17 22 14 28 -4z
m3490 -4 c-6 -18 -25 -20 -31 -3 -5 10 0 15 14 15 12 0 19 -5 17 -12z m-2508
-18 c0 -5 -7 -10 -15 -10 -8 0 -15 5 -15 10 0 6 7 10 15 10 8 0 15 -4 15 -10z
m-937 -60 c-14 -14 -46 -16 -50 -3 -2 6 6 13 19 15 28 5 43 -1 31 -12z m1477
10 c0 -5 -4 -10 -10 -10 -5 0 -10 5 -10 10 0 6 5 10 10 10 6 0 10 -4 10 -10z
m-2179 -71 c-17 -16 -36 -29 -41 -29 -6 0 -8 -4 -5 -10 3 -5 -3 -10 -13 -10
-11 0 -25 -7 -32 -16 -19 -21 -50 -37 -50 -25 0 6 24 28 53 50 29 21 67 53 83
70 22 24 30 28 32 16 2 -9 -10 -29 -27 -46z m1514 31 c-3 -5 -10 -10 -16 -10
-5 0 -9 5 -9 10 0 6 7 10 16 10 8 0 12 -4 9 -10z m45 -10 c0 -5 -4 -10 -10
-10 -5 0 -10 5 -10 10 0 6 5 10 10 10 6 0 10 -4 10 -10z m-1733 -144 c-13 -14
-27 -26 -31 -26 -11 0 -36 -27 -36 -39 0 -6 -7 -7 -17 -4 -11 4 -14 3 -9 -5 4
-8 1 -12 -10 -12 -9 0 -32 -17 -50 -37 -18 -20 -37 -33 -41 -29 -10 10 137
149 180 169 40 20 44 16 14 -17z m918 -22 c0 -10 4 -25 8 -31 5 -9 3 -13 -7
-13 -10 0 -16 9 -16 25 0 14 -5 25 -11 25 -5 0 -7 5 -4 11 10 16 30 5 30 -17z
m-1055 -265 c0 -5 -4 -9 -10 -9 -5 0 -10 7 -10 16 0 8 5 12 10 9 6 -3 10 -10
10 -16z m1356 -36 c-10 -10 -19 5 -10 18 6 11 8 11 12 0 2 -7 1 -15 -2 -18z
m80 -20 c-4 -4 -11 -1 -16 7 -16 25 -11 35 7 17 9 -9 13 -20 9 -24z m-1456
-14 c0 -11 -4 -17 -10 -14 -5 3 -10 15 -10 26 0 11 5 17 10 14 6 -3 10 -15 10
-26z m60 -10 c0 -5 -7 -9 -15 -9 -15 0 -20 12 -9 23 8 8 24 -1 24 -14z m1445
-98 c6 -11 -31 -34 -47 -29 -6 2 -4 11 6 21 20 19 32 21 41 8z m-95 -41 c0 -6
12 -8 28 -4 21 4 24 3 12 -5 -22 -16 -60 -13 -60 4 0 8 5 15 10 15 6 0 10 -5
10 -10z m-56 -277 c13 -27 34 -59 45 -73 27 -30 25 -66 -4 -62 -11 2 -27 10
-35 18 -13 14 -12 15 14 8 27 -6 28 -6 16 17 -7 13 -30 45 -52 71 -36 44 -42
68 -18 68 6 0 21 -21 34 -47z m-34 -158 c0 -8 -4 -15 -10 -15 -5 0 -10 7 -10
15 0 8 5 15 10 15 6 0 10 -7 10 -15z m-528 -67 c-6 -6 -15 -3 -26 7 -21 22
-20 31 7 50 21 15 22 15 25 -16 2 -17 -1 -36 -6 -41z m348 38 c0 -3 -4 -8 -10
-11 -5 -3 -10 -1 -10 4 0 6 5 11 10 11 6 0 10 -2 10 -4z m-300 -121 c0 -14 -4
-25 -10 -25 -5 0 -10 11 -10 25 0 14 5 25 10 25 6 0 10 -11 10 -25z m-240 -40
c0 -8 -7 -15 -15 -15 -16 0 -20 12 -8 23 11 12 23 8 23 -8z m71 -28 c-13 -13
-26 -3 -16 12 3 6 11 8 17 5 6 -4 6 -10 -1 -17z m-91 -21 c0 -3 -4 -8 -10 -11
-5 -3 -10 -1 -10 4 0 6 5 11 10 11 6 0 10 -2 10 -4z m-348 -51 c0 -5 -5 -11
-11 -13 -6 -2 -11 4 -11 13 0 9 5 15 11 13 6 -2 11 -8 11 -13z m148 -15 c0 -5
-5 -10 -11 -10 -5 0 -7 5 -4 10 3 6 8 10 11 10 2 0 4 -4 4 -10z"/>
<path d="M9785 6120 c-43 -17 -70 -34 -69 -43 1 -8 28 -82 60 -166 57 -146 60
-151 84 -146 47 12 139 57 144 72 7 17 -89 269 -112 296 -19 22 -23 21 -107
-13z"/>
<path d="M8695 5488 c5 -25 37 -225 56 -355 7 -46 17 -83 23 -83 11 0 161 56
177 65 7 5 -245 395 -256 395 -3 0 -3 -10 0 -22z"/>
<path d="M4820 3375 c0 -1 7 -23 17 -50 13 -40 18 -45 24 -30 3 11 3 24 -2 30
-5 5 -9 19 -9 30 0 13 -6 22 -15 22 -8 0 -15 -1 -15 -2z"/>
<path d="M4871 3245 c1 -19 18 -51 18 -35 0 8 -4 22 -9 30 -5 8 -9 11 -9 5z"/>
<path d="M4941 7524 c-12 -15 -21 -30 -21 -34 0 -4 32 -35 72 -69 l72 -61 23
22 c13 12 23 25 23 29 0 9 -77 83 -122 119 l-26 20 -21 -26z"/>
<path d="M10758 7462 c-37 -31 -67 -61 -67 -67 0 -5 9 -21 19 -34 l20 -23 33
25 c18 14 53 43 78 65 l44 40 -24 26 c-14 14 -27 26 -30 26 -3 0 -36 -26 -73
-58z"/>
<path d="M4852 7402 c-17 -3 -22 -8 -17 -20 4 -9 8 -24 9 -33 0 -9 27 -39 60
-65 l58 -48 26 29 25 29 -44 39 c-67 59 -92 73 -117 69z"/>
<path d="M4730 7259 c-13 -17 -19 -34 -14 -39 30 -27 138 -100 149 -100 17 0
50 51 38 59 -5 3 -36 27 -69 52 -83 64 -80 63 -104 28z m70 -29 c0 -5 -7 -10
-15 -10 -8 0 -15 5 -15 10 0 6 7 10 15 10 8 0 15 -4 15 -10z"/>
<path d="M4646 7141 c-4 -5 -3 -17 1 -27 5 -13 3 -16 -10 -11 -9 3 -17 3 -17
-2 0 -11 38 -43 100 -85 l55 -37 22 28 c13 16 23 30 23 33 0 6 -153 110 -162
110 -4 0 -9 -4 -12 -9z m99 -61 c3 -6 -1 -13 -9 -16 -22 -8 -68 4 -61 16 8 13
62 13 70 0z"/>
<path d="M7731 7041 c-11 -7 -12 -27 -6 -97 4 -49 11 -92 16 -95 5 -3 23 -4
39 -1 24 3 28 8 25 31 -1 14 -3 59 -4 99 -1 72 -1 72 -28 72 -16 0 -34 -4 -42
-9z"/>
<path d="M7890 6950 l0 -100 34 0 33 0 7 61 c3 34 6 79 6 100 0 39 0 39 -40
39 l-40 0 0 -100z"/>
<path d="M8055 6973 c-13 -137 -14 -128 26 -131 l36 -3 12 89 c15 119 17 112
-28 112 l-39 0 -7 -67z"/>
<path d="M7555 7020 c-6 -10 9 -134 21 -172 6 -19 58 -25 69 -8 3 5 0 50 -6
100 l-12 90 -33 0 c-18 0 -36 -5 -39 -10z"/>
<path d="M8227 7004 c-9 -28 -29 -175 -25 -178 5 -5 68 -16 68 -13 0 2 9 45
20 97 11 51 18 95 16 97 -2 2 -19 6 -39 10 -28 4 -36 2 -40 -13z"/>
<path d="M4546 6988 c-9 -12 -16 -28 -16 -34 0 -7 37 -34 81 -60 l81 -47 19
24 c10 13 18 29 18 34 0 10 -117 87 -151 100 -10 4 -22 -2 -32 -17z"/>
<path d="M7392 6991 c-10 -6 -9 -25 9 -97 12 -49 23 -91 25 -93 2 -2 19 0 39
3 28 6 35 11 31 24 -2 9 -12 52 -21 95 -16 73 -19 77 -44 77 -14 0 -32 -4 -39
-9z"/>
<path d="M8395 6978 c-11 -31 -46 -181 -43 -183 2 -2 15 -6 29 -10 34 -8 44 6
73 101 l23 79 -31 12 c-41 15 -46 15 -51 1z"/>
<path d="M7243 6953 c-13 -2 -23 -12 -23 -21 0 -18 49 -164 59 -173 3 -4 20
-1 37 5 l32 11 -27 90 c-27 92 -32 97 -78 88z"/>
<path d="M8535 6858 c-16 -46 -30 -88 -32 -94 -5 -15 55 -40 67 -28 7 7 70
170 70 180 0 1 -11 5 -24 8 -13 3 -31 8 -39 12 -11 4 -21 -15 -42 -78z"/>
<path d="M7088 6894 c-16 -8 -28 -18 -28 -23 0 -10 65 -159 73 -167 4 -4 20
-1 37 6 34 14 34 8 -8 120 -16 41 -33 75 -38 77 -5 1 -21 -5 -36 -13z"/>
<path d="M8685 6794 c-20 -47 -34 -92 -32 -99 6 -15 60 -30 65 -18 2 4 20 44
41 88 21 44 38 81 37 82 -1 1 -18 9 -38 17 l-36 15 -37 -85z"/>
<path d="M4459 6843 c-7 -16 -15 -31 -17 -34 -3 -6 159 -99 172 -99 7 0 39 61
34 65 -8 7 -166 95 -170 95 -3 0 -11 -12 -19 -27z"/>
<path d="M6932 6823 c-18 -9 -31 -19 -30 -22 38 -79 90 -171 96 -171 4 0 18 9
32 19 24 19 24 20 9 53 -9 18 -27 57 -40 86 -13 28 -26 52 -29 52 -3 0 -20 -8
-38 -17z"/>
<path d="M8833 6721 c-24 -43 -43 -83 -43 -88 0 -5 12 -15 27 -22 25 -12 29
-10 48 13 11 14 35 53 53 86 l32 59 -29 16 c-17 8 -34 15 -38 15 -4 0 -27 -35
-50 -79z"/>
<path d="M6783 6740 l-33 -20 37 -57 c20 -32 45 -70 55 -85 20 -29 22 -29 77
8 4 3 -93 174 -99 174 -3 0 -20 -9 -37 -20z"/>
<path d="M4382 6695 c-7 -14 -12 -30 -12 -35 0 -10 151 -90 168 -90 9 0 32 44
32 60 0 10 -151 90 -168 90 -5 0 -14 -11 -20 -25z m78 -65 c0 -5 -4 -10 -10
-10 -5 0 -10 5 -10 10 0 6 5 10 10 10 6 0 10 -4 10 -10z"/>
<path d="M9001 6683 c-20 -32 -21 -35 -5 -28 11 4 32 12 47 17 27 10 27 11 11
29 -23 25 -25 25 -53 -18z"/>
<path d="M6638 6644 l-26 -27 56 -73 c31 -41 62 -74 67 -74 6 1 21 10 34 21
24 19 24 20 4 42 -10 12 -36 48 -56 80 -21 31 -41 57 -45 57 -4 0 -19 -12 -34
-26z"/>
<path d="M4307 6536 l-16 -34 84 -36 c46 -20 88 -36 94 -36 11 0 31 40 31 59
0 7 -158 81 -172 81 -3 0 -12 -15 -21 -34z"/>
<path d="M6501 6536 l-23 -25 63 -70 c35 -39 66 -71 69 -71 8 1 50 37 50 44 0
13 -115 146 -125 146 -7 0 -22 -11 -34 -24z"/>
<path d="M6381 6426 c-13 -14 -22 -29 -20 -34 2 -5 35 -37 72 -72 l68 -63 27
26 27 27 -70 70 c-38 38 -72 70 -75 70 -4 0 -17 -11 -29 -24z"/>
<path d="M4242 6383 c-6 -20 -10 -37 -9 -38 17 -8 171 -65 177 -65 8 0 33 60
27 66 -2 3 -178 74 -182 74 -1 0 -7 -17 -13 -37z"/>
<path d="M6269 6301 c-12 -16 -21 -32 -20 -35 0 -4 26 -27 58 -53 64 -52 107
-64 123 -33 11 21 9 23 -102 119 l-37 32 -22 -30z"/>
<path d="M4183 6225 c-6 -19 -8 -37 -5 -39 31 -17 176 -56 182 -50 5 5 12 21
15 35 6 25 3 28 -42 44 -26 10 -63 24 -82 32 -49 19 -56 17 -68 -22z"/>
<path d="M6160 6159 c-12 -16 -21 -31 -19 -33 2 -1 39 -27 82 -56 l79 -54 19
25 c10 13 19 29 19 34 0 9 -141 115 -153 115 -3 0 -15 -14 -27 -31z m80 -19
c0 -5 -4 -10 -10 -10 -5 0 -10 5 -10 10 0 6 5 10 10 10 6 0 10 -4 10 -10z"/>
<path d="M4131 6068 c-12 -35 -6 -44 39 -54 14 -3 45 -12 69 -20 25 -8 52 -14
62 -14 15 0 29 26 29 57 0 11 -147 63 -177 63 -6 0 -16 -14 -22 -32z"/>
<path d="M6065 6018 c-15 -27 -16 -33 -4 -40 8 -5 44 -26 81 -48 37 -22 71
-40 76 -40 10 0 38 58 31 64 -14 12 -151 96 -157 96 -4 0 -16 -14 -27 -32z"/>
<path d="M4112 5923 c19 -23 30 -53 19 -53 -5 0 -14 7 -21 15 -17 20 -30 19
-30 -3 0 -14 19 -22 92 -39 97 -22 108 -22 108 4 0 27 -49 62 -109 78 -74 19
-77 19 -59 -2z"/>
<path d="M5986 5873 c-9 -20 -16 -37 -14 -38 6 -5 168 -85 173 -85 6 0 38 61
33 64 -2 2 -42 23 -89 49 l-86 45 -17 -35z"/>
<path d="M4050 5763 c0 -10 -3 -28 -6 -39 -5 -20 1 -23 90 -40 53 -10 98 -16
100 -13 2 2 7 18 10 36 l7 31 -68 15 c-138 31 -133 30 -133 10z"/>
<path d="M5916 5714 c-9 -20 -16 -38 -14 -39 5 -4 174 -65 181 -65 4 0 14 14
22 30 l16 31 -36 15 c-20 8 -61 26 -92 39 -30 14 -56 25 -57 25 -1 0 -10 -16
-20 -36z"/>
<path d="M4015 5584 c-3 -20 -4 -38 -2 -40 7 -7 188 -37 192 -32 3 2 6 19 7
38 l3 33 -70 13 c-38 7 -82 15 -96 18 -24 5 -28 1 -34 -30z"/>
<path d="M5860 5555 c-7 -20 -10 -38 -7 -41 2 -3 35 -13 73 -24 65 -19 69 -19
98 -2 16 9 31 22 33 29 2 6 -30 22 -79 38 -46 16 -88 30 -94 32 -7 2 -17 -12
-24 -32z"/>
<path d="M4000 5442 c0 -6 6 -13 13 -16 8 -3 7 -8 -5 -16 -39 -24 -20 -37 70
-49 119 -15 112 -16 112 28 l0 38 -52 7 c-29 4 -72 9 -95 12 -27 4 -43 2 -43
-4z"/>
<path d="M3974 5256 c-11 -44 0 -56 54 -56 27 0 69 -3 94 -6 45 -6 45 -6 51
27 2 19 2 37 -2 41 -4 5 -48 11 -98 14 l-92 7 -7 -27z"/>
<path d="M11765 5155 l-30 -13 38 -1 c27 -1 37 3 37 14 0 18 -6 18 -45 0z"/>
<path d="M3965 5083 c-3 -19 -5 -36 -3 -38 2 -2 46 -6 99 -10 l96 -7 6 33 c3
19 2 37 -2 40 -3 4 -47 9 -98 12 l-91 4 -7 -34z"/>
<path d="M11475 5044 c-16 -7 -199 -80 -405 -160 -206 -81 -472 -185 -590
-231 -118 -47 -261 -103 -317 -124 -106 -42 -112 -45 -118 -79 -39 -203 -166
-511 -291 -705 -317 -492 -782 -826 -1349 -969 -377 -94 -853 -74 -1218 53
-52 18 -61 19 -74 6 -17 -17 -29 -19 -38 -6 -3 6 3 14 12 20 16 8 15 11 -12
21 -117 44 -310 146 -429 226 l-49 33 -51 -21 c-28 -11 -303 -119 -611 -240
-800 -314 -789 -310 -797 -317 -4 -3 46 -63 112 -132 408 -432 943 -769 1515
-953 61 -20 111 -36 113 -36 1 0 2 12 2 26 0 16 5 24 13 21 6 -2 11 -16 9 -30
-2 -21 3 -26 28 -32 16 -4 34 -4 40 0 5 3 10 2 10 -4 0 -10 114 -39 261 -66
181 -33 323 -46 572 -52 216 -5 257 -4 257 8 1 8 7 28 16 44 l14 30 -5 -43
c-5 -43 -5 -44 22 -38 16 2 69 8 118 11 287 21 681 116 985 237 105 42 308
133 317 142 5 5 -37 117 -53 142 -17 25 -10 68 9 61 7 -2 16 -17 21 -33 15
-50 59 -144 68 -144 26 0 266 147 278 171 6 10 19 19 29 19 51 0 351 240 562
450 201 199 323 348 475 581 302 459 491 969 569 1534 19 132 33 595 19 594
-5 0 -22 -7 -39 -15z m-95 -304 c0 -5 -4 -10 -10 -10 -5 0 -10 5 -10 10 0 6 5
10 10 10 6 0 10 -4 10 -10z m106 -27 c-11 -11 -19 6 -11 24 8 17 8 17 12 0 3
-10 2 -21 -1 -24z m-186 -53 c0 -5 -2 -10 -4 -10 -3 0 -8 5 -11 10 -3 6 -1 10
4 10 6 0 11 -4 11 -10z m168 -89 c3 -8 -1 -12 -9 -9 -7 2 -15 10 -17 17 -3 8
1 12 9 9 7 -2 15 -10 17 -17z m-827 -171 c-25 -22 -41 -26 -41 -10 0 11 30 29
50 29 10 0 8 -6 -9 -19z m-111 -41 c0 -5 -7 -9 -15 -9 -15 0 -20 12 -9 23 8 8
24 -1 24 -14z m-65 -160 c30 -11 55 -22 55 -25 0 -2 -13 -43 -30 -91 -16 -47
-30 -90 -30 -94 0 -7 84 -39 102 -39 9 0 19 21 52 112 l17 46 60 -20 c32 -11
59 -21 59 -23 0 -2 -13 -40 -30 -85 l-30 -81 37 -15 c76 -32 81 -29 120 71 18
49 36 91 38 93 6 6 115 -31 115 -39 0 -14 -122 -344 -131 -353 -11 -12 -568
191 -592 216 -15 15 -16 19 -3 24 8 3 40 77 72 165 31 87 58 159 60 159 2 0
28 -9 59 -21z m-378 -26 c5 -13 -44 -49 -54 -40 -3 4 2 18 11 32 17 26 36 29
43 8z m-73 -38 c3 -9 -1 -18 -10 -22 -19 -7 -28 2 -21 22 8 19 23 19 31 0z
m116 -29 c0 -16 -18 -31 -27 -22 -8 8 5 36 17 36 5 0 10 -6 10 -14z m194 -390
c18 -7 51 -25 75 -40 l42 -27 -22 -37 c-13 -20 -33 -54 -46 -75 l-24 -38 -50
28 -50 28 -20 -24 c-10 -13 -19 -27 -19 -32 0 -4 66 -47 146 -95 l145 -88 24
30 23 29 -29 18 c-16 11 -29 22 -29 25 0 14 82 142 91 142 13 0 88 -48 122
-79 52 -47 36 -113 -65 -269 -43 -67 -78 -92 -126 -92 -35 0 -383 205 -424
250 -43 47 -38 88 23 195 27 50 68 107 89 128 43 40 70 46 124 23z m-139 -611
c66 -62 144 -135 174 -162 61 -57 61 -61 -7 -126 l-40 -39 -152 56 c-84 31
-154 55 -156 53 -2 -1 46 -49 107 -106 l109 -103 -51 -56 c-29 -32 -55 -57
-59 -57 -4 0 -66 56 -139 125 -147 137 -164 152 -183 148 -7 -2 -12 5 -12 14
1 10 -27 45 -63 78 l-64 60 48 55 c26 30 51 55 55 55 7 0 232 -82 277 -101 13
-5 25 -8 28 -6 2 3 -43 49 -102 103 -58 54 -105 102 -105 108 0 6 23 34 52 63
l51 52 56 -51 c31 -28 110 -101 176 -163z m207 -47 c7 -19 -2 -38 -18 -38 -15
0 -17 9 -8 34 7 19 20 21 26 4z m-1322 -38 c0 -5 -4 -10 -10 -10 -5 0 -10 5
-10 10 0 6 5 10 10 10 6 0 10 -4 10 -10z m1290 -20 c0 -5 -4 -10 -10 -10 -5 0
-10 5 -10 10 0 6 5 10 10 10 6 0 10 -4 10 -10z m-751 -118 c17 -27 31 -51 31
-54 0 -4 -34 -30 -75 -60 -41 -29 -75 -57 -75 -61 0 -20 62 -97 73 -90 7 3 40
26 74 50 l61 43 37 -50 c21 -28 36 -52 34 -54 -46 -34 -135 -100 -137 -102 -2
-1 13 -25 33 -53 l37 -51 66 47 c37 26 74 53 83 60 27 23 34 17 92 -74 5 -7
-23 -33 -80 -75 -49 -34 -117 -84 -152 -110 -63 -48 -86 -57 -93 -38 -9 26
-255 359 -265 359 -7 1 -13 8 -13 17 0 9 -16 39 -36 66 -34 46 -36 51 -20 66
20 20 278 210 287 211 4 1 21 -21 38 -47z m-3409 8 c0 -5 -7 -10 -15 -10 -8 0
-15 5 -15 10 0 6 7 10 15 10 8 0 15 -4 15 -10z m845 -99 c3 -5 1 -12 -5 -16
-5 -3 -10 1 -10 9 0 18 6 21 15 7z m-851 -21 c-14 -12 -74 -23 -74 -12 0 15 8
18 46 19 20 1 32 -3 28 -7z m824 -22 c-5 -17 -94 -61 -110 -56 -7 3 10 19 37
36 53 33 79 40 73 20z m560 -50 c30 -30 5 -37 -29 -8 -23 19 -23 19 -3 20 11
0 25 -5 32 -12z m136 -4 c24 -9 20 -60 -6 -78 -12 -9 -28 -16 -35 -16 -19 0
-26 38 -11 70 13 30 23 35 52 24z m1073 -20 c-9 -9 -28 6 -21 18 4 6 10 6 17
-1 6 -6 8 -13 4 -17z m-2089 -65 c87 -45 158 -83 160 -84 8 -7 -50 -105 -61
-105 -8 0 -48 18 -90 40 -41 22 -78 40 -81 40 -5 0 -56 -94 -56 -104 0 -3 33
-21 73 -41 39 -21 73 -39 75 -40 3 -3 -45 -104 -53 -113 -1 -2 -37 16 -80 38
-42 23 -78 40 -80 38 -5 -6 -55 -107 -55 -113 0 -3 9 -5 20 -5 11 0 20 -4 20
-8 0 -5 32 -23 70 -42 39 -19 70 -40 70 -48 0 -7 -12 -33 -26 -58 -23 -39 -29
-43 -52 -38 -15 4 -34 13 -44 21 -9 8 -19 10 -22 5 -3 -5 -17 -7 -31 -4 -19 3
-24 9 -20 22 5 15 -12 27 -91 67 -53 26 -98 53 -101 60 -4 11 62 144 229 462
49 94 47 91 60 91 5 0 80 -37 166 -81z m177 41 c3 -5 -1 -10 -10 -10 -9 0 -13
5 -10 10 3 6 8 10 10 10 2 0 7 -4 10 -10z m1935 -20 c0 -5 -4 -10 -10 -10 -5
0 -10 5 -10 10 0 6 5 10 10 10 6 0 10 -4 10 -10z m477 -240 c93 -181 133 -250
146 -250 18 0 23 -15 7 -25 -5 -3 -7 -12 -4 -20 4 -10 -17 -26 -71 -52 -74
-37 -77 -38 -88 -18 -53 89 -276 540 -270 546 15 13 128 69 140 69 6 0 69
-112 140 -250z m-603 188 c-3 -5 -14 -2 -25 8 -24 21 -24 32 -1 36 18 4 37
-27 26 -44z m-2353 -11 c-16 -16 -26 0 -10 19 9 11 15 12 17 4 2 -6 -1 -17 -7
-23z m1529 23 c0 -5 -4 -10 -10 -10 -5 0 -10 5 -10 10 0 6 5 10 10 10 6 0 10
-4 10 -10z m-170 -16 c0 -8 -5 -12 -10 -9 -6 4 -8 11 -5 16 9 14 15 11 15 -7z
m-10 -59 c0 -8 -4 -15 -9 -15 -13 0 -22 16 -14 24 11 11 23 6 23 -9z m-637
-56 l67 -20 0 -81 0 -82 46 67 c26 37 49 67 53 67 13 0 140 -38 155 -47 13 -7
-2 -31 -89 -133 -59 -71 -105 -134 -105 -146 0 -11 14 -88 30 -169 17 -81 30
-152 30 -157 0 -11 -38 -4 -127 23 l-61 19 -7 85 c-4 47 -10 85 -14 85 -3 0
-24 -25 -46 -56 -58 -81 -54 -80 -145 -54 -45 13 -83 26 -85 30 -2 3 48 63
111 133 62 70 114 133 114 140 0 6 -11 77 -25 157 -14 80 -25 151 -25 159 0
15 10 13 123 -20z m1856 -6 c20 -20 38 -56 60 -123 37 -113 39 -167 10 -204
l-21 -27 88 -89 c59 -60 83 -91 73 -95 -46 -16 -146 -45 -159 -45 -8 0 -48 38
-89 85 -41 47 -76 83 -78 81 -2 -2 9 -48 26 -102 17 -54 28 -101 23 -105 -9
-9 -152 -52 -157 -48 -1 2 -24 69 -50 149 -26 80 -69 212 -96 295 -27 82 -46
152 -41 156 4 4 61 24 127 44 66 20 131 41 145 45 14 5 44 9 67 9 33 1 49 -5
72 -26z m-509 -112 c0 -10 3 -38 6 -63 l6 -45 -96 -10 c-53 -6 -99 -13 -102
-16 -3 -3 -2 -31 1 -62 l7 -57 52 7 c28 3 67 8 87 11 l37 5 7 -61 c4 -34 5
-63 3 -65 -2 -3 -36 -7 -75 -11 -39 -4 -77 -10 -83 -14 -9 -6 -11 -24 -5 -65
l7 -57 81 7 c142 14 131 18 139 -45 3 -30 3 -58 0 -62 -9 -9 -372 -51 -379
-44 -3 2 -9 37 -13 78 -50 433 -62 540 -58 543 5 5 295 42 346 44 25 1 32 -3
32 -18z m970 4 c0 -8 -4 -15 -10 -15 -5 0 -10 7 -10 15 0 8 5 15 10 15 6 0 10
-7 10 -15z m-1687 -15 c174 -13 209 -27 227 -88 10 -37 -5 -245 -22 -285 -17
-44 -55 -57 -161 -57 l-94 0 -7 -46 c-3 -26 -6 -65 -6 -88 0 -64 -5 -67 -98
-59 -75 5 -82 8 -82 27 0 36 40 549 46 583 4 29 8 32 32 28 15 -3 89 -9 165
-15z m1515 -301 c-2 -6 -8 -10 -13 -10 -5 0 -11 4 -13 10 -2 6 4 11 13 11 9 0
15 -5 13 -11z m282 -19 c0 -5 -4 -10 -10 -10 -5 0 -10 5 -10 10 0 6 5 10 10
10 6 0 10 -4 10 -10z m270 -60 c0 -5 -4 -10 -10 -10 -5 0 -10 5 -10 10 0 6 5
10 10 10 6 0 10 -4 10 -10z m-247 -15 c7 -16 -8 -29 -23 -20 -15 9 -12 35 4
35 8 0 16 -7 19 -15z m387 -15 c0 -5 -4 -10 -10 -10 -5 0 -10 5 -10 10 0 6 5
10 10 10 6 0 10 -4 10 -10z m-110 -30 c0 -5 -4 -10 -10 -10 -5 0 -10 5 -10 10
0 6 5 10 10 10 6 0 10 -4 10 -10z m78 -2 c-6 -18 -28 -21 -28 -4 0 9 7 16 16
16 9 0 14 -5 12 -12z m-38 -23 c0 -8 -4 -15 -9 -15 -13 0 -22 16 -14 24 11 11
23 6 23 -9z m-790 -29 c0 -15 -45 -66 -59 -66 -5 0 -11 -4 -13 -10 -5 -15 -53
-17 -53 -2 0 6 3 11 7 10 4 -2 13 6 21 16 8 11 19 16 26 12 6 -4 13 0 16 8 3
9 7 23 10 31 6 19 45 20 45 1z m-1226 -16 c33 -12 36 -45 4 -36 -13 3 -30 6
-38 6 -23 0 -43 17 -36 29 9 14 36 14 70 1z m74 -38 c2 -7 -3 -12 -12 -12 -9
0 -16 7 -16 16 0 17 22 14 28 -4z m-463 -22 c-3 -5 -13 -10 -21 -10 -8 0 -12
5 -9 10 3 6 13 10 21 10 8 0 12 -4 9 -10z m1485 -28 c0 -29 -70 -81 -109 -82
-9 -1 -27 -7 -40 -14 -27 -15 -61 -10 -61 9 0 7 15 15 33 18 18 3 60 21 92 41
59 35 85 44 85 28z m-1676 -93 c-3 -5 -10 -7 -15 -3 -5 3 -7 10 -3 15 3 5 10
7 15 3 5 -3 7 -10 3 -15z m-46 -21 c-6 -18 -28 -21 -28 -4 0 9 7 16 16 16 9 0
14 -5 12 -12z m-34 -53 c3 -9 -1 -18 -10 -22 -19 -7 -28 2 -21 22 8 19 23 19
31 0z m1606 -36 c0 -11 -4 -17 -10 -14 -5 3 -10 13 -10 21 0 8 5 14 10 14 6 0
10 -9 10 -21z m-1652 -100 c-2 -6 -8 -10 -13 -10 -5 0 -11 4 -13 10 -2 6 4 11
13 11 9 0 15 -5 13 -11z"/>
<path d="M10555 3330 c-9 -18 -14 -34 -11 -37 2 -3 12 9 21 27 9 18 14 34 11
37 -2 3 -12 -9 -21 -27z"/>
<path d="M8708 2323 c-10 -2 -18 -8 -18 -12 0 -7 27 -89 45 -138 3 -9 12 -10
35 -2 39 14 42 21 34 64 -5 30 -10 35 -35 35 -37 0 -46 16 -13 24 14 4 24 12
21 19 -4 13 -40 18 -69 10z"/>
<path d="M7640 2176 c0 -12 -3 -51 -6 -85 l-7 -62 44 3 44 3 7 70 c4 39 5 76
3 83 -2 7 -21 12 -45 12 -35 0 -40 -3 -40 -24z"/>
<path d="M11614 5036 c-3 -8 -4 -25 -2 -38 3 -22 7 -23 97 -26 52 -1 98 1 102
5 4 4 5 23 2 41 l-5 32 -94 0 c-73 0 -96 -3 -100 -14z"/>
<path d="M3960 4910 l0 -40 100 0 100 0 0 40 c0 39 -1 40 -35 40 -24 0 -35 -5
-35 -15 0 -8 -4 -15 -9 -15 -5 0 -14 7 -21 15 -8 9 -30 15 -56 15 l-44 0 0
-40z"/>
<path d="M11616 4874 c-3 -9 -6 -26 -6 -39 0 -22 3 -23 98 -27 53 -2 98 -3 99
-3 2 1 5 17 7 37 6 44 -4 48 -115 48 -61 0 -78 -3 -83 -16z"/>
<path d="M4022 4783 c-52 -3 -63 -7 -58 -19 3 -9 6 -27 6 -41 0 -24 3 -25 38
-20 20 3 59 14 85 26 43 19 47 23 37 41 -6 11 -18 19 -28 18 -9 -1 -46 -3 -80
-5z"/>
<path d="M11608 4692 l-3 -40 59 -6 c32 -3 79 -6 102 -6 l44 0 0 40 0 40 -84
0 c-46 0 -91 3 -99 6 -11 4 -16 -4 -19 -34z"/>
<path d="M11596 4548 c-14 -53 -12 -55 90 -68 53 -6 97 -10 98 -8 2 2 6 20 9
40 l6 37 -67 6 c-37 3 -81 8 -98 11 -26 4 -33 1 -38 -18z"/>
<path d="M11575 4380 c-4 -16 -4 -34 -1 -39 5 -8 165 -37 183 -32 5 1 8 11 8
24 0 12 4 27 8 34 5 8 -3 14 -25 17 -18 3 -60 10 -92 16 -78 13 -73 14 -81
-20z"/>
<path d="M9761 4369 c-26 -11 -41 -23 -35 -28 18 -17 176 -63 185 -54 5 5 11
22 15 39 6 30 5 31 -43 43 -26 7 -55 14 -63 16 -8 2 -35 -5 -59 -16z"/>
<path d="M9680 4229 c-8 -17 -9 -34 -4 -38 11 -11 155 -71 169 -71 13 0 37 62
27 71 -6 5 -169 69 -177 69 -1 0 -8 -14 -15 -31z"/>
<path d="M11550 4225 c-15 -40 -13 -43 28 -54 61 -16 153 -33 156 -29 2 1 6
19 10 39 l6 36 -72 12 c-40 7 -83 15 -95 18 -18 4 -25 -1 -33 -22z"/>
<path d="M9616 4084 l-16 -34 90 -45 90 -45 17 35 c9 19 15 36 12 39 -2 2 -43
21 -90 43 l-86 41 -17 -34z"/>
<path d="M11514 4063 c-4 -19 -4 -36 -1 -39 6 -7 154 -44 173 -44 12 0 36 59
28 69 -2 2 -46 14 -98 26 l-96 23 -6 -35z"/>
<path d="M9542 3945 c-7 -14 -12 -28 -12 -29 0 -9 162 -106 169 -101 10 6 35
64 30 69 -20 16 -151 86 -162 86 -7 0 -19 -11 -25 -25z"/>
<path d="M11472 3908 c-5 -18 -8 -34 -6 -36 1 -2 43 -16 94 -32 l91 -28 10 24
c15 42 11 53 -28 63 -21 6 -60 17 -88 26 -65 19 -63 20 -73 -17z"/>
<path d="M9455 3814 c-9 -14 -15 -28 -12 -30 13 -14 151 -114 157 -114 6 0 40
54 40 64 0 7 -147 106 -158 106 -6 0 -17 -12 -27 -26z"/>
<path d="M11429 3764 c-5 -14 -9 -31 -9 -38 0 -12 175 -74 185 -65 3 3 8 19
11 36 6 29 3 32 -37 47 -24 9 -66 22 -92 30 -48 14 -48 14 -58 -10z"/>
<path d="M9366 3689 l-16 -32 47 -41 c95 -84 91 -82 119 -55 13 12 24 27 23
33 0 10 -141 126 -152 126 -3 0 -13 -14 -21 -31z"/>
<path d="M11371 3603 c-7 -19 -11 -36 -9 -37 8 -6 170 -66 178 -66 12 0 32 62
23 71 -5 3 -47 20 -94 37 l-86 30 -12 -35z"/>
<path d="M9260 3575 l-23 -24 69 -71 68 -70 29 28 29 29 -67 64 c-37 35 -70
65 -74 67 -4 1 -18 -9 -31 -23z"/>
<path d="M9148 3473 l-27 -26 61 -74 c33 -40 63 -73 67 -73 3 1 19 11 35 24
l29 24 -69 76 c-38 42 -69 76 -69 76 0 0 -12 -12 -27 -27z"/>
<path d="M11317 3473 c-2 -10 -8 -26 -12 -35 -6 -14 2 -22 39 -38 25 -11 67
-29 92 -40 l45 -20 15 36 c8 20 14 37 12 39 -6 4 -175 75 -180 75 -3 0 -8 -8
-11 -17z"/>
<path d="M9026 3377 l-29 -23 57 -82 58 -82 29 21 c16 11 29 25 29 30 0 6 -21
38 -47 72 -27 33 -52 67 -58 74 -8 10 -16 8 -39 -10z"/>
<path d="M11246 3311 c-18 -34 -15 -37 97 -89 l67 -31 15 29 c8 16 15 31 15
34 0 7 -125 70 -157 80 -18 6 -25 1 -37 -23z"/>
<path d="M8898 3291 c-16 -9 -28 -19 -28 -23 0 -6 83 -150 96 -167 2 -2 19 6
38 18 l35 22 -46 72 c-62 97 -62 97 -95 78z"/>
<path d="M6917 3218 c-9 -18 -30 -56 -47 -84 l-30 -52 32 -20 c18 -12 36 -18
40 -14 3 4 25 42 49 85 44 84 44 96 -7 111 -16 5 -24 -1 -37 -26z"/>
<path d="M8758 3211 l-26 -17 39 -84 c22 -46 41 -86 44 -88 2 -2 19 4 39 13
l36 17 -47 89 c-25 49 -49 89 -52 88 -3 0 -18 -8 -33 -18z"/>
<path d="M6750 3189 l-45 -20 24 -20 c31 -25 32 -25 59 16 34 53 31 54 -38 24z"/>
<path d="M11175 3170 c-15 -29 -13 -50 5 -50 4 0 41 -18 80 -41 40 -22 73 -39
75 -37 1 2 10 17 19 35 l16 32 -84 45 c-45 26 -86 46 -89 46 -4 0 -14 -14 -22
-30z"/>
<path d="M7033 3091 l-41 -89 26 -11 c19 -9 27 -9 32 0 4 6 12 9 17 6 8 -5 73
134 73 155 0 4 -54 28 -65 28 -1 0 -20 -40 -42 -89z"/>
<path d="M8615 3148 c-11 -6 -21 -12 -23 -13 -4 -3 58 -168 67 -177 8 -9 71
13 71 25 0 21 -74 177 -84 177 -6 0 -20 -6 -31 -12z"/>
<path d="M7209 3093 c-32 -83 -59 -156 -59 -159 0 -14 54 0 75 20 19 17 65
118 65 142 0 2 -60 24 -67 24 -2 0 -8 -12 -14 -27z"/>
<path d="M8463 3090 l-21 -9 26 -91 27 -92 34 6 c18 3 36 8 39 11 4 3 -7 45
-23 93 -31 89 -40 99 -82 82z"/>
<path d="M7378 3053 c-23 -28 -28 -39 -48 -107 l-18 -64 40 -10 c29 -8 40 -7
43 1 8 26 44 181 42 183 -16 13 -46 11 -59 -3z"/>
<path d="M8312 3053 c-18 -4 -23 -10 -19 -26 3 -12 13 -57 22 -100 l17 -78 32
7 c17 3 34 9 38 13 5 4 -3 47 -15 96 -24 92 -28 97 -75 88z"/>
<path d="M11095 3029 c-9 -17 -15 -32 -13 -33 54 -40 161 -97 169 -89 12 12 1
45 -12 37 -12 -7 -11 20 1 32 7 7 -11 22 -53 47 -35 20 -67 37 -70 37 -4 0
-14 -14 -22 -31z"/>
<path d="M7515 3017 c-15 -65 -35 -170 -33 -173 2 -1 19 -5 40 -9 34 -6 36 -5
42 22 14 69 28 164 25 167 -2 2 -19 6 -36 9 -28 6 -33 3 -38 -16z"/>
<path d="M8158 3023 c-21 -5 -21 -3 -7 -115 l12 -88 36 6 c20 4 38 8 40 10 4
4 -13 117 -26 172 -5 21 -18 25 -55 15z"/>
<path d="M7661 2920 c-6 -50 -9 -95 -6 -100 4 -6 21 -10 39 -10 29 0 34 4 40
31 3 17 6 62 6 100 l0 69 -34 0 -33 0 -12 -90z"/>
<path d="M7987 3003 c-2 -5 -2 -50 1 -100 l4 -93 39 0 c37 0 39 1 39 33 0 17
-3 62 -7 100 l-6 67 -33 0 c-18 0 -35 -3 -37 -7z"/>
<path d="M7825 2927 c-10 -110 -7 -121 38 -125 l37 -3 0 100 0 101 -34 0 -34
0 -7 -73z"/>
<path d="M11010 2890 c-7 -17 -11 -32 -9 -34 30 -23 148 -96 155 -96 10 0 49
59 42 64 -25 19 -157 96 -165 96 -6 0 -16 -14 -23 -30z"/>
<path d="M10921 2761 l-20 -28 81 -58 81 -58 23 28 c16 21 20 33 13 41 -12 14
-143 104 -152 104 -3 0 -15 -13 -26 -29z"/>
<path d="M10829 2639 c-12 -17 -18 -34 -13 -39 24 -23 137 -110 144 -110 7 0
32 27 43 46 4 6 -28 37 -73 72 l-79 61 -22 -30z"/>
<path d="M10729 2513 l-24 -25 70 -64 c39 -35 74 -64 78 -64 11 0 46 42 46 55
0 6 -16 23 -36 39 -25 21 -37 26 -42 17 -13 -20 -43 -1 -37 23 3 14 -1 26 -13
33 -16 10 -23 7 -42 -14z"/>
<path d="M4930 2473 c-19 -8 -46 -19 -59 -25 -23 -8 -23 -10 -8 -25 18 -18 28
-13 92 41 34 29 26 31 -25 9z"/>
<path d="M5006 2397 l-69 -63 25 -29 26 -29 71 63 c39 35 71 69 71 75 0 15
-32 46 -46 46 -5 0 -40 -29 -78 -63z"/>
<path d="M10619 2394 l-24 -26 75 -68 75 -69 28 27 29 27 -74 67 c-40 37 -76
68 -79 68 -3 0 -16 -12 -30 -26z"/>
<path d="M5122 2282 l-72 -67 25 -28 25 -28 30 21 c17 12 30 30 30 41 0 12 7
19 18 19 19 0 62 39 62 56 0 6 -10 20 -23 32 l-22 21 -73 -67z"/>
<path d="M10512 2277 l-22 -24 61 -66 c34 -37 67 -67 74 -67 6 0 22 11 35 25
l24 25 -70 65 c-38 35 -72 64 -75 65 -3 0 -15 -11 -27 -23z"/>
<path d="M5237 2167 l-66 -74 28 -27 c27 -26 28 -26 45 -7 10 11 16 24 13 28
-3 5 9 17 26 27 18 10 42 30 54 45 l22 28 -28 27 -27 26 -67 -73z m48 14 c3
-5 1 -12 -5 -16 -5 -3 -10 1 -10 9 0 18 6 21 15 7z"/>
<path d="M10392 2167 l-22 -23 70 -74 69 -75 27 27 27 26 -64 71 c-35 39 -68
71 -74 71 -6 0 -21 -10 -33 -23z"/>
<path d="M5355 2054 c-37 -41 -66 -76 -64 -78 2 -1 17 -12 32 -24 l28 -21 65
74 c35 40 64 75 64 77 0 2 -13 14 -29 26 l-29 21 -67 -75z"/>
<path d="M10276 2066 l-28 -24 57 -68 c32 -38 61 -73 66 -78 9 -10 59 30 59
46 0 8 -25 38 -95 115 l-30 32 -29 -23z"/>
<path d="M5481 1952 l-61 -77 25 -22 c15 -13 30 -23 34 -23 8 0 121 142 121
152 0 2 -13 14 -29 26 l-29 21 -61 -77z"/>
<path d="M10153 1966 l-27 -24 57 -76 c32 -42 60 -76 63 -76 3 0 19 9 35 21
l29 20 -61 80 c-34 43 -63 79 -65 79 -1 0 -15 -11 -31 -24z"/>
<path d="M5608 1852 l-56 -77 26 -22 c15 -13 30 -23 34 -23 4 0 32 35 63 77
l57 78 -29 22 c-15 13 -30 23 -33 22 -3 0 -31 -35 -62 -77z"/>
<path d="M10020 1871 l-24 -19 54 -81 c30 -45 57 -81 60 -81 3 0 18 10 34 23
l28 23 -53 76 c-30 42 -58 77 -64 77 -5 0 -21 -8 -35 -18z"/>
<path d="M5792 1827 c-6 -7 -32 -44 -57 -82 -44 -65 -46 -70 -28 -83 47 -35
48 -35 95 41 25 40 48 77 52 84 3 6 -6 20 -23 32 -23 17 -31 18 -39 8z"/>
<path d="M9889 1782 l-26 -17 46 -77 c26 -43 50 -80 53 -84 7 -7 68 26 68 37
0 12 -99 159 -107 159 -5 0 -20 -8 -34 -18z"/>
<path d="M5916 1728 c-7 -13 -30 -49 -50 -81 -20 -31 -36 -59 -36 -62 0 -2 14
-12 31 -21 38 -19 38 -19 95 78 l43 72 -27 18 c-35 23 -39 23 -56 -4z"/>
<path d="M9780 1710 c0 -5 -9 -10 -19 -10 -26 0 -36 -17 -21 -35 14 -17 66
-20 75 -6 6 11 -15 61 -27 61 -4 0 -8 -4 -8 -10z"/>
<path d="M6062 1657 c-16 -21 -82 -143 -82 -153 0 -5 13 -17 29 -26 23 -12 32
-14 39 -5 11 13 82 154 82 161 0 3 -13 12 -29 20 -23 12 -31 13 -39 3z"/>
<path d="M6165 1510 l-45 -90 30 -15 c16 -8 33 -15 38 -15 9 0 82 152 82 171
0 4 -13 15 -30 24 l-30 15 -45 -90z"/>
<path d="M9629 1523 c22 -45 45 -84 50 -88 6 -3 16 3 23 15 7 11 20 20 30 20
26 0 -38 107 -68 113 -20 3 -21 2 -11 -20 13 -28 -1 -45 -17 -19 -37 61 -41
49 -7 -21z m67 -17 c15 -12 16 -17 7 -27 -10 -10 -15 -9 -28 1 -16 13 -21 40
-7 40 5 0 17 -6 28 -14z"/>
<path d="M9473 1556 c-13 -6 -23 -17 -23 -25 0 -11 65 -160 74 -169 2 -1 19 5
39 14 l35 17 -42 88 c-22 48 -45 88 -51 87 -5 0 -20 -5 -32 -12z m47 -56 c0
-5 -7 -10 -15 -10 -8 0 -15 5 -15 10 0 6 7 10 15 10 8 0 15 -4 15 -10z"/>
<path d="M9813 1552 c-8 -5 -8 -12 2 -26 13 -18 15 -17 44 4 17 12 31 23 31
26 0 7 -64 4 -77 -4z"/>
<path d="M6313 1440 l-42 -90 29 -15 c16 -8 33 -15 38 -15 7 0 45 81 79 167 4
9 -43 43 -60 43 -2 0 -22 -41 -44 -90z"/>
<path d="M9322 1489 c-27 -10 -26 -14 20 -126 l30 -71 31 13 c17 7 33 18 35
23 5 16 -69 172 -82 171 -6 0 -21 -4 -34 -10z"/>
<path d="M6465 1382 c-19 -47 -34 -91 -31 -98 6 -15 56 -28 67 -17 13 13 69
165 64 173 -3 5 -18 13 -34 18 l-30 10 -36 -86z"/>
<path d="M9182 1433 c-19 -8 -32 -19 -30 -26 3 -7 18 -48 33 -92 16 -44 29
-81 31 -83 1 -2 18 4 38 12 l36 15 -24 64 c-50 130 -46 126 -84 110z"/>
<path d="M6639 1383 c-24 -61 -49 -137 -49 -149 0 -9 48 -34 66 -34 1 0 15 37
30 83 15 45 29 87 31 93 2 7 -10 17 -28 23 -41 14 -38 15 -50 -16z"/>
<path d="M9030 1379 c-13 -6 -26 -12 -28 -13 -3 -4 47 -177 54 -184 1 -2 19 1
38 8 32 10 35 14 29 38 -13 55 -52 156 -60 159 -4 1 -19 -3 -33 -8z"/>
<path d="M6796 1349 c-3 -8 -14 -43 -25 -79 -10 -36 -22 -73 -26 -82 -5 -13 2
-19 31 -27 21 -6 39 -9 41 -7 11 11 53 180 46 187 -17 16 -63 21 -67 8z"/>
<path d="M8868 1333 c-10 -2 -18 -11 -18 -20 0 -12 40 -171 45 -180 3 -6 75
19 75 25 0 4 -7 30 -15 57 -9 28 -20 67 -26 88 -10 37 -19 41 -61 30z"/>
<path d="M6929 1225 c-13 -52 -20 -97 -17 -101 4 -3 21 -7 39 -7 33 -2 33 -2
49 71 l17 72 -23 0 c-35 0 -29 19 7 27 33 6 26 15 -23 27 -26 6 -26 5 -49 -89z"/>
<path d="M8713 1293 c-26 -5 -26 -5 -14 -53 5 -19 15 -61 21 -92 11 -57 11
-57 43 -51 18 3 35 8 39 12 4 3 -3 48 -15 99 -22 96 -21 95 -74 85z"/>
<path d="M7106 1269 c-11 -32 -39 -180 -35 -183 2 -2 20 -6 39 -8 l35 -3 19
93 c11 51 17 94 14 97 -2 3 -19 8 -36 11 -22 5 -33 2 -36 -7z"/>
<path d="M8562 1262 c-28 -8 -27 -4 -12 -101 15 -98 19 -105 59 -96 36 8 37
11 16 118 -8 43 -15 81 -15 83 0 5 -20 4 -48 -4z"/>
<path d="M7266 1241 c-3 -5 -12 -48 -20 -96 -10 -63 -10 -88 -2 -90 65 -19 63
-20 76 58 6 39 13 84 16 98 4 21 0 28 -18 33 -32 8 -46 7 -52 -3z"/>
<path d="M8391 1231 c-12 -8 -12 -23 -2 -97 7 -48 14 -91 16 -94 7 -11 75 2
75 14 0 14 -19 134 -25 164 -6 23 -37 30 -64 13z"/>
<path d="M7410 1134 c-6 -53 -10 -97 -8 -99 2 -2 19 -6 40 -10 l36 -7 6 69 c4
37 8 82 10 99 4 29 1 32 -26 38 -17 3 -34 6 -38 6 -4 0 -13 -43 -20 -96z"/>
<path d="M8232 1211 c-10 -6 -12 -26 -7 -82 10 -118 9 -116 51 -111 l36 4 -7
92 c-4 50 -9 94 -12 98 -6 11 -45 10 -61 -1z"/>
<path d="M7577 1158 c-4 -29 -7 -74 -7 -100 l0 -48 40 0 40 0 1 73 c1 39 2 83
3 97 1 22 -4 25 -35 28 l-36 3 -6 -53z"/>
<path d="M8082 1190 c-23 -19 -24 -23 -17 -106 l8 -86 35 5 c19 4 36 7 37 9 2
2 0 46 -3 98 -8 104 -17 116 -60 80z"/>
<path d="M7740 1162 c0 -21 -3 -67 -6 -101 l-7 -61 42 0 41 0 2 75 c1 41 2 85
2 98 1 18 -5 22 -36 25 -38 3 -38 3 -38 -36z"/>
<path d="M7900 1101 l0 -101 40 0 41 0 -3 98 -3 97 -37 3 -38 3 0 -100z"/>
</g>
</svg>
