<?xml version="1.0" standalone="no"?>
<!DOCTYPE svg PUBLIC "-//W3C//DTD SVG 20010904//EN"
 "http://www.w3.org/TR/2001/REC-SVG-20010904/DTD/svg10.dtd">
<svg version="1.0" xmlns="http://www.w3.org/2000/svg"
 width="512.000000pt" height="512.000000pt" viewBox="0 0 512.000000 512.000000"
 preserveAspectRatio="xMidYMid meet">

<g transform="translate(0.000000,512.000000) scale(0.100000,-0.100000)"
fill="#14213d" stroke="none">
<path d="M3740 3620 c-99 -14 -183 -40 -275 -85 -76 -37 -158 -99 -494 -370
-229 -185 -409 -324 -417 -321 -7 3 -182 140 -388 306 -207 165 -400 316 -430
335 -74 47 -155 82 -251 108 -112 30 -298 30 -410 0 -256 -69 -448 -226 -560
-456 -78 -164 -80 -175 -80 -572 0 -335 1 -353 23 -429 83 -287 299 -505 587
-592 80 -24 106 -27 235 -27 129 0 155 3 235 27 152 46 216 88 638 422 219
173 402 314 407 314 5 0 180 -137 389 -305 209 -168 405 -320 435 -340 74 -47
155 -82 251 -108 114 -30 297 -30 413 1 320 86 561 338 626 654 23 111 23 655
0 766 -42 203 -173 402 -345 525 -66 47 -192 103 -280 126 -89 23 -232 33
-309 21z m-2290 -466 c46 -22 172 -116 413 -308 191 -153 347 -281 347 -286 0
-5 -156 -133 -347 -286 -415 -331 -429 -339 -583 -339 -97 0 -110 2 -173 32
-80 38 -163 114 -201 183 -45 83 -56 160 -56 410 0 311 18 385 118 492 91 98
193 140 327 135 76 -2 101 -8 155 -33z m2563 -1 c134 -63 223 -181 248 -325 7
-44 10 -156 7 -310 -4 -222 -6 -248 -27 -300 -70 -180 -234 -287 -424 -276
-138 9 -155 19 -547 328 -195 154 -356 283 -358 288 -3 11 665 546 723 579 77
43 123 53 220 50 77 -2 100 -7 158 -34z"/>
</g>
</svg>
