<?xml version="1.0" standalone="no"?>
<!DOCTYPE svg PUBLIC "-//W3C//DTD SVG 20010904//EN"
 "http://www.w3.org/TR/2001/REC-SVG-20010904/DTD/svg10.dtd">
<svg version="1.0" xmlns="http://www.w3.org/2000/svg"
 width="500.000000pt" height="500.000000pt"  viewBox="0 0 500.000000 500.000000"
 preserveAspectRatio="xMidYMid meet">

<g transform="translate(0.000000,500.000000) scale(0.100000,-0.100000)"
fill="#14213d" stroke="none">
<path d="M2234 4134 c-80 -39 -93 -79 -94 -280 l0 -142 -41 -16 -42 -17 -127
125 c-197 194 -199 193 -468 -73 -205 -203 -222 -228 -208 -307 6 -30 30 -61
125 -158 l117 -121 -17 -35 -17 -35 -173 -5 c-198 -6 -226 -15 -267 -86 -22
-38 -22 -44 -20 -316 3 -262 4 -278 24 -304 48 -65 60 -69 244 -72 l169 -4 16
-40 16 -41 -124 -126 c-101 -103 -126 -133 -131 -163 -15 -81 0 -102 210 -312
181 -180 200 -196 239 -202 71 -10 101 7 224 130 l113 113 38 -18 38 -19 4
-172 c3 -159 5 -176 26 -209 46 -75 43 -74 363 -74 l286 0 36 28 c58 44 61 56
65 239 l4 167 40 16 41 16 126 -125 c115 -114 130 -125 172 -131 31 -5 57 -2
81 8 22 9 109 88 222 201 199 200 216 225 201 303 -5 31 -28 60 -124 158
l-118 120 18 35 17 35 173 5 c193 6 218 13 261 72 23 32 23 38 26 314 l3 281
-34 44 c-42 55 -79 69 -187 68 -47 -1 -115 -1 -151 0 l-67 1 -16 42 -17 41
125 126 c114 115 125 130 131 172 5 31 2 57 -8 80 -8 20 -93 113 -201 221
-201 202 -225 218 -303 203 -31 -6 -59 -28 -155 -122 l-117 -116 -38 14 -38
15 -5 174 c-6 199 -15 227 -86 267 -38 22 -48 23 -304 23 -219 0 -270 -3 -296
-16z m568 -101 c16 -14 18 -35 18 -200 0 -180 6 -223 33 -223 7 0 41 -14 75
-30 35 -17 71 -30 80 -30 8 0 75 59 148 130 72 72 140 130 150 130 10 0 100
-82 201 -182 154 -154 183 -187 183 -212 0 -24 -24 -53 -135 -167 l-136 -137
16 -39 c9 -21 25 -62 35 -92 11 -30 22 -57 26 -60 3 -3 91 -8 195 -11 154 -4
192 -8 199 -20 13 -20 13 -520 0 -540 -8 -12 -44 -16 -202 -18 -159 -3 -196
-6 -210 -19 -10 -9 -18 -20 -18 -24 0 -5 -13 -37 -30 -71 -16 -34 -30 -68 -30
-77 0 -8 59 -74 130 -146 76 -77 130 -140 130 -151 0 -22 -356 -381 -380 -384
-8 -2 -21 -2 -29 -1 -8 0 -76 62 -152 136 l-137 136 -39 -16 c-21 -9 -58 -23
-83 -31 -78 -26 -80 -31 -80 -235 0 -166 -1 -179 -19 -189 -12 -6 -118 -10
-275 -10 -252 0 -255 0 -270 22 -13 18 -16 56 -16 205 0 152 -3 184 -16 197
-8 9 -20 16 -25 16 -5 0 -37 14 -71 30 -34 17 -69 30 -77 30 -9 0 -72 -56
-141 -125 -104 -105 -130 -125 -155 -125 -25 0 -56 26 -207 177 -148 148 -178
183 -178 207 0 23 24 52 127 158 70 71 131 135 136 143 4 8 -1 32 -12 57 -11
24 -27 64 -36 90 -12 31 -24 48 -39 52 -11 3 -96 6 -188 6 -138 0 -169 3 -182
16 -14 13 -16 52 -16 271 0 225 2 259 17 275 14 16 35 18 202 18 102 0 191 4
197 8 14 9 84 160 84 180 0 9 -58 75 -130 147 -73 74 -130 140 -130 150 0 11
77 96 182 202 154 154 187 183 212 183 24 0 53 -24 167 -136 76 -75 142 -134
146 -132 5 1 42 16 83 32 112 42 110 37 110 241 0 144 3 176 16 189 13 14 52
16 271 16 225 0 259 -2 275 -17z"/>
<path d="M2380 3504 c-303 -53 -549 -239 -666 -501 -57 -131 -68 -187 -68
-353 0 -168 8 -211 62 -337 86 -201 257 -372 456 -455 131 -55 169 -62 336
-62 168 0 210 8 337 62 200 85 370 255 455 455 53 124 61 170 62 332 1 172
-10 228 -72 365 -60 134 -191 285 -315 364 -66 42 -176 91 -251 112 -50 14
-287 27 -336 18z m245 -99 c106 -19 132 -27 215 -68 259 -130 430 -403 430
-687 0 -452 -412 -817 -858 -762 -223 28 -422 148 -541 327 -160 239 -183 501
-68 755 35 76 104 174 159 226 188 178 426 253 663 209z"/>
<path d="M2545 2858 c-8 -18 -37 -94 -65 -168 -28 -74 -62 -162 -75 -195 -30
-72 -30 -75 -7 -75 19 0 28 22 141 317 28 73 51 137 51 143 0 23 -31 8 -45
-22z"/>
<path d="M2038 2707 c-94 -49 -138 -77 -138 -89 0 -12 45 -39 150 -93 131 -66
150 -73 150 -55 0 15 -28 33 -125 82 -68 34 -121 66 -117 70 5 5 60 34 123 66
71 35 115 64 117 75 2 9 -2 17 -10 16 -7 0 -75 -33 -150 -72z"/>
<path d="M2770 2765 c0 -9 48 -39 125 -77 69 -35 125 -66 125 -70 0 -4 -56
-34 -125 -68 -96 -47 -125 -66 -125 -81 0 -10 2 -19 4 -19 2 0 68 33 147 74
101 52 145 80 147 93 2 16 -24 33 -138 91 -78 40 -146 72 -151 72 -5 0 -9 -7
-9 -15z"/>
</g>
</svg>
