<?xml version="1.0" standalone="no"?>
<!DOCTYPE svg PUBLIC "-//W3C//DTD SVG 20010904//EN"
 "http://www.w3.org/TR/2001/REC-SVG-20010904/DTD/svg10.dtd">
<svg version="1.0" xmlns="http://www.w3.org/2000/svg"
 width="612.000000pt" height="550.000000pt" viewBox="0 0 612.000000 550.000000"
 preserveAspectRatio="xMidYMid meet">

<g transform="translate(0.000000,550.000000) scale(0.100000,-0.100000)"
fill="#00A8E8" stroke="none">
<path d="M3026 4818 c-8 -18 -44 -105 -81 -193 -36 -88 -69 -163 -74 -167 -4
-5 -94 -15 -201 -23 -232 -19 -240 -20 -240 -43 0 -11 66 -75 161 -157 151
-130 161 -140 157 -169 -3 -17 -24 -113 -48 -213 -35 -147 -42 -185 -32 -195
15 -15 18 -14 239 122 l153 93 152 -93 c224 -136 225 -137 239 -123 10 10 3
54 -34 215 -26 112 -48 208 -47 214 0 6 72 74 160 150 95 82 160 145 160 156
0 23 -7 24 -240 43 -107 9 -198 19 -202 23 -3 4 -42 93 -86 197 -65 157 -83
191 -101 193 -16 3 -25 -4 -35 -30z"/>
<path d="M1761 4338 c-10 -24 -40 -95 -66 -158 -27 -63 -52 -118 -57 -121 -5
-3 -81 -11 -170 -18 -89 -7 -166 -15 -170 -17 -21 -13 1 -38 120 -139 70 -60
128 -110 130 -111 1 -1 -15 -77 -37 -169 -22 -93 -38 -172 -35 -177 11 -17 37
-6 165 73 72 44 137 83 144 85 7 3 76 -33 153 -80 78 -47 148 -86 157 -86 22
0 19 21 -20 186 -19 80 -35 151 -35 157 0 7 56 59 125 117 123 104 143 126
128 141 -4 4 -75 12 -158 19 -82 6 -160 13 -171 15 -17 4 -33 30 -69 117 -26
62 -56 134 -67 161 -11 26 -27 47 -35 47 -7 0 -22 -19 -32 -42z"/>
<path d="M4245 4220 c-53 -127 -72 -161 -89 -165 -11 -2 -88 -9 -171 -16 -82
-6 -153 -13 -157 -16 -20 -11 2 -36 122 -138 72 -60 130 -115 130 -122 0 -7
-16 -78 -35 -159 -40 -165 -42 -184 -19 -184 9 0 79 39 156 86 77 47 145 83
152 81 6 -3 71 -41 145 -86 133 -80 155 -90 165 -72 5 7 -49 253 -70 322 -3
12 34 50 126 129 121 106 143 131 121 144 -4 3 -81 11 -169 17 -89 7 -165 15
-170 18 -5 3 -38 76 -73 161 -40 96 -71 156 -80 158 -12 2 -33 -39 -84 -158z"/>
<path d="M735 3763 c-9 -21 -33 -78 -54 -128 l-37 -90 -135 -12 c-74 -6 -137
-12 -141 -12 -24 -3 4 -36 97 -115 70 -60 104 -95 100 -105 -23 -79 -56 -254
-48 -262 5 -5 54 19 123 61 63 39 119 70 123 70 5 0 61 -31 125 -70 67 -40
120 -66 125 -61 5 5 -4 65 -22 141 -37 154 -46 128 88 240 49 41 90 80 90 87
1 15 -30 20 -154 28 -55 3 -107 8 -116 11 -10 3 -38 55 -69 129 -32 76 -58
125 -66 125 -8 0 -21 -17 -29 -37z"/>
<path d="M5289 3673 l-55 -128 -132 -11 c-73 -6 -137 -15 -143 -21 -8 -8 20
-37 95 -103 58 -51 106 -94 106 -97 0 -2 -14 -62 -31 -134 -19 -81 -28 -134
-22 -140 6 -6 54 17 125 61 63 38 119 70 124 70 5 0 61 -31 124 -70 72 -43
118 -66 124 -60 8 8 -31 210 -51 266 -2 5 44 50 102 99 87 74 119 110 103 116
-2 0 -66 6 -142 12 l-140 12 -52 125 c-29 69 -59 126 -67 128 -10 2 -31 -36
-68 -125z"/>
<path d="M2911 3209 c-58 -41 -78 -92 -91 -225 -11 -118 -41 -226 -111 -394
l-40 -97 -275 -292 -275 -291 -68 0 c-53 0 -74 -4 -92 -19 l-24 -19 -3 -514
c-2 -282 0 -528 3 -545 8 -47 45 -63 144 -63 67 0 94 -6 173 -36 125 -48 367
-119 468 -138 115 -22 758 -23 840 -1 124 33 251 118 290 196 14 27 20 59 20
111 l1 73 39 27 c66 46 93 97 97 186 3 42 1 95 -4 116 -8 38 -7 42 32 81 56
56 79 130 73 239 -4 82 -4 83 24 99 64 37 91 181 45 248 -28 42 -75 74 -141
96 -44 15 -110 18 -483 21 -238 2 -433 5 -433 7 0 2 11 48 25 102 60 238 89
490 83 734 -3 154 -6 179 -25 214 -44 83 -98 115 -192 115 -49 0 -65 -5 -100
-31z"/>
<path d="M1134 1979 c-18 -20 -19 -46 -19 -661 l0 -640 24 -19 c22 -18 43 -19
321 -19 l299 0 20 26 c21 26 21 35 21 654 0 619 0 628 -21 654 l-20 26 -303 0
c-295 0 -303 -1 -322 -21z"/>
</g>
</svg>
