<?xml version="1.0" standalone="no"?>
<!DOCTYPE svg PUBLIC "-//W3C//DTD SVG 20010904//EN"
 "http://www.w3.org/TR/2001/REC-SVG-20010904/DTD/svg10.dtd">
<svg version="1.0" xmlns="http://www.w3.org/2000/svg"
 width="600.000000pt" height="600.000000pt" viewBox="0 0 600.000000 600.000000"
 preserveAspectRatio="xMidYMid meet">

<g transform="translate(0.000000,600.000000) scale(0.100000,-0.100000)"
fill="#14213d" stroke="none">
<path d="M1922 4354 c-60 -22 -135 -98 -155 -158 -24 -70 -23 -217 2 -271 25
-56 66 -101 120 -133 40 -24 56 -27 131 -27 96 0 140 18 197 77 56 58 76 120
75 226 -2 136 -42 212 -139 269 -57 33 -165 41 -231 17z"/>
<path d="M3870 4349 c-58 -26 -105 -71 -138 -134 -24 -45 -27 -60 -26 -150 1
-116 14 -154 75 -220 56 -61 125 -88 208 -83 80 5 132 29 187 84 52 54 74 121
74 229 0 71 -4 90 -31 144 -34 67 -74 105 -141 132 -58 24 -151 23 -208 -2z"/>
<path d="M2930 4176 c-138 -37 -201 -130 -202 -301 -1 -73 3 -99 21 -136 84
-176 304 -219 441 -87 57 56 80 119 80 222 0 121 -13 160 -80 228 -43 44 -67
60 -109 72 -64 19 -90 19 -151 2z"/>
<path d="M1895 3660 c-180 -26 -278 -63 -338 -130 -58 -64 -67 -101 -67 -272
l0 -144 131 -18 c114 -16 132 -22 145 -42 21 -32 11 -46 -101 -150 -52 -48
-93 -89 -91 -91 5 -5 193 19 203 26 4 3 55 101 113 216 102 203 106 210 135
210 29 0 33 -7 132 -205 56 -113 104 -209 106 -214 3 -8 228 -45 280 -46 16 0
17 21 17 308 0 302 -1 308 -24 357 -45 95 -115 140 -273 175 -102 23 -282 33
-368 20z"/>
<path d="M3836 3659 c-80 -12 -199 -45 -245 -68 -51 -26 -99 -77 -125 -131
-20 -42 -21 -63 -24 -354 l-3 -309 58 7 c85 9 233 33 237 37 2 2 52 100 110
217 91 182 109 212 129 212 12 0 27 -4 33 -8 7 -4 57 -100 113 -214 81 -166
105 -209 123 -212 31 -7 164 -26 179 -26 7 0 -35 46 -94 103 -59 57 -107 110
-107 118 0 33 35 47 165 66 l130 18 3 133 c3 151 -5 190 -51 258 -41 61 -106
97 -233 130 -109 28 -291 39 -398 23z"/>
<path d="M2805 3465 c-38 -7 -88 -18 -111 -25 l-41 -12 1 -323 1 -323 40 -7
c86 -13 86 -45 -2 -137 l-68 -70 50 7 c28 4 51 8 51 9 1 0 56 110 122 242 67
133 128 244 136 247 9 4 23 4 32 0 8 -3 69 -114 136 -247 66 -132 121 -242
122 -243 1 -1 26 -5 56 -9 l55 -7 -72 75 c-55 58 -71 80 -66 96 5 20 48 42 84
42 17 0 19 18 21 321 l3 321 -25 10 c-117 45 -374 61 -525 33z"/>
<path d="M945 3243 c-76 -150 -94 -179 -116 -184 -15 -4 -98 -17 -185 -29 -88
-12 -165 -24 -173 -26 -10 -3 34 -54 129 -149 l144 -144 -33 -197 c-17 -108
-30 -198 -28 -200 2 -3 80 36 174 86 94 49 176 90 183 90 7 0 91 -41 186 -90
203 -106 187 -117 148 100 -22 129 -29 148 -55 175 -31 33 -37 66 -16 83 7 6
33 14 57 18 39 6 60 20 159 113 106 98 112 106 90 113 -13 4 -101 19 -196 32
-95 13 -178 28 -184 32 -7 4 -50 85 -96 180 -46 96 -87 174 -91 174 -4 0 -47
-80 -97 -177z"/>
<path d="M4868 3246 c-48 -96 -92 -177 -97 -181 -6 -3 -96 -18 -201 -33 -105
-16 -191 -32 -191 -36 -1 -4 47 -54 107 -109 93 -89 113 -103 153 -110 25 -5
51 -13 58 -19 22 -18 15 -50 -17 -83 -28 -29 -32 -44 -58 -198 -16 -92 -26
-167 -24 -167 2 0 80 41 173 90 93 50 177 90 185 90 9 0 94 -41 190 -91 96
-50 174 -87 174 -82 0 4 -14 95 -32 201 l-33 192 144 144 c132 132 142 145
120 150 -13 3 -89 15 -169 26 -234 34 -203 12 -300 215 -46 96 -86 175 -90
175 -3 0 -45 -78 -92 -174z"/>
<path d="M1938 2950 c-47 -96 -91 -180 -99 -186 -8 -6 -101 -24 -206 -40 -106
-16 -193 -32 -193 -35 0 -4 63 -66 140 -139 159 -150 154 -140 125 -283 -8
-40 -19 -103 -25 -142 -6 -38 -13 -82 -16 -98 -6 -27 -1 -25 169 63 95 49 182
90 192 90 10 0 96 -41 192 -90 95 -50 173 -89 173 -88 0 2 -11 64 -24 138
l-23 135 -81 79 c-132 128 -125 144 68 171 l129 18 75 72 c42 39 76 74 76 77
0 3 -42 11 -92 17 -126 17 -308 47 -312 52 -2 2 -44 85 -94 184 l-90 180 -84
-175z"/>
<path d="M3888 2941 c-48 -98 -95 -181 -104 -185 -9 -3 -101 -18 -206 -33
l-189 -26 76 -77 75 -76 131 -18 c107 -16 132 -22 144 -39 19 -28 4 -52 -84
-133 l-66 -61 -25 -142 c-15 -78 -24 -144 -21 -146 2 -3 14 1 25 8 12 8 92 51
178 96 l157 82 178 -94 c98 -52 179 -91 181 -86 2 4 -11 89 -27 188 -17 100
-31 188 -31 197 0 8 64 78 143 154 78 76 140 140 137 143 -3 3 -86 17 -186 31
-99 14 -188 28 -198 32 -9 4 -57 87 -107 185 -49 99 -90 179 -92 179 -1 0 -41
-81 -89 -179z"/>
<path d="M2894 2718 c-73 -148 -107 -206 -125 -215 -13 -6 -112 -23 -219 -38
-107 -15 -203 -30 -213 -34 -15 -5 14 -37 147 -164 142 -135 166 -163 166
-188 0 -16 -16 -121 -35 -232 -19 -111 -35 -205 -35 -210 0 -4 37 12 83 36
268 143 316 167 335 167 12 0 111 -47 219 -104 109 -58 199 -103 200 -102 2 1
-13 95 -32 207 -19 112 -35 218 -35 235 0 27 21 52 161 189 88 86 157 161 152
165 -4 4 -106 21 -225 38 -120 17 -221 33 -226 36 -4 2 -52 97 -107 210 -55
113 -102 206 -105 206 -3 0 -51 -91 -106 -202z"/>
</g>
</svg>
