<?xml version="1.0" standalone="no"?>
<!DOCTYPE svg PUBLIC "-//W3C//DTD SVG 20010904//EN"
 "http://www.w3.org/TR/2001/REC-SVG-20010904/DTD/svg10.dtd">
<svg version="1.0" xmlns="http://www.w3.org/2000/svg"
 width="238.000000pt" height="212.000000pt" viewBox="0 0 238.000000 212.000000"
 preserveAspectRatio="xMidYMid meet">

<g transform="translate(0.000000,212.000000) scale(0.100000,-0.100000)"
fill="#00A8E8" stroke="none">
<path d="M1460 1837 c-130 -69 -92 -258 55 -275 92 -10 175 78 160 168 -12 69
-81 130 -148 130 -13 0 -43 -10 -67 -23z"/>
<path d="M1105 1661 c-129 -78 -71 -271 81 -271 74 0 144 70 144 145 0 43 -30
96 -69 122 -43 29 -113 31 -156 4z"/>
<path d="M765 1491 c-53 -33 -69 -58 -72 -119 -5 -68 17 -111 69 -138 101 -53
218 15 218 126 0 113 -123 188 -215 131z"/>
<path d="M1374 1457 c-9 -18 -28 -44 -42 -59 l-26 -28 29 0 c45 0 115 -39 144
-81 l26 -38 153 -1 152 0 0 61 c0 36 -7 75 -17 96 -35 75 -126 94 -215 46
l-50 -27 -40 23 c-23 13 -54 27 -69 31 -26 8 -31 5 -45 -23z"/>
<path d="M1030 1297 c0 -8 -13 -33 -30 -55 l-30 -42 40 -6 c48 -8 116 -54 132
-89 11 -25 11 -25 165 -25 l153 0 0 68 c0 49 -5 75 -19 96 -47 71 -122 85
-208 37 l-52 -28 -50 28 c-54 31 -101 38 -101 16z"/>
<path d="M1520 1135 l0 -55 190 0 190 0 0 -115 0 -115 -40 0 -40 0 0 -115 0
-115 145 0 145 0 0 230 0 230 40 0 40 0 0 55 0 55 -335 0 -335 0 0 -55z"/>
<path d="M630 1122 c-47 -25 -80 -90 -80 -159 l0 -53 285 0 285 0 0 50 c0 99
-49 166 -129 177 -29 4 -51 -2 -98 -26 l-61 -30 -54 29 c-61 34 -99 37 -148
12z"/>
<path d="M1180 965 l0 -55 188 -2 187 -3 0 -115 0 -115 -42 -3 -43 -3 0 -115
0 -114 145 0 145 0 0 235 0 235 39 0 39 0 4 51 c1 28 1 53 -1 55 -2 2 -152 4
-333 4 l-328 0 0 -55z"/>
<path d="M170 790 l0 -60 45 0 45 0 0 -232 0 -231 193 7 c221 8 228 9 246 21
9 5 12 4 8 -2 -9 -14 15 -23 58 -23 34 0 56 15 33 22 -9 3 -9 6 0 12 7 4 12 2
12 -4 0 -6 5 -8 12 -4 7 4 8 3 4 -4 -4 -7 -1 -12 9 -12 8 0 20 10 25 23 7 18
9 19 9 3 1 -12 6 -16 16 -13 8 4 17 1 21 -5 4 -6 3 -8 -4 -4 -6 3 -13 2 -17
-4 -4 -6 9 -10 34 -10 22 0 43 5 47 12 5 7 3 8 -6 3 -9 -5 -11 -4 -6 4 6 9 11
9 22 0 11 -9 17 -9 29 1 12 10 15 10 15 -1 0 -11 2 -11 10 1 9 13 10 13 11 0
1 -8 5 -1 9 15 8 30 8 30 9 4 0 -15 8 -30 17 -33 9 -3 87 -6 175 -6 l159 0 0
230 0 230 45 0 45 0 0 60 0 60 -665 0 -665 0 0 -60z m378 -404 c-13 -14 -28
-12 -28 5 0 5 9 9 20 9 17 0 19 -2 8 -14z m181 5 c8 -5 -5 -7 -35 -4 -27 3
-51 7 -53 9 -9 8 75 3 88 -5z m171 -1 c20 -6 21 -8 5 -8 -11 0 -29 3 -40 8
-25 11 1 11 35 0z m178 5 c-11 -11 -58 -15 -58 -5 0 5 14 10 32 10 17 0 29 -2
26 -5z m-245 -29 c6 -15 -1 -26 -15 -26 -5 0 -6 6 -2 13 5 7 0 6 -11 -3 -11
-9 -16 -10 -11 -2 4 7 2 12 -6 12 -9 0 -9 3 2 10 21 14 37 12 43 -4z m-193 0
c0 -2 -7 -17 -16 -32 -15 -28 -16 -28 -10 -4 8 40 -27 37 -42 -3 -10 -25 -14
-29 -24 -18 -11 10 -9 15 6 26 10 8 15 18 11 24 -4 7 8 11 34 11 23 0 41 -2
41 -4z m255 -16 c-3 -5 -12 -10 -18 -10 -7 0 -6 4 3 10 19 12 23 12 15 0z m70
0 c3 -6 -1 -7 -9 -4 -18 7 -21 14 -7 14 6 0 13 -4 16 -10z m35 0 c0 -5 -4 -10
-10 -10 -5 0 -10 5 -10 10 0 6 5 10 10 10 6 0 10 -4 10 -10z m-83 -22 c-3 -8
-6 -5 -6 6 -1 11 2 17 5 13 3 -3 4 -12 1 -19z m193 4 c0 -24 -8 -32 -26 -25
-10 4 -11 9 -1 24 15 24 27 24 27 1z"/>
</g>
</svg>
